<?xml version="1.0" encoding="UTF-8"?><svg xmlns="http://www.w3.org/2000/svg" viewBox="0 0 134.55 134.55"><defs><style>.e{fill:#f0a7b3;}.f{fill:#23749f;}.g{fill:#72404e;}.h{fill:#2d2222;}.i{opacity:.14;}</style></defs><g id="a"/><g id="b"><g id="c"><g id="d"><circle class="f" cx="67.28" cy="67.28" r="67.28"/><g><ellipse class="i" cx="67.77" cy="92.63" rx="30.64" ry="6.37"/><g><rect class="g" x="57.48" y="41.26" width="18.07" height="9.21"/><path class="e" d="M100.4,57.95s-5.53-1.06-5.61-1.28c-1.95-5.46-6.09-10.1-11.54-13.16-.34-2.3,1.12-5.24,2.24-7.12,.34-.57,.1-.92-.56-.82-5.6,.83-8.95,3.2-10.55,4.67-2.1-.43-4.29-.66-6.54-.66-13.53,0-24.84,8.18-27.57,19.1-.99-.41-1.97-.85-2.9-1.34-.18-.1-.36-.2-.53-.31,.23-.56,.42-1.15,.49-1.77,.09-.8,.03-1.65-.32-2.46-.18-.4-.43-.81-.83-1.14-.39-.33-1.01-.53-1.58-.43-.58,.1-1,.36-1.39,.73-.25,.24-.62,.66-.81,1.11-.21,.46-.3,1.03-.21,1.55,.08,.52,.27,.97,.51,1.35,.47,.78,1.06,1.36,1.66,1.88,.25,.22,.51,.41,.76,.61-.11,.17-.21,.34-.33,.5-.65,.87-1.48,1.62-2.39,2.26-.27,.19-.55,.38-.83,.55h.03c-.6,.33-.33,.54,.1,.32h.03c.29-.16,.58-.32,.87-.49,1-.59,1.94-1.3,2.74-2.18,.14-.16,.27-.34,.4-.51,.16,.11,.32,.23,.49,.34,1.16,.76,2.35,1.41,3.56,2.02-.1,.82-.15,1.66-.15,2.51,0,7.25,3.72,13.76,9.62,18.19l.64,7.22c0,1.89,1.41,3.45,3.13,3.45h4.69c1.72,0,3.13-1.55,3.13-3.45l.17-1.93c2.18,.47,4.47,.71,6.82,.71,1.92,0,3.79-.16,5.6-.48l.15,1.69c0,1.89,1.41,3.45,3.13,3.45h4.69c1.72,0,3.13-1.55,3.13-3.45l.56-6.28c4.59-3.05,8.04-7.29,9.75-12.18,.06-.17,5.55-1.13,5.55-1.13,1.56-.24,2.9-1.5,2.9-3.33v-4.99c0-1.83-1.17-2.98-2.9-3.33Zm-64.39-1.45c-.7-.46-1.33-.97-1.76-1.54-.33-.47-.45-.86-.31-1.27,.03-.1,.09-.22,.16-.32,0-.02,.2-.27,.27-.36,.13-.15,.34-.3,.49-.34,.27-.12,.71,.13,.99,.67,.28,.51,.4,1.17,.39,1.83-.01,.45-.1,.89-.23,1.33Zm36.25-10.29c-1.67-.48-3.71-.74-5.74-.74-2.53,0-4.47,.4-5.64,.73l-.6-2.33c3.8-1.07,8.85-1.05,12.6,.02l-.62,2.32Z"/></g><path class="h" d="M86.16,56.5c0,1.59-.92,2.89-2.06,2.89s-2.06-1.29-2.06-2.89,.92-2.89,2.06-2.89,2.06,1.29,2.06,2.89Z"/></g></g></g></g></svg>