<?xml version="1.0" encoding="UTF-8"?><svg xmlns="http://www.w3.org/2000/svg" viewBox="0 0 60 48"><defs><style>.e{fill:#fff;}</style></defs><g id="a"/><g id="b"><g id="c"><path id="d" class="e" d="M25.75,28.5h-9.51C7.28,28.5,0,35.78,0,44.75c0,1.8,1.46,3.25,3.25,3.25H38.75c1.8,0,3.25-1.45,3.25-3.25,0-8.97-7.28-16.25-16.25-16.25Zm-4.75-4.5c6.63,0,12-5.37,12-12S27.63,0,21,0,9,5.37,9,12s5.37,12,12,12ZM59.28,12.6c-.91-.84-2.34-.79-3.18,.12l-8.16,8.79-3.6-3.6c-.88-.88-2.3-.88-3.18,0s-.88,2.3,0,3.18l5.25,5.25c.42,.43,.99,.66,1.59,.66h.04c.61-.01,1.19-.27,1.61-.72l9.75-10.5c.84-.91,.79-2.34-.12-3.18Z"/></g></g></svg>