<?xml version="1.0" encoding="UTF-8"?><svg xmlns="http://www.w3.org/2000/svg" viewBox="0 0 60 60"><defs><style>.e{fill:#fff;}</style></defs><g id="a"/><g id="b"><g id="c"><g id="d"><path class="e" d="M30,0C13.43,0,0,13.43,0,30s13.43,30,30,30,30-13.43,30-30S46.57,0,30,0Zm0,51.86c-12.07,0-21.86-9.79-21.86-21.86S17.93,8.14,30,8.14s21.86,9.79,21.86,21.86-9.79,21.86-21.86,21.86Z"/><g><path class="e" d="M36.84,26.74h-13.68c-.42,0-.77,.34-.77,.77v9.34c0,.42,.34,.77,.77,.77h13.68c.42,0,.77-.34,.77-.77v-9.34c0-.42-.34-.77-.77-.77Zm-12.82,1.47c0-.21,.17-.38,.38-.38h1.41c.21,0,.38,.17,.38,.38v1.41c0,.21-.17,.38-.38,.38h-1.41c-.21,0-.38-.17-.38-.38v-1.41Zm2.17,7.93c0,.21-.17,.38-.38,.38h-1.41c-.21,0-.38-.17-.38-.38v-1.41c0-.21,.17-.38,.38-.38h1.41c.21,0,.38,.17,.38,.38v1.41Zm0-3.26c0,.21-.17,.38-.38,.38h-1.41c-.21,0-.38-.17-.38-.38v-1.41c0-.21,.17-.38,.38-.38h1.41c.21,0,.38,.17,.38,.38v1.41Zm3.26,3.26c0,.21-.17,.38-.38,.38h-1.41c-.21,0-.38-.17-.38-.38v-1.41c0-.21,.17-.38,.38-.38h1.41c.21,0,.38,.17,.38,.38v1.41Zm0-3.26c0,.21-.17,.38-.38,.38h-1.41c-.21,0-.38-.17-.38-.38v-1.41c0-.21,.17-.38,.38-.38h1.41c.21,0,.38,.17,.38,.38v1.41Zm0-3.26c0,.21-.17,.38-.38,.38h-1.41c-.21,0-.38-.17-.38-.38v-1.41c0-.21,.17-.38,.38-.38h1.41c.21,0,.38,.17,.38,.38v1.41Zm3.26,6.52c0,.21-.17,.38-.38,.38h-1.41c-.21,0-.38-.17-.38-.38v-1.41c0-.21,.17-.38,.38-.38h1.41c.21,0,.38,.17,.38,.38v1.41Zm0-3.26c0,.21-.17,.38-.38,.38h-1.41c-.21,0-.38-.17-.38-.38v-1.41c0-.21,.17-.38,.38-.38h1.41c.21,0,.38,.17,.38,.38v1.41Zm0-3.26c0,.21-.17,.38-.38,.38h-1.41c-.21,0-.38-.17-.38-.38v-1.41c0-.21,.17-.38,.38-.38h1.41c.21,0,.38,.17,.38,.38v1.41Zm3.26,3.26c0,.21-.17,.38-.38,.38h-1.41c-.21,0-.38-.17-.38-.38v-1.41c0-.21,.17-.38,.38-.38h1.41c.21,0,.38,.17,.38,.38v1.41Zm0-3.26c0,.21-.17,.38-.38,.38h-1.41c-.21,0-.38-.17-.38-.38v-1.41c0-.21,.17-.38,.38-.38h1.41c.21,0,.38,.17,.38,.38v1.41Z"/><path class="e" d="M30,11.84c-10.03,0-18.16,8.13-18.16,18.16s8.13,18.16,18.16,18.16,18.16-8.13,18.16-18.16S40.03,11.84,30,11.84Zm3.26,10.42c0-.53,.32-.96,.72-.96h.19c.4,0,.72,.43,.72,.96v1.89c0,.53-.32,.96-.72,.96h-.19c-.4,0-.72-.43-.72-.96v-1.89Zm-8.15,0c0-.53,.32-.96,.72-.96h.19c.4,0,.72,.43,.72,.96v1.89c0,.53-.32,.96-.72,.96h-.19c-.4,0-.72-.43-.72-.96v-1.89Zm13.59,15.47c0,.53-.43,.96-.96,.96h-15.47c-.53,0-.96-.43-.96-.96v-13.3c0-.53,.43-.96,.96-.96h2.3v.67c0,.84,.55,1.5,1.26,1.5h.19c.71,0,1.26-.66,1.26-1.5v-.67h5.43v.67c0,.84,.55,1.5,1.26,1.5h.19c.71,0,1.26-.66,1.26-1.5v-.67h2.3c.53,0,.96,.43,.96,.96v13.3Z"/></g></g></g></g></svg>