<?xml version="1.0" encoding="UTF-8"?><svg xmlns="http://www.w3.org/2000/svg" viewBox="0 0 60 60"><defs><style>.e{fill:#fff;fill-rule:evenodd;}</style></defs><g id="a"/><g id="b"><g id="c"><g id="d"><path class="e" d="M30,0C13.43,0,0,13.43,0,30s13.43,30,30,30,30-13.43,30-30S46.57,0,30,0Zm9.5,20.84c-.41,.45-1.09,.66-1.84,.72,1.42,.51,2.35,1.19,1.43,1.79-.51,.33-1.22,.35-1.97,.22,1.24,.85,1.96,1.76,.91,2.1-.58,.19-1.27,.02-1.96-.3,.97,1.15,1.44,2.21,.34,2.27-.61,.03-1.23-.31-1.81-.8,.64,1.36,.82,2.51-.26,2.28-.6-.13-1.11-.62-1.54-1.24,.27,1.48,.14,2.63-.84,2.13-.46-.23-.78-.7-1.03-1.26,0,1.05-.02,2.01-.02,2.68,0,.23,0,.46,0,.69,.57-.78,1.67-1.95,3.37-2.33,0,0,.59,2.75-3.38,3.05-.04,1.84-.14,3.45-.21,4.44h5.52l-.28,1.85h-.14l-1.02,6.97h-9.45l-1.02-6.97h-.14l-.28-1.85h5.35c.05-.51,.11-1.19,.17-1.97-.85,.21-2.47,.14-3.6-2.82,0,0,2.18,.25,3.67,1.92,.07-.92,.13-1.94,.16-2.98,.01-.35,.02-.68,.03-1.01-.07-.04-.15-.08-.23-.15-.45-.4-.65-1.07-.71-1.81-.26,.7-.62,1.29-1.16,1.57-.98,.5-1.11-.65-.84-2.13-.43,.62-.95,1.11-1.54,1.24-1.08,.23-.9-.92-.26-2.28-.58,.49-1.2,.83-1.81,.8-1.1-.06-.63-1.12,.34-2.27-.69,.32-1.37,.49-1.96,.3-1.05-.34-.32-1.25,.91-2.1-.75,.14-1.45,.12-1.97-.22-.93-.6,.01-1.29,1.43-1.79-.76-.06-1.43-.26-1.84-.72-.74-.82,.34-1.24,1.84-1.36-.71-.26-1.32-.63-1.6-1.17-.5-.98,.65-1.11,2.13-.84-.62-.43-1.11-.95-1.24-1.54-.23-1.08,.92-.9,2.28-.26-.49-.58-.83-1.2-.8-1.81,.06-1.1,1.12-.63,2.27,.34-.32-.69-.49-1.37-.3-1.96,.34-1.05,1.25-.32,2.1,.91-.14-.75-.12-1.45,.22-1.97,.6-.93,1.29,.01,1.79,1.43,.06-.76,.26-1.43,.72-1.84,.83-.75,1.25,.36,1.37,1.88,.51-1.43,1.2-2.39,1.81-1.46,.33,.51,.35,1.22,.22,1.97,.85-1.24,1.76-1.96,2.1-.91,.19,.58,.02,1.27-.3,1.96,1.15-.97,2.21-1.44,2.27-.34,.03,.61-.31,1.23-.8,1.81,1.36-.64,2.51-.82,2.28,.26-.13,.6-.62,1.11-1.24,1.54,1.48-.27,2.63-.14,2.13,.84-.28,.55-.88,.91-1.6,1.17,1.5,.12,2.58,.54,1.84,1.36Z"/></g></g></g></svg>