<?xml version="1.0" encoding="UTF-8"?><svg xmlns="http://www.w3.org/2000/svg" viewBox="0 0 40.5 45"><defs><style>.f,.g{fill:#fff;}.g{fill-rule:evenodd;}</style></defs><g id="a"/><g id="b"><g id="c"><g id="d"><path class="f" d="M35.99,10.5c-1.24,0-2.41,0-3.58,0-1.49,0-2.42-.94-2.42-2.43,0-1.14,0-2.28,0-3.42,0-.03-.02-.06-.04-.14h-.53c-6.45,0-12.9,0-19.35,0-1.23,0-2.06,.49-2.52,1.69l-1.37-.35c.15-1.22,1.37-2.44,2.73-2.72,.33-.07,.68-.1,1.02-.1,6.84,0,13.68,0,20.52-.01,.42,0,.74,.13,1.03,.43,1.86,1.88,3.73,3.74,5.6,5.6,.29,.29,.41,.59,.41,1,0,10.34,0,20.68,0,31.03,0,2.35-1.6,3.95-3.94,3.95-7.87,0-15.74,0-23.62,0-2.32,0-3.93-1.6-3.94-3.9,0-5.55,0-11.09,0-16.64v-.43h1.5v.54c0,5.45,0,10.9,0,16.36,0,1.7,.88,2.58,2.56,2.58,7.79,0,15.59,0,23.38,0,1.66,0,2.56-.88,2.56-2.53,0-9.98,0-19.96,0-29.95v-.52Z"/><path class="f" d="M24,26.23h1.5v-.52c0-2.97,0-5.93,0-8.9,0-.83,.22-1.05,1.06-1.05,.83,0,1.66,0,2.48,0,.7,0,.96,.26,.96,.96,0,2.98,0,5.97,0,8.95v.57h1.47v1.5H12.02v-1.46h1.48c0-.67,0-1.29,0-1.91,0-.59,0-1.19,0-1.78,0-.53,.29-.82,.81-.82,.95-.01,1.91-.01,2.86,0,.54,0,.82,.3,.82,.86,0,1.05,0,2.09,0,3.14,0,.15,0,.3,0,.48h1.5c0-.17,0-.33,0-.49,0-2,0-4,0-6,0-.74,.25-.98,.98-.98,.86,0,1.72,0,2.58,0,.67,0,.94,.26,.94,.93,0,2,0,4,0,6v.55Zm4.47,0v-8.94h-1.47v8.94h1.47Zm-7.43-5.96v5.94h1.44v-5.94h-1.44Zm-4.56,5.97v-2.96h-1.43v2.96h1.43Z"/><path class="f" d="M39.56,40.72l-1.12-.98c.47-.58,.56-1.22,.56-1.91,0-11.29,0-22.59,0-33.88,0-1.26-.67-2.15-1.8-2.4-.2-.04-.4-.05-.6-.05-7.89,0-15.77,0-23.66,0-.6,0-1.14,.15-1.67,.56l-.98-1.11C10.92,.35,11.68,.08,12.52,0c.17-.01,.34,0,.52,0,7.79,0,15.59,0,23.38,0,2.53,0,4.08,1.55,4.08,4.09,0,11.31,0,22.62,0,33.93,0,1-.26,1.9-.94,2.71Z"/><path class="f" d="M12,35.2c0-1.17,0-2.34,0-3.52,0-.68,.26-.94,.93-.94,2.37,0,4.75,0,7.12,0,.67,0,.94,.26,.94,.93,0,2.37,0,4.75,0,7.12,0,.67-.26,.94-.93,.94-2.37,0-4.75,0-7.12,0-.67,0-.94-.26-.94-.93,0-1.2,0-2.41,0-3.61Zm1.53-2.95v5.96h5.94v-5.94c-.1,0-.17-.02-.25-.02-1.89,0-3.77,0-5.69,0Z"/><path class="f" d="M26.21,11.98h-8.94v-1.44h8.94v1.44Z"/><path class="f" d="M32.97,30.78v1.44h-8.94v-1.44h8.94Z"/><path class="f" d="M32.96,35.23h-8.94v-1.44h8.94v1.44Z"/><path class="f" d="M24.02,38.22v-1.44h8.94v1.44h-8.94Z"/><path class="f" d="M26.23,7.54v1.43h-5.95v-1.43h5.95Z"/><path class="f" d="M18.72,8.98h-1.45v-1.44h1.45v1.44Z"/><g id="e"><path class="g" d="M7.5,9.85c-2.84,0-5.15,2.31-5.15,5.15s2.31,5.15,5.15,5.15,5.15-2.31,5.15-5.15-2.31-5.15-5.15-5.15Zm.58,7.94v.79h-1.08v-.79c-.69-.11-1.28-.46-1.61-.97l.78-.72c.38,.45,.86,.64,1.38,.64,.64,0,.94-.14,.94-.56,0-.36-.19-.52-1.2-.76-1-.24-1.69-.56-1.69-1.66,0-.84,.59-1.38,1.4-1.54v-.8h1.08v.8c.57,.11,1.02,.4,1.41,.82l-.78,.78c-.35-.37-.73-.57-1.23-.57-.58,0-.77,.21-.77,.46,0,.35,.23,.46,1.09,.67,.86,.21,1.81,.51,1.81,1.72,0,.91-.47,1.53-1.53,1.69Z"/><path class="g" d="M7.5,7.5C3.36,7.5,0,10.86,0,15s3.36,7.5,7.5,7.5,7.5-3.36,7.5-7.5-3.36-7.5-7.5-7.5Zm0,14.06c-3.62,0-6.56-2.94-6.56-6.56s2.94-6.56,6.56-6.56,6.56,2.94,6.56,6.56-2.94,6.56-6.56,6.56Z"/></g></g></g></g></svg>