<?xml version="1.0" encoding="UTF-8"?><svg xmlns="http://www.w3.org/2000/svg" viewBox="0 0 30 30"><defs><style>.e{fill:#ec2027;}</style></defs><g id="a"/><g id="b"><g id="c"><path id="d" class="e" d="M0,15C0,6.71,6.71,0,15,0s15,6.71,15,15-6.71,15-15,15S0,23.29,0,15Zm10.25-2.81l2.76,2.75-2.76,2.81c-.54,.55-.54,1.44,0,1.94,.55,.6,1.44,.6,1.94,0l2.75-2.71,2.81,2.71c.55,.6,1.44,.6,1.94,0,.6-.5,.6-1.39,0-1.94l-2.71-2.81,2.71-2.75c.6-.5,.6-1.39,0-1.94-.5-.54-1.39-.54-1.94,0l-2.81,2.76-2.75-2.76c-.5-.54-1.39-.54-1.94,0-.54,.55-.54,1.44,0,1.94h0Z"/></g></g></svg>