<?xml version="1.0" encoding="UTF-8"?><svg xmlns="http://www.w3.org/2000/svg" viewBox="0 0 60 60"><defs><style>.e{fill:#3597d3;}</style></defs><g id="a"/><g id="b"><g id="c"><g id="d"><path class="e" d="M30,0C13.43,0,0,13.43,0,30s13.43,30,30,30,30-13.43,30-30S46.57,0,30,0Zm0,51.86c-12.07,0-21.86-9.79-21.86-21.86S17.93,8.14,30,8.14s21.86,9.79,21.86,21.86-9.79,21.86-21.86,21.86Z"/><path class="e" d="M30,11.84c-10.03,0-18.16,8.13-18.16,18.16s8.13,18.16,18.16,18.16,18.16-8.13,18.16-18.16S40.03,11.84,30,11.84Zm7.22,20.46h-4.88v5.29h-4.67v-5.29h-4.9v-4.55h4.9v-5.35h4.67v5.35h4.88v4.55Z"/></g></g></g></svg>