<?xml version="1.0" encoding="UTF-8"?><svg xmlns="http://www.w3.org/2000/svg" viewBox="0 0 32.7 60"><defs><style>.e{fill:#fff;}.f{fill:#23749e;}.g{fill:#6f6f6f;}</style></defs><g id="a"/><g id="b"><g id="c"><g id="d"><g><path class="g" d="M29.1,60H3.59c-1.98,0-3.59-1.61-3.59-3.59V3.59C0,1.61,1.61,0,3.59,0H29.1c1.98,0,3.59,1.61,3.59,3.59V56.41c0,1.98-1.61,3.59-3.59,3.59"/><rect class="f" x="1.58" y="7.91" width="29.55" height="44.17"/><path class="e" d="M30.92,51.88H1.78V8.12H30.92V51.88Zm.41-44.18H1.37V52.29H31.33V7.71Z"/><path class="e" d="M19.43,5.11h-6.17c-.32,0-.57-.26-.57-.57s.26-.57,.57-.57h6.17c.32,0,.57,.26,.57,.57s-.26,.57-.57,.57"/><path class="e" d="M21.05,56.77H11.38c-.32,0-.57-.26-.57-.57s.26-.57,.57-.57h9.68c.32,0,.57,.26,.57,.57s-.26,.57-.57,.57"/><path class="e" d="M27.79,28.55c0,6.25-5.07,11.31-11.31,11.31s-11.31-5.07-11.31-11.31,5.07-11.31,11.31-11.31,11.31,5.07,11.31,11.31"/></g><path class="f" d="M14.06,31.84v-.99c0-.75,.15-1.39,.46-1.91,.31-.52,.85-1.03,1.64-1.52,.62-.39,1.07-.75,1.35-1.06,.27-.32,.41-.68,.41-1.08,0-.32-.15-.58-.44-.77-.29-.19-.67-.28-1.14-.28-1.16,0-2.52,.41-4.08,1.24l-1.61-3.14c1.92-1.09,3.92-1.64,6.01-1.64,1.72,0,3.07,.38,4.04,1.13,.98,.75,1.47,1.78,1.47,3.08,0,.93-.22,1.74-.65,2.42-.43,.68-1.13,1.33-2.08,1.93-.81,.52-1.32,.91-1.52,1.15-.2,.24-.31,.53-.31,.86v.59h-3.55Zm-.5,4.04c0-.71,.21-1.25,.62-1.64,.41-.38,1.02-.58,1.82-.58s1.36,.19,1.77,.58c.41,.39,.62,.93,.62,1.63s-.21,1.24-.64,1.63c-.43,.39-1.01,.58-1.75,.58s-1.36-.19-1.79-.57c-.43-.38-.65-.92-.65-1.63Z"/></g></g></g></svg>