<?xml version="1.0" encoding="UTF-8"?><svg xmlns="http://www.w3.org/2000/svg" viewBox="0 0 60 60"><defs><style>.e{fill:#fff;}</style></defs><g id="a"/><g id="b"><g id="c"><g id="d"><g><path class="e" d="M26.88,19.56l.27,1.04c.52-.15,1.39-.32,2.52-.32,.9,0,1.81,.12,2.56,.33l.27-1.04c-1.67-.48-3.92-.49-5.62-.01Z"/><path class="e" d="M15.55,23.49c-.07,.02-.16,.08-.22,.15-.03,.04-.13,.15-.12,.16-.03,.05-.06,.1-.07,.14-.06,.18,0,.36,.14,.57,.19,.25,.47,.48,.78,.69,.05-.2,.09-.39,.1-.59,0-.29-.05-.59-.17-.82-.12-.24-.32-.35-.44-.3Z"/><path class="e" d="M30,0C13.43,0,0,13.43,0,30s13.43,30,30,30,30-13.43,30-30S46.57,0,30,0Zm16.07,29.55c0,.82-.6,1.38-1.29,1.48,0,0-2.45,.43-2.48,.5-.76,2.18-2.3,4.07-4.35,5.43l-.25,2.8c0,.84-.63,1.54-1.4,1.54h-2.09c-.77,0-1.39-.69-1.39-1.54l-.07-.76c-.81,.14-1.64,.21-2.5,.21-1.05,0-2.07-.11-3.04-.32l-.08,.86c0,.84-.63,1.54-1.4,1.54h-2.09c-.77,0-1.39-.69-1.39-1.54l-.29-3.22c-2.63-1.98-4.29-4.88-4.29-8.11,0-.38,.02-.75,.07-1.12-.54-.27-1.07-.56-1.59-.9-.07-.05-.15-.1-.22-.15-.06,.08-.12,.16-.18,.23-.35,.4-.78,.71-1.22,.97-.13,.07-.26,.14-.39,.21h-.01c-.19,.11-.31,.02-.05-.14h-.01c.13-.07,.25-.16,.37-.24,.4-.29,.77-.62,1.07-1.01,.05-.07,.1-.15,.15-.22-.12-.09-.23-.18-.34-.27-.27-.23-.53-.49-.74-.84-.1-.17-.19-.37-.23-.6-.04-.23,0-.48,.09-.69,.08-.2,.25-.39,.36-.5,.17-.16,.36-.28,.62-.33,.25-.04,.53,.05,.7,.19,.18,.14,.29,.33,.37,.51,.15,.36,.18,.74,.14,1.1-.03,.28-.11,.54-.22,.79,.08,.05,.16,.09,.24,.14,.41,.22,.85,.42,1.29,.6,1.22-4.87,6.26-8.52,12.29-8.52,1.01,0,1.98,.1,2.92,.3,.71-.65,2.21-1.71,4.71-2.08,.29-.04,.4,.11,.25,.37-.5,.84-1.15,2.15-1,3.17,2.43,1.37,4.28,3.43,5.15,5.87,.04,.1,2.5,.57,2.5,.57,.77,.15,1.29,.67,1.29,1.48v2.23Z"/><ellipse class="e" cx="37.5" cy="25.19" rx=".92" ry="1.29"/></g></g></g></g></svg>