<?xml version="1.0" encoding="UTF-8"?><svg xmlns="http://www.w3.org/2000/svg" viewBox="0 0 60 60"><defs><style>.e{fill:#ec2027;}.f{fill:#f49b1f;}.g{fill:#fff;}.h{fill:#c6c9ca;}.i{fill:#202020;}.j{fill:#3e3e3e;}.k{fill:#2d2d2d;}.l{fill:#3aa54f;}.m{isolation:isolate;}.n{mix-blend-mode:multiply;opacity:.14;}</style></defs><g class="m"><g id="a"/><g id="b"><g id="c"><g id="d"><circle class="g" cx="30" cy="30" r="30" transform="translate(-3.99 55.39) rotate(-81.76)"/><g><path class="e" d="M48.85,10.19c5.23,4.98,8.5,12.02,8.5,19.81H30L49.34,10.66c-.16-.16-.32-.32-.48-.47Z"/><path class="f" d="M29.32,2.66c7.22-.18,14.5,2.49,20.02,8L30,30V2.65c-.23,0-.45,0-.68,0Z"/><path class="f" d="M10.19,11.15C15.17,5.91,22.2,2.65,30,2.65V30L10.66,10.66c-.16,.16-.32,.32-.47,.48Z"/><path class="l" d="M2.66,30.68c-.18-7.22,2.49-14.5,8-20.02L30,30H2.65c0,.23,0,.45,0,.68Z"/></g><g><path class="l" d="M10.64,49.32c-4.9-4.98-7.99-11.78-7.99-19.32H30L10.68,49.32l-.02,.02-.02-.02Z"/><path class="e" d="M57.34,29.32c.18,7.22-2.49,14.5-8,20.02L30,30h27.35c0-.23,0-.45,0-.68Z"/></g><circle class="g" cx="30" cy="30" r="16.15" transform="translate(-5.62 53.05) rotate(-77.91)"/><g><path class="h" d="M26.7,35.54c3.06,1.83,7.03,.84,8.86-2.22,1.83-3.06,.84-7.03-2.22-8.86-3.06-1.83-7.03-.84-8.86,2.22-1.83,3.06-.84,7.03,2.22,8.86Z"/><g class="n"><path class="i" d="M8.25,17.86l22.2,11.29c.9,.46,1.23,1.59,.71,2.46h0c-.52,.87-1.67,1.11-2.5,.53L8.25,17.86Z"/></g><path class="j" d="M8.65,17.19l22.21,11.28c.9,.46,1.23,1.59,.71,2.45h0c-.52,.87-1.67,1.11-2.5,.53L8.65,17.19Z"/></g><g><path class="k" d="M24.62,47.57v-3.27h.92v3.27h-.92Zm.74-1.3v-.63h.56c.13,0,.22-.03,.29-.09,.07-.06,.1-.14,.1-.24s-.03-.18-.1-.24c-.07-.06-.16-.09-.29-.09h-.56v-.66h.7c.23,0,.43,.04,.6,.12,.17,.08,.31,.2,.4,.34,.1,.15,.15,.32,.15,.51s-.05,.37-.15,.51c-.1,.15-.24,.26-.42,.34-.18,.08-.39,.12-.63,.12h-.66Zm1.02,1.3l-.89-1.39,.83-.18,1.11,1.57h-1.04Z"/><path class="k" d="M27.65,47.57v-3.27h.92v3.27h-.92Z"/><path class="k" d="M30.1,47.63c-.28,0-.52-.04-.73-.12-.21-.08-.4-.21-.57-.39l.57-.57c.12,.11,.24,.2,.38,.26s.27,.09,.42,.09c.13,0,.22-.02,.28-.06,.06-.04,.1-.09,.1-.16s-.03-.12-.08-.17c-.06-.04-.13-.08-.22-.12-.09-.04-.19-.07-.3-.11s-.22-.08-.32-.13c-.11-.05-.21-.12-.3-.19-.09-.07-.16-.17-.22-.28-.06-.11-.08-.25-.08-.41,0-.21,.05-.39,.15-.55,.1-.15,.24-.27,.43-.35s.4-.12,.65-.12,.47,.04,.68,.12c.21,.08,.38,.19,.52,.33l-.58,.57c-.1-.1-.2-.17-.3-.22-.1-.05-.21-.07-.33-.07-.09,0-.17,.02-.23,.05-.06,.03-.08,.08-.08,.14,0,.06,.03,.12,.08,.16,.06,.04,.13,.08,.22,.11,.09,.03,.19,.07,.3,.11s.22,.08,.32,.13c.11,.05,.21,.11,.3,.19,.09,.08,.16,.18,.22,.29,.06,.12,.08,.26,.08,.42,0,.33-.12,.59-.36,.77-.24,.18-.57,.27-1,.27Z"/><path class="k" d="M31.84,47.57v-3.27h.92v3.27h-.92Zm1.98,0l-1.14-1.7,1.09-1.56h1.11l-1.26,1.7v-.29l1.31,1.86h-1.1Z"/><path class="k" d="M20.48,53.08v-3.27h.92v3.27h-.92Zm.74-1.15v-.66h.59c.07,0,.14-.01,.19-.04s.11-.07,.14-.13,.06-.13,.06-.22-.02-.16-.06-.22-.08-.1-.14-.13c-.06-.03-.12-.04-.19-.04h-.59v-.66h.77c.21,0,.4,.04,.57,.13s.3,.2,.4,.36c.1,.16,.15,.35,.15,.57s-.05,.41-.15,.57c-.1,.16-.23,.28-.4,.36-.17,.08-.36,.13-.57,.13h-.77Z"/><path class="k" d="M23.44,53.08v-3.27h.92v3.27h-.92Zm.74-1.3v-.63h.56c.13,0,.22-.03,.29-.09,.07-.06,.1-.14,.1-.24s-.03-.18-.1-.24c-.07-.06-.16-.09-.29-.09h-.56v-.66h.7c.23,0,.43,.04,.6,.12,.17,.08,.31,.2,.4,.34,.1,.15,.15,.32,.15,.51s-.05,.37-.15,.51c-.1,.15-.24,.26-.42,.34-.18,.08-.39,.12-.63,.12h-.66Zm1.02,1.3l-.89-1.39,.83-.18,1.11,1.57h-1.04Z"/><path class="k" d="M28.1,53.14c-.26,0-.49-.04-.71-.13-.22-.09-.4-.2-.56-.36-.16-.15-.29-.33-.37-.54-.09-.21-.13-.43-.13-.67s.04-.47,.13-.67c.09-.2,.21-.38,.37-.54,.16-.15,.35-.27,.56-.36,.22-.08,.45-.13,.71-.13s.49,.04,.71,.13c.22,.08,.4,.2,.56,.36,.16,.15,.28,.33,.37,.54,.09,.21,.13,.43,.13,.68s-.04,.47-.13,.67c-.09,.21-.21,.39-.37,.54-.16,.15-.35,.27-.56,.36-.21,.08-.45,.13-.7,.13Zm0-.81c.17,0,.32-.04,.45-.11,.13-.07,.22-.18,.29-.31,.07-.13,.1-.29,.1-.47,0-.13-.02-.26-.06-.36-.04-.11-.09-.2-.17-.28-.07-.08-.16-.14-.26-.18-.1-.04-.22-.06-.35-.06-.17,0-.32,.04-.44,.11-.13,.07-.22,.17-.29,.31-.07,.13-.1,.29-.1,.47,0,.14,.02,.26,.06,.37s.09,.2,.17,.28,.16,.14,.26,.18c.1,.04,.22,.06,.35,.06Z"/><path class="k" d="M30.23,53.08v-3.27h.92v3.27h-.92Zm.74-2.5v-.76h1.67v.76h-1.67Zm0,1.34v-.76h1.61v.76h-1.61Z"/><path class="k" d="M33.05,53.08v-3.27h.92v3.27h-.92Z"/><path class="k" d="M34.51,53.08v-3.27h.92v3.27h-.92Zm.75,0v-.78h1.53v.78h-1.53Z"/><path class="k" d="M37.13,53.08v-3.27h.92v3.27h-.92Zm.74-2.5v-.76h1.72v.76h-1.72Zm0,1.21v-.74h1.58v.74h-1.58Zm0,1.29v-.76h1.75v.76h-1.75Z"/></g></g></g></g></g></svg>