<?xml version="1.0" encoding="UTF-8"?><svg xmlns="http://www.w3.org/2000/svg" viewBox="0 0 38.97 60"><defs><style>.e{fill:#facaa7;}.f{fill:#f49b1f;}.g{fill:#ac6e42;}.h{fill:#bd825b;}.i{fill:#d77e28;}.j{opacity:.14;}</style></defs><g id="a"/><g id="b"><g id="c"><g id="d"><ellipse class="j" cx="19.48" cy="55.95" rx="19.48" ry="4.05"/><g><g><path class="e" d="M28.11,53.52c-.08,0-1.81-.03-1.81-.03-2.97,.86-12.19,3.42-23.73-4.29l-1.6,.23,.83,1.77s11.72,8.52,25.9,3.88c.35-.11,.7-.24,1.05-.37l-.64-1.2Z"/><path class="i" d="M26.3,53.49c-.54-.06-11.85,4.95-25.33-4.06l-.78,2s12.31,8.94,26.95,3.52l-.84-1.46Z"/><polygon class="f" points="26.3 53.49 28.03 53.38 28.75 54.72 27.14 54.95 26.3 53.49"/><path class="g" d="M28.75,54.72s-3.92,1.52-7.9,1.75c0,0,3.28-.53,6.3-1.51l1.6-.23Z"/></g><g><path class="e" d="M38,47c-.08,0-1.8,.19-1.8,.19-2.84,1.22-11.68,4.9-24.08-1.33l-1.56,.43,1.04,1.65s12.68,7.01,26.19,.66c.33-.16,.66-.32,1-.49l-.78-1.11Z"/><path class="i" d="M36.2,47.19c-.54,0-11.14,6.38-25.64-.9l-.52,2.08s13.32,7.35,27.18,.16l-1.02-1.34Z"/><polygon class="f" points="36.2 47.19 37.9 46.87 38.78 48.1 37.22 48.53 36.2 47.19"/><path class="g" d="M38.78,48.1s-3.7,1.99-7.63,2.71c0,0,3.19-.93,6.06-2.28l1.56-.43Z"/></g><g><polygon class="i" points="1.51 2.15 9.46 53.52 8.1 53.25 .19 2.15 1.51 2.15"/><polygon class="i" points="11.11 .25 18.69 49.2 17.33 48.99 9.79 .25 11.11 .25"/><polygon class="i" points="1.46 6.73 11.57 5.14 12.31 9.41 2.15 11.4 1.46 6.73"/><polygon class="i" points="6.14 10.33 10.19 36.28 12.79 35.67 8.75 9.41 6.14 10.33"/></g><g><polygon class="f" points="3.05 1.9 10.84 53.18 9.44 53.38 1.51 2.15 3.05 1.9"/><polygon class="f" points="12.65 0 20.17 49.46 18.69 49.2 11.11 .25 12.65 0"/><polygon class="f" points="2.79 6.73 12.9 5.14 13.63 9.41 3.47 11.4 2.79 6.73"/><polygon class="f" points="7.46 10.33 11.51 36.28 14.11 35.67 10.08 9.41 7.46 10.33"/></g><polygon class="f" points="29.66 26.06 33.18 48.36 31.83 48.84 28.33 26.21 29.66 26.06"/><polygon class="i" points="28.33 26.21 31.86 48.99 30.5 49.12 26.76 26.21 28.33 26.21"/><g><polygon class="i" points="31.49 24.41 14.86 25.78 15.06 26.96 31.72 26.06 31.49 24.41"/><polygon class="e" points="14.86 25.78 33.22 23.88 31.49 24.41 14.86 25.78"/><polygon class="h" points="31.49 24.41 31.72 26.06 33.22 25.51 33.22 23.88 31.49 24.41"/></g><polygon class="f" points="31.41 33.14 31.41 34.92 19.91 39.24 19.6 37.2 31.41 33.14"/><polygon class="e" points="6.88 36.69 19.6 37.2 31.41 33.14 17.93 33.43 6.88 36.69"/><polygon class="i" points="6.88 36.69 7.1 38.19 19.87 38.95 19.6 37.2 6.88 36.69"/><polygon class="i" points="18.44 27.86 22.23 54.95 20.83 54.7 16.9 28.11 18.44 27.86"/><polygon class="f" points="19.79 27.86 23.56 54.3 22.17 54.54 18.25 28.11 19.79 27.86"/><g><polygon class="i" points="22.31 27.68 5.69 29.05 5.88 30.23 22.54 29.33 22.31 27.68"/><polygon class="e" points="5.69 29.05 24.04 27.15 22.31 27.68 5.69 29.05"/><polygon class="h" points="22.31 27.68 22.54 29.33 24.04 28.78 24.04 27.15 22.31 27.68"/></g><polygon class="e" points=".19 2.15 1.51 2.15 3.05 1.9 1.62 1.74 .19 2.15"/></g></g></g></g></svg>