<?xml version="1.0" encoding="UTF-8"?><svg xmlns="http://www.w3.org/2000/svg" viewBox="0 0 30 30"><defs><style>.e{fill:#ec2027;}</style></defs><g id="a"/><g id="b"><g id="c"><path id="d" class="e" d="M15,0C6.72,0,0,6.72,0,15s6.72,15,15,15,15-6.72,15-15S23.28,0,15,0Zm8.47,20.29c0,.91-1.06,1.38-1.74,.81l-5.68-5.14v4.33c0,.91-1.06,1.38-1.74,.81l-5.68-5.14v4.33c0,.58-.47,1.03-1.03,1.03-.61,0-1.09-.44-1.09-1.06V9.71c0-.58,.47-1.03,1.03-1.03,.61-.03,1.09,.44,1.09,1.03v4.36l5.68-5.18c.68-.56,1.74-.09,1.74,.82v4.37l5.68-5.18c.68-.57,1.74-.09,1.74,.81v10.59Z"/></g></g></svg>