<?xml version="1.0" encoding="UTF-8"?><svg xmlns="http://www.w3.org/2000/svg" viewBox="0 0 134.55 134.55"><defs><style>.e{fill:#f7b531;}.f{fill:#f2991f;}.g{fill:#f6af4b;}.h{fill:#fff;}.i{fill:#fae049;}.j{fill:#3aa54f;}.k{fill:#61b772;}.l{opacity:.14;}</style></defs><g id="a"/><g id="b"><g id="c"><g id="d"><circle class="j" cx="67.28" cy="67.28" r="67.28"/><g><ellipse class="l" cx="66.89" cy="103.37" rx="28.17" ry="5.86"/><g><g><path class="k" d="M68.25,73.69s2.69-5.58,8.6-6.91c0,0,1.45,6.66-8.6,6.91Z"/><path class="k" d="M68.62,85.82h-3.34c0-.07,.85-7.5,1.14-15.37,.76-20.16-1.95-24.59-3.45-25.73l1.74-2.3c2,1.51,3.39,4.36,4.25,8.69,.64,3.22,.34,14.59,.35,19.36,.02,8.05-.68,15.27-.69,15.35Z"/><g><g><path class="h" d="M65.61,37.65s-3.15-10.35,.37-13.53c3.53-3.18,3.78,8.62,2.28,13.29-1.51,4.67-2.65,.23-2.65,.23Z"/><path class="h" d="M65.61,54.32s-3.15,10.35,.37,13.53c3.53,3.18,3.78-8.62,2.28-13.29-1.51-4.67-2.65-.23-2.65-.23Z"/></g><g><path class="h" d="M63.49,38.22s-5.73-9.18-3.14-13.16c2.58-3.98,5.89,7.35,5.64,12.25-.25,4.91-2.5,.91-2.5,.91Z"/><path class="h" d="M67.81,54.32s-.37,10.81,3.86,12.97c4.23,2.16,1.42-9.31-1.24-13.43-2.67-4.12-2.62,.46-2.62,.46Z"/></g><g><path class="h" d="M61.59,39.32s-7.91-7.39-6.44-11.9c1.47-4.51,7.59,5.57,8.62,10.37,1.03,4.8-2.18,1.52-2.18,1.52Z"/><path class="h" d="M69.93,53.76s2.44,10.54,7.08,11.53c4.64,.99-1.03-9.36-4.67-12.65-3.64-3.29-2.41,1.12-2.41,1.12Z"/></g><g><path class="h" d="M60.04,40.87s-9.55-5.09-9.3-9.83c.25-4.74,8.77,3.42,11.01,7.79,2.24,4.37-1.71,2.04-1.71,2.04Z"/><path class="h" d="M71.83,52.66s5.09,9.55,9.83,9.3-3.42-8.77-7.79-11.01c-4.37-2.24-2.04,1.71-2.04,1.71Z"/></g><g><path class="h" d="M58.95,42.78s-10.54-2.44-11.53-7.08c-.99-4.64,9.36,1.03,12.65,4.67,3.29,3.64-1.12,2.41-1.12,2.41Z"/><path class="h" d="M73.38,51.11s7.39,7.91,11.9,6.44c4.51-1.47-5.57-7.59-10.37-8.62-4.8-1.03-1.52,2.18-1.52,2.18Z"/></g><g><path class="h" d="M58.38,44.9s-10.81,.37-12.97-3.86c-2.16-4.23,9.31-1.42,13.43,1.24,4.12,2.67-.46,2.62-.46,2.62Z"/><path class="h" d="M74.48,49.21s9.18,5.73,13.16,3.14c3.98-2.58-7.35-5.89-12.25-5.64-4.91,.25-.91,2.5-.91,2.5Z"/></g><g><path class="h" d="M58.39,47.09s-10.35,3.15-13.53-.37c-3.18-3.53,8.62-3.78,13.29-2.28s.23,2.65,.23,2.65Z"/><path class="h" d="M75.06,47.09s10.35,3.15,13.53-.37c3.18-3.53-8.62-3.78-13.29-2.28s-.23,2.65-.23,2.65Z"/></g><g><path class="h" d="M58.96,49.21s-9.18,5.73-13.16,3.14c-3.98-2.58,7.35-5.89,12.25-5.64,4.91,.25,.91,2.5,.91,2.5Z"/><path class="h" d="M75.06,44.9s10.81,.37,12.97-3.86c2.16-4.23-9.31-1.42-13.43,1.24-4.12,2.67,.46,2.62,.46,2.62Z"/></g><g><path class="h" d="M60.06,51.11s-7.39,7.91-11.9,6.44c-4.51-1.47,5.57-7.59,10.37-8.62,4.8-1.03,1.52,2.18,1.52,2.18Z"/><path class="h" d="M74.5,42.78s10.54-2.44,11.53-7.08c.99-4.64-9.36,1.03-12.65,4.67-3.29,3.64,1.12,2.41,1.12,2.41Z"/></g><g><path class="h" d="M61.61,52.66s-5.09,9.55-9.83,9.3,3.42-8.77,7.79-11.01c4.37-2.24,2.04,1.71,2.04,1.71Z"/><path class="h" d="M73.4,40.87s9.55-5.09,9.3-9.83c-.25-4.74-8.77,3.42-11.01,7.79-2.24,4.37,1.71,2.04,1.71,2.04Z"/></g><g><path class="h" d="M63.52,53.76s-2.44,10.54-7.08,11.53c-4.64,.99,1.03-9.36,4.67-12.65,3.64-3.29,2.41,1.12,2.41,1.12Z"/><path class="h" d="M71.85,39.32s7.91-7.39,6.44-11.9c-1.47-4.51-7.59,5.57-8.62,10.37-1.03,4.8,2.18,1.52,2.18,1.52Z"/></g><g><path class="h" d="M65.64,54.32s.37,10.81-3.86,12.97c-4.23,2.16-1.42-9.31,1.24-13.43,2.67-4.12,2.62,.46,2.62,.46Z"/><path class="h" d="M69.95,38.22s5.73-9.18,3.14-13.16c-2.58-3.98-5.89,7.35-5.64,12.25,.25,4.91,2.5,.91,2.5,.91Z"/></g><g><circle class="i" cx="66.72" cy="45.98" r="11.76"/><path class="e" d="M67.63,50.36v1.23h-1.69v-1.23c-1.09-.17-2.01-.72-2.53-1.52l1.22-1.12c.59,.71,1.35,1,2.17,1,1,0,1.48-.22,1.48-.89,0-.56-.29-.81-1.89-1.18-1.56-.37-2.65-.89-2.65-2.61,0-1.31,.93-2.17,2.2-2.42v-1.25h1.69v1.26c.9,.17,1.6,.62,2.21,1.28l-1.22,1.22c-.54-.57-1.15-.9-1.92-.9-.91,0-1.21,.34-1.21,.72,0,.55,.36,.72,1.71,1.05,1.34,.32,2.83,.8,2.83,2.69,0,1.42-.74,2.39-2.4,2.66Z"/><path class="e" d="M66.72,56.27c-5.67,0-10.29-4.62-10.29-10.29s4.62-10.29,10.29-10.29,10.29,4.62,10.29,10.29-4.61,10.29-10.29,10.29Zm0-18.36c-4.45,0-8.07,3.62-8.07,8.07s3.62,8.07,8.07,8.07,8.07-3.62,8.07-8.07-3.62-8.07-8.07-8.07Z"/></g></g><path class="k" d="M57.83,72.83s6.16,.68,9.38,5.81c0,0-5.8,3.58-9.38-5.81Z"/></g><g><polygon class="f" points="77.95 103.37 56.76 103.37 53.85 83.58 80.86 83.58 77.95 103.37"/><polygon class="g" points="80.56 87.73 81.18 83.58 53.53 83.58 54.15 87.73 80.56 87.73"/></g></g></g></g></g></g></svg>