<?xml version="1.0" encoding="UTF-8"?><svg xmlns="http://www.w3.org/2000/svg" viewBox="0 0 142.23 420.05"><defs><style>.e{fill:#f9f9f9;}.f{fill:#ec2027;}.g{fill:#e5936f;}.h{fill:#fff;}.i{fill:#f1f2f2;}.j{fill:#cf5d4c;}.k{fill:#c02132;}.l{fill:#dcdcdc;}.m{fill:#191919;}.n{fill:#4b0b00;}</style></defs><g id="a"/><g id="b"><g id="c"><g id="d"><g><g><path class="f" d="M117.81,124.08c.67,2.3-2.75,14.1-5.41,21.44-1.22,5.52-2.43,9.48-3.72,12.18-3.17,6.63-2.03,8.33-2.03,8.33,0,0,16.12,12.68,17.61,6.13,1.49-6.54,10.56-23.67,11.41-26.11,.84-2.45,6.09-13.45,6.55-20.55,.12-1.85-.6-6.67-1.82-13.01"/><g><path class="g" d="M124.54,169.05s-.61-3.06-3.73-5.38c-3.12-2.32-8.53-2.58-10.54-1.75-2.01,.83-3.41,1.8-3.62,4.11-.2,2.31,1.21,5.21,.24,6.6-.98,1.39-2.83,3.72-.78,3.9,0,0-3.21,.7-2,3.27,.64,1.37,4.3,.08,4.3,.08,0,0,2.2,2.36,3.86,1.77,1.66-.59,2.81,1.01,4.45,.42,1.64-.59,6.83-3.14,7.34-4.92,.51-1.78,.48-8.1,.48-8.1Z"/><path class="j" d="M106.69,175.79c1.87,.43,2.82-1.71,3.17-3.15,.48-2.03,.78-4.11,1-6.17,.07-.68,1.11-.44,1.03,.23-.13,1.21-.3,2.41-.5,3.61-.2,1.16-.38,2.35-.75,3.46-.59,1.76-2.12,3.52-4.18,3.05-.66-.15-.43-1.19,.23-1.03Z"/><path class="j" d="M109.89,179.19c.66-.22,1.34-.45,1.94-.82,.65-.39,1.07-.92,1.39-1.61,.75-1.56,1.43-3.16,2.15-4.74,.28-.62,1.21-.12,.93,.5-.39,.86-.78,1.71-1.16,2.57-.39,.86-.74,1.76-1.2,2.59-.8,1.42-2.26,2.02-3.73,2.51-.65,.22-.96-.79-.32-1.01Z"/><path class="j" d="M113.11,180.32c.48-.32,1.03-.37,1.56-.55,.56-.2,.91-.77,1.25-1.23,.84-1.12,1.63-2.28,2.39-3.47,.36-.57,1.3-.08,.93,.5-.8,1.26-1.65,2.49-2.55,3.69-.38,.51-.77,1.07-1.36,1.36-.53,.27-1.17,.26-1.66,.59-.57,.38-1.13-.51-.56-.9Z"/><path class="j" d="M114.51,166.57c1.2-.22,2.42,.19,3.18,1.17,.19,.24,.3,.5,.43,.77,.16,.32,.34,.45,.68,.57,.6,.22,1.16,.43,1.67,.81,.46,.35,.82,.82,.97,1.38,.07,.25,.06,.58,.18,.81,.14,.27,.46,.27,.71,.42,.95,.56,1.28,1.94,.64,2.85-.39,.55-1.32,.06-.93-.5,.24-.34,.27-.73,.07-1.1-.25-.46-.81-.44-1.17-.79-.34-.34-.39-.81-.49-1.26-.11-.49-.39-.84-.81-1.1-.42-.28-.89-.41-1.36-.59-.55-.21-.88-.55-1.13-1.07-.42-.89-1.3-1.55-2.33-1.36-.66,.12-.99-.89-.32-1.01Z"/></g></g><path class="f" d="M126.84,79.96c-1.37-1.78-2.3-4.58-4.14-5.51-5.96-3.02-20.41-9.81-20.41-9.81l-34.97-2.37s-15.59,7.81-20.02,13.39c-3.46,4.36-6.56,18.47-9.32,28.93,3.13-.36,6.26-.88,9.41-.73,2.11,.1,3.8,.08,5.59,1.1,1.58,.9,3.39,2.24,4.54,3.71,0,0,5.95,8.47-.27,28.68,6.73-5.39,12.83-18.1,12.83-18.1l-6.71-12.61,16.42-12.7,30.78,24.43-3.84,9.62s3.24,3.12,7.02,6.71c-.86-6.38-1.14-14.49,.63-23.11,0,0,2.17,15.02,12.63,31.05,.14,.21,.29,.42,.44,.62l-.62-63.28Z"/><g><path class="l" d="M53.2,387.06c.02,.41,1.7,16.61,.27,21.52-1.42,4.9-7.58,5.59-13.47,5.04-5.89-.55-8.49-7.12-9.58-11.5-1.1-4.38-.46-21.75,3.19-29.01,3.65-7.26,19.59,13.95,19.59,13.95Z"/><path class="g" d="M58.74,341.71s-5.37,29.64-5.84,32.45c-.47,2.8,.73,17.55,.79,26.32,.03,5.16-.05,10.58-10.4,10.56-9.81-.01-13.24-9.8-11.5-25.68,1.74-15.87,6.18-31.98,9.21-41.32,3.03-9.34,17.74-2.33,17.74-2.33Z"/><path class="i" d="M34.64,367.92c.55,2.81,1.08,5.43,2.08,5.5,1.36,.1,1.36-5.56,3.31-6.53,1.95-.97,8.19,.39,9.75,2.63,1.56,2.24,.49,7.11,1.27,7.02,.78-.1,1.86-2.38,1.86-2.38-.47,2.8,.73,17.55,.79,26.32,.03,5.16-.05,10.58-10.4,10.56-9.81-.01-13.24-9.8-11.5-25.68,.65-5.9,1.67-11.84,2.85-17.44Z"/></g><g><path class="g" d="M94.76,370.22s-3.32,22.13-3.09,24.47c.23,2.33,35.23,18.68,36.87,20.55s-1.96,4.3-2.25,4.36c-6.89,1.28-52.82-.6-55.39-.38-2.57,.22,3.74-26.55,3.74-26.55,0,0-.96-30.36-.14-35.73,.82-5.37,20.26,13.28,20.26,13.28Z"/><path class="i" d="M88.38,401.29c-.1-5.17,3.28-7.02,3.29-6.6,.23,2.33,35.23,18.68,36.87,20.55,1.63,1.87-1.96,4.3-2.25,4.36-6.89,1.28-52.82-.6-55.39-.38-1.88,.16,.99-14.1,2.67-21.78,0,0,14.91,9.02,14.81,3.86Z"/><path class="l" d="M70.9,419.22c-.76,.06-.74-2.26-.33-5.56,.54,.02,1.11,.06,1.73,.12,7.99,.8,28.47,2.01,40.35,2.51,8.17,.34,13.44,.32,16.3,.27-.22,1.53-2.43,3-2.66,3.05-6.89,1.28-52.82-.6-55.39-.38Z"/></g><g><path d="M83.64,213.35s-8.2,53.73-9.33,58.24c-1.14,4.5-17.41,93.07-17.41,93.07,0,0-5.58,3-13.66,1.5-8.09-1.5-11.2-6.5-11.2-6.5,0,0,5.44-66.05,14.53-87.06,0,0-1.25-33.91-2.83-59.24-1.58-25.33,8.89-52.75,13.16-64.31,4.27-11.56,57.8,4.12,57.8,4.12,0,0,11.53,18.35,7.52,60.38-4.01,42.03-24.97,169.17-24.97,169.17,0,0-5.19,3.54-13.13,0-7.94-3.54-14.85-6.55-14.85-6.55,0,0,6.18-75.13,15.75-99.07,2-5.01-1.37-63.74-1.37-63.74Z"/><path d="M46.38,270.47c.76,3.14,1.16,6.36,1.18,9.6,0,.95-1.47,.95-1.47,0-.02-3.11-.39-6.19-1.12-9.2-.22-.92,1.19-1.31,1.42-.39Z"/><path d="M85.02,283.82c.83-2.38,1.97-4.59,2.99-6.88,.52-1.18,.94-2.4,1.15-3.67,.21-1.28,.21-2.59,.17-3.88-.07-2.73-.22-5.45-.36-8.17-.56-10.94-1.39-21.87-2.49-32.78-.62-6.12-1.32-12.22-2.1-18.32-.08-.62,.9-.63,.98-.01,1.4,10.91,2.54,21.85,3.41,32.82,.43,5.48,.8,10.97,1.09,16.46,.15,2.75,.28,5.49,.39,8.24,.11,2.56,.22,5.16-.55,7.64-.85,2.72-2.37,5.19-3.38,7.85-1.03,2.72-1.76,5.54-2.21,8.42-.1,.62-1.05,.37-.95-.25,.4-2.54,1.01-5.04,1.86-7.46Z"/><path d="M76.55,344.46c1.12-9.37,2.32-18.72,3.61-28.07,.73-5.29,1.48-10.58,2.26-15.87,.09-.62,1.04-.36,.94,.26-1.38,9.33-2.67,18.66-3.88,28.01-1.21,9.35-2.34,18.71-3.38,28.09-.59,5.27-1.15,10.54-1.68,15.82-.06,.62-1.04,.63-.98,0,.96-9.42,1.99-18.84,3.12-28.24Z"/></g><path class="f" d="M119.16,166.2l1.91,5.06,1.5,8.97s-11.2,11.93-32.87,12.66h-7.3s-20.72,1.22-29.84-3.16c-9.12-4.38-7.41-8.03-7.41-8.03,0,0,3.24-12.32,5.64-19.55,2.4-7.23,68.37,4.06,68.37,4.06Z"/><path class="f" d="M113.49,132.51s4.79,20.1,7.58,38.75c0,0-13.75-1.24-22.8-2.94-9.06-1.7-11.52-2.51-11.52-2.51,0,0-6.79,2.27-17.5,2.27s-20.05-.83-20.05-.83c0,0,9.13-31.08,12.03-47.75,2.91-16.67,3.88-30.46,3.88-30.46l49.91,8.36-1.52,35.11Z"/><path class="g" d="M39.61,140.31c1.73,1.33,4.63,3.65,6.54,4.8,1,.6,2.25,1.19,3.45,1,.56-.09,1.04,.02,1.6-.04,.68-.07,1.34-.31,1.95-.62,.85-.43,1.62-1,2.4-1.54,.39-.27,.8-.54,1.26-.66,1.09-.28,2.19,.34,3.15,.92,1.14,.7,2.29,1.41,3.43,2.11,.27,.17,.56,.35,.71,.63,.64,1.14-1.48,1.51-2.17,1.34-1.42-.36-2.9-1.47-3.64-1.1-.74,.37-1.89,1.35-1.87,1.6,.02,.25,2.61-.12,3.35,.62,.92,.92,7.23,5.41,4.24,6.69-.74,.32-1.7-.07-2.35,.42-.65,.48-.58,1.55-1.22,2.04-.85,.66-2.26-.17-3.11,.5-.36,.28-.49,.76-.76,1.13-.52,.74-1.5,1.01-2.4,1.02-.9,.01-1.8-.17-2.7-.13-.99,.05-1.95,.39-2.94,.4-1.77,.02-3.37-.99-4.84-1.96-.73-.48-10.24-6.7-10.19-6.79,2.59-3.95,3.52-8.45,6.1-12.39Z"/><path class="j" d="M47.78,157.1c.34-1.13,.51-2.16,.44-3.33-.04-.77-.1-1.55,.16-2.28,.67-1.86,2.94-2.18,2.65-4.55-.09-.73,1.19-.91,1.29-.18,.23,1.71-.3,2.94-1.61,4.04-1.87,1.56-.72,4.66-1.78,6.79-.32,.64-1.36,.19-1.15-.49Z"/><path class="f" d="M.46,116.66c.85,3.57,2.82,6.94,5.2,10.05,1.07,1.41,21.93,28.95,25.26,29.69,3.33,.74,7.4-2.59,9.99-7.03,2.59-4.44,3.55-6.37,2.44-8.22-1.11-1.85-5.77-5.84-5.77-5.84-2.96-1.85-13.69-16.65-13.32-17.76,.38-1.15,25.18-11.34,27-10.58,.08-.07,.19-.23,.29-.27,1.21-.52,2.57-2.42,3.52-3.32,1.85-1.74,3.7-3.49,5.56-5.23,1.7-1.61,3.4-3.21,5.11-4.81,.37-.35,2.12-1.54,2.18-2.06,.06-.48-.59-29.01-.59-29.01,0,0-2.52,1.02-19.02,9.41-6.15,3.13-12.14,7.74-17.44,12.04-.99,.8-1.98,1.61-2.98,2.4-.97,.78-1.94,1.55-2.92,2.31-.19,.16-.38,.3-.58,.46-1.59,1.24-3.19,2.47-4.81,3.67-.08,.06-.15,.11-.23,.17-3.82,2.82-8.24,5.05-11.92,8-2.42,1.94-5.04,3.31-6.27,6.33-1.35,3.33-1.44,6.54-.71,9.61Z"/><path class="e" d="M22.83,110.98c.92,2.15,1.83,4.3,2.84,6.41,.96,2,1.9,4.18,3.48,5.78h-.01c.36,.53-.26,1.32-.81,.85-1.6-1.38-2.54-3.31-3.48-5.16-1.21-2.38-2.26-4.84-3.31-7.29-.36-.84,.94-1.42,1.29-.58Z"/><path class="k" d="M44.85,73.98c5.97,7.1,9.33,16.2,9.44,25.47,0,.43-.66,.43-.67,0-.17-9.1-3.47-17.96-9.26-24.98-.28-.34,.2-.83,.49-.49Z"/><path class="k" d="M49.84,105.75c2.06-.82,4.22-1.04,6.42-.8,.72,.08,.64,1.34-.1,1.29-2.03-.15-3.96,.16-5.87,.86-.86,.32-1.3-1.01-.45-1.35Z"/><path class="f" d="M141.62,118.79c-2.77-14.82-11.71-40.01-18.13-43.9-1.4-.85-5.7-1.13-6.94-1.83-3.57-.37-.3,.66-3.9,.73-.11,3.82-.21,9.59-.08,16.46,.58-.13,1.28,.17,1.31,.94,.23,4.89,1.48,9.61,2.59,14.35,.55,2.34,1.11,4.71,1.43,7.1,.24,1.78,.48,3.54,.82,5.3,.21,.16,.36,.41,.37,.76,0,.21,0,.43,0,.65,.02,.02,.03,.04,.05,.07"/><g><path class="f" d="M73.23,59.23c4.19,1.99,14.57,5.44,14.57,5.44,0,0,7.72-.63,11.76-2.26,.8,.72,1.74,1.49,2.73,2.28,.89,.71-4.4,59.89-14.46,71.21,0,0-17.08-65.79-20.64-73.59,2.24-1.1,4.31-2.13,6.04-3.09Z"/><g><path class="n" d="M61.79,35.59c.67-1.23,1.48-2.38,2.09-3.64,.64-1.32,.95-2.74,1.13-4.18,.35-2.81,.3-5.65,1.2-8.37,.85-2.56,2.26-4.89,4.08-6.88,1.26-1.38,2.71-2.6,4.29-3.62,0-.04,0-.08,0-.12,.06-.75,.2-1.48,.44-2.2,.48-1.43,1.29-2.7,2.43-3.69,2.07-1.79,5.19-2.29,7.67-1.12,.6-.42,1.25-.79,1.94-1.06,3.43-1.38,7.29-.52,10.63,.7,1.74,.64,3.42,1.44,5.18,2.02,.9,.29,1.82,.53,2.76,.66,.91,.12,1.83,.14,2.72,.37,.61,.16,1.17,.41,1.69,.72,2.84,.72,5.09,2.83,6.55,5.33,1.87,3.19,2.39,6.83,2.81,10.45,.23,2,.43,4.01,.88,5.98,.46,2.01,1.22,3.93,1.79,5.9,1.11,3.82,1.58,7.85,1.33,11.82-.23,3.76-.85,8.14-4.13,10.51-1,.72-2.05-.87-1.06-1.59,2.52-1.83,3.01-5.41,3.24-8.28,.3-3.69-.03-7.45-.97-11.02-.48-1.83-1.16-3.61-1.68-5.43-.53-1.86-.84-3.76-1.07-5.68-.43-3.48-.63-7.08-2.08-10.33-.47-1.07-1.09-2.1-1.85-3,.44,.98,.77,1.99,1.01,2.94,.82,3.35,.74,6.82,.28,10.22,.34,1.3,.81,2.56,1.28,3.82,1.18,3.13,2.12,6.27,2.59,9.59,.44,3.12,.54,6.35,.09,9.48-.39,2.76-1.39,5.56-3.44,7.54-2.19,2.12-5.09,3.1-8.04,3.62-3.17,.55-6.46,.63-9.67,.61-1.66,0-3.32-.07-4.98-.18-.39-.03-.74-.21-.91-.54-4.45-.2-8.87-.76-13.22-1.71-.35-.08-.56-.29-.66-.55-1.12-.22-2.23-.47-3.34-.77-5.59-1.53-11.66-4.22-13.75-10.09-1-2.8-.67-5.64,.74-8.23Z"/><path class="g" d="M97.51,60.07c.52,.82,1.57,1.85,2.88,2.97-.54,.59-1.34,.93-2.07,1.21-.79,.29-1.68,.65-2.51,.8-2.37,.42-5.67,.83-8.07,.67-4.91-.33-9.41-1.68-13.79-4.09-.82-.45-1.6-.95-2.38-1.47,2.69-1.4,4.82-2.67,5.94-3.79,4.62-4.62,6.01-18.49,6.01-18.49l14.56,8.09s-.22,1.2-.47,2.9c-.48,3.26-1.06,8.38-.46,10.51,.06,.21,.17,.45,.33,.7Z"/><path class="j" d="M97.51,60.07c-.16-.25-.27-.49-.33-.7-.61-2.13-.02-7.25,.46-10.51l-12.71-6.83s.46,12.94,12.58,18.03Z"/><path class="g" d="M76.24,27.76c2.99-2.55,5.3-.45,6.33,.86-.03,.11-.02,.23,.03,.34,.53,1.19,1.82,.88,2.54,.06,.66-.75,1.02-1.72,1.43-2.62,.13-.29,.35-.73,.45-.87,.01-.01,.02-.03,.04-.04,0,.01,.32-.24,.32-.24,.28-.17,.6-.28,.91-.39,1.26-.43,2.35-.92,3.17-1.95,.92-.2,1.77-.65,2.53-1.2,1.41-1.04,2.6-2.31,4.06-3.29,1.27-.85,2.65-1.54,3.96-2.33,1.24-.75,2.41-1.62,3.2-2.85,.43-.66,.68-1.37,.81-2.11,.42,.28,.83,.57,1.22,.88,.69,.55,1.23,1.08,1.66,1.86,.38,.67,.69,1.38,1.07,2.04,.24,.92,.45,1.91,.62,2.98,1.36,8.28,3.68,31.21-10.96,33-14.64,1.78-18.09-12.91-18.09-12.91-3.94-.07-9.36-7.75-5.28-11.23Z"/><path class="m" d="M109.21,30.9c-.02-.14-.03-.27-.02-.41,.02-.23,.03-.45,.15-.65,.04-.07,.09-.15,.14-.21,.03-.03,.06-.06,.09-.08,.03-.03,.07-.06,.11-.09,.07-.04,.15-.08,.23-.1,.08-.02,.17-.04,.25-.04,.16,0,.34,.03,.48,.11,.19,.11,.36,.28,.42,.5,0,.04,0,.07,.01,.11,.06,.07,.11,.15,.14,.24,.06,.17,.1,.34,.12,.52,.01,.11,0,.22-.01,.33-.01,.11-.05,.22-.1,.33,0,.02-.02,.04-.03,.06-.04,.06-.08,.13-.13,.19-.07,.08-.15,.15-.24,.2-.23,.14-.49,.2-.75,.15-.26-.05-.51-.22-.63-.45-.12-.23-.17-.44-.21-.7Z"/><path class="m" d="M94.3,30.36c.04-.31,.16-.64,.36-.88,.3-.34,.84-.42,1.22-.18,.31,.19,.52,.47,.63,.82,.12,.12,.2,.28,.21,.46,.02,.31,0,.64-.05,.95-.07,.4-.23,.78-.62,.96-.8,.39-1.5-.47-1.69-1.16-.09-.33-.11-.63-.07-.97Z"/><path class="j" d="M102.56,38.16c.1-.13,.22-.2,.37-.24,.38-.1,.75-.2,1.13-.3,.14-.04,.32,.02,.43,.09,.12,.08,.22,.23,.24,.37,.02,.15,0,.31-.09,.43-.1,.13-.22,.2-.37,.24-.38,.1-.75,.2-1.13,.3-.14,.04-.32-.02-.43-.09-.12-.08-.22-.23-.24-.37-.02-.15,0-.31,.09-.43Z"/><path class="n" d="M91.51,25.63c1.21-1.04,2.58-1.86,4.06-2.47,.35-.14,.81,.1,.9,.46,.11,.4-.08,.75-.46,.91-.68,.28-1.24,.57-1.9,.98-.64,.39-1.24,.84-1.81,1.33-.29,.24-.81,.1-.99-.2-.22-.37-.11-.73,.2-.99Z"/><path class="n" d="M108.85,25.52c.05-.18,.14-.35,.3-.45,.16-.09,.37-.16,.55-.1,.35,.11,.7,.25,1.02,.43,.32,.18,.63,.4,.9,.65,.14,.13,.23,.31,.24,.5,0,.17-.06,.38-.18,.51-.13,.14-.31,.24-.5,.24-.19,0-.37-.05-.51-.18-.13-.11-.26-.22-.4-.31-.27-.17-.56-.32-.86-.43h-.02c-.18-.06-.34-.14-.45-.31-.1-.15-.15-.37-.1-.55Z"/><path class="h" d="M103.83,41.86l-6.33-1.33s.3,4.31,1.67,4.54c1.79,.31,4.65-3.22,4.65-3.22Z"/></g></g></g><path class="h" d="M112.43,92.49c.03,.24,.05,.48,.06,.71,.01,.23,0,.49-.12,.68-.23,.34-.73,.39-1.15,.39l-6.11,.05c-.88,0-1.78,.01-2.6-.28-1.54-.55-2.88-3.33-1.25-4.5,.46-.33,1.06-.35,1.63-.36,2.62-.05,5.24-.05,7.86-.02,.17,0,.34,0,.49,.09,.17,.09,.27,.27,.35,.44,.43,.88,.71,1.83,.84,2.79Z"/></g></g></g></svg>