<?xml version="1.0" encoding="UTF-8"?><svg xmlns="http://www.w3.org/2000/svg" xmlns:xlink="http://www.w3.org/1999/xlink" viewBox="0 0 129.68 129.68"><defs><style>.bf{fill:none;}.bg{fill:#675c62;}.bh{fill:#6a5e63;}.bi{fill:#eabf9b;}.bj{fill:#e8ded4;}.bk{fill:#fff;}.bl{fill:#989093;}.bm{fill:#c2bbb1;}.bn{fill:#b2635b;}.bo{fill:#deb18a;}.bp{fill:#c5e9f9;}.bq{fill:#435f66;}.br{fill:#543f37;}.bs{fill:#292a2e;}.bt{fill:#2c292f;}.bu{fill:#383233;}.bv{fill:#3d373b;}.bw{fill:#5a5054;}.bx{fill:#2f3035;}.by{fill:#5e3430;}.c`{mix-blend-mode:screen;opacity:.2;}.ca{clip-path:url(#g);}.cb{clip-path:url(#ae);}.cc{isolation:isolate;}</style><clipPath id="g"><circle class="bf" cx="64.84" cy="64.84" r="64"/></clipPath><clipPath id="ae"><path class="bf" d="M51.24,73.11s2.12,.18,3.95-.45c.23-.08,.47-.11,.72-.09,.87,.05,2.43,.22,4.36-.01s5.06-1.06,6.28-1.39c.29-.08,.59-.11,.89-.09,.62,.04,1.8,.1,3.07-.42,0,0-5.45,4.82-9.51,4.99s-5.2,.06-9.76-2.53Z"/></clipPath></defs><g class="cc"><g id="a"/><g id="b"><g id="c"><g id="d"><g id="e"><circle class="bp" cx="64.84" cy="64.84" r="64"/></g><g id="f"><g class="ca"><g id="h"><g id="i"><path class="bw" d="M-1.96,114.36s25.17-15.24,29.01-17.6,22.62-11.9,22.62-11.9c0,0,34.71-15.04,37.17-14.95s4.23,1.28,5.01,2.65,3.44,5.6,5.51,6.88,5.9,3.05,7.96,3.54,10.32,3.15,14.36,4.52c4.03,1.38,28.32,17.5,28.32,17.5l.29,29.4H-1.57l-.39-20.06Z"/></g><g id="j"><path class="bu" d="M90.57,77.98s-2.06-5.6-3.34-6.1-6.69,.29-6.69,.29l.1,15.93,9.93-10.13Z"/></g><g id="k"><path class="bi" d="M61.47,99.52s11.7-7.08,22.91-20.35c0,0,.36-.5,.95-1.41l.13-17.77s-9.83-4.13-21.93,.98c-12.09,5.11-13.86,18.19-13.86,18.19l.48,7.26c.75,2.13,3.33,7.46,11.32,13.09Z"/></g><g id="l"><path class="br" d="M85.46,60.25l-.59,.1s-1.38,7.41-2.88,11.21c-1.51,3.8-5.44,9.57-7.28,11.93-1.84,2.36-4.59,7.21-12.72,7.87-4.13,.33-7.43-2.04-9.65-4.4,4.43,5.4,7.76,6.56,10.7,7.42,3.61,1.05,10.23,.13,18.09-1.05,1.86-.28,3.37-2.32,4.59-5.27l-.26-27.81Z"/></g><g id="m"><path class="bx" d="M49.86,85.46s1.28,6.78,11.6,14.06c0,0,11.7-7.08,22.91-20.35,0,0,3.83-2.95,1.38-7.37,0,0,.88-.29,1.47,.1s3.34,3.74,4.42,6.98,6,7.28,6,7.28l2.36,6.19-12.88,45.92H34.72s-.29-24.19,2.85-32.45c3.15-8.26,7.87-17.8,7.87-17.8l4.42-2.56Z"/></g><g id="n"><path class="bs" d="M68.08,94.82c3.54-.1,5.12-.38,8.66-1.76s8.52-6.95,8.72-10.69c.2-3.74,.17-4.62,.17-4.62-.59,.9-1.25,1.41-1.25,1.41-5.88,6.97-11.9,12.23-16.29,15.65Z"/></g><g id="o"><g id="p"><path class="bt" d="M58.12,101.48c-1.08,.84-2.16,2.41-2.16,3.44s-.1,3.83,.59,5.31,1.47,2.46,1.47,2.46l-.1,2.26s-1.03,.34-1.47,1.18-2.06,22.13-2.06,22.13l11.9-.1s-1.87-20.99-1.97-21.63-.29-1.18-1.18-1.47c-.63-.21-.29-2.36-.29-2.36,0,0,1.28-1.67,1.77-2.65s1.28-2.36,1.18-5.11-1.18-3.83-1.77-4.28-4.82,0-5.9,.84Z"/></g><g id="q" class="c`"><path class="bl" d="M56.55,102.76l2.16-1.87s1.57-.54,.79,.59-2.31,2.11-2.31,2.11c0,0-1.18,.39-.64-.84Z"/><path class="bl" d="M60.38,102.96l-1.67,.98s0,.59,.44,.64,4.62-3.15,4.62-3.15c0,0,.69-.98,.98-.49s.25,.79,.05,1.03,.34,1.08,.25,1.38-1.08,.29-.74,.64,1.67,.2,1.08,.88-1.52,.2-1.47,.54,1.08,.34,.84,.84-1.18,.69-1.47,.2,.1,.93-.39,.79-.84,.25-.54,.49,2.46,1.43,1.72,1.87-1.23,.34-1.67-.05-.34-1.33-.79-1.18-1.38,1.13-1.28,1.57-.1,1.18,.29,1.43,.64,.93,1.03,.88,.44-.2,.54,.2,.84,1.62-.1,1.62-1.52-.29-1.52-.84-.2-1.08-.74-1.08-2.65-1.38-2.8-1.92-.25-3.83-.25-3.83c0,0,.2-.98,.79-.98s.98,1.03,1.43,1.08,1.23-.05,.93-.49-1.97-.79-2.36-1.13-.2-1.23,.74-1.87,1.62-1.38,1.92-1.28,1.13,.39,.15,1.23Z"/><path class="bl" d="M58.27,113.48s1.28-.2,1.57-.05,.15,.64,.34,.69,.44,.1,.64,.64-.34,2.21-.88,2.16-1.77-.54-1.72-.93,1.08-.93,.84-1.23-.69-.29-.88-.39-.15-.74,.1-.88Z"/><path class="bl" d="M58.12,118.59s.34-1.18,.84-1.18,1.08-.1,1.13,.29-.15,1.23-.49,1.33-.84,.25-.74,.64,.59,.69,.15,.98-.59,.69-.15,.69,.79,.69,.44,.98-1.97,1.92-2.51,1.82-1.13-1.03-.88-1.47,.54-1.62,.49-2.06,.15-1.03,.44-1.23-.59-.44-.64-.74,.49-1.28,.84-1.08,.84,1.52,1.08,1.03Z"/></g></g><g id="r"><path class="bs" d="M49.17,116.33c-3.61-7.48-6.38-15.13-7.85-19.51-.07,.16-.15,.33-.22,.5,3.14,12.18,8.07,20.78,8.07,20.78,5.31-5.41,7.87-12,7.87-12,0,0,.98-3.54,4.74-3.5,3.76,.04,4.5,3.5,4.41,3.5,3.44,7.96,10.72,10.72,10.72,10.72,10.91-17.6,14.26-34.81,14.26-34.81-3.64,15.04-14.55,33.24-14.55,33.24-6.19-3.24-9.05-10.03-9.05-10.03,0,0-.49-2.26-1.67-3.93s-4.13-1.77-4.13-1.77c0,0-.09-.02-.24-.03l-.05,.03-.06-.04c-.67-.03-2.26,.14-4.17,1.91-1.74,1.61-1.87,4.62-1.87,4.62-2.26,6.39-6.19,10.32-6.19,10.32Z"/></g><g id="s"><path class="bh" d="M43.08,108.07c1.59-7.04,5.44-19.11,6.79-23.3l-.2,.09s-2.51,1.28-5.89,3.01c-3.03,4.76-8.68,14.05-10.24,19.51-2.16,7.57-5.21,25.76-5.21,25.76h12.29s.59-16.81,2.46-25.07Z"/><path class="bh" d="M99.03,104.63c2.16-10.23,3.54-21.14,3.54-21.14,0,0-.12-.56-.7-1.73-1.64-.71-3.36-1.58-4.51-2.3-2.07-1.28-4.72-5.51-5.51-6.88-.08-.15-.18-.29-.29-.43,.12,.57,.19,1.15,.19,1.71,0,3.74-4.52,18.39-7.18,26.06-2.61,7.55-9.93,32.65-9.93,32.65l17.01-.2s5.21-17.5,7.37-27.73Z"/></g><g id="t"><path class="bi" d="M33.05,31.96c-.88,5.21-.59,9.44,0,17.31s6.69,19.08,6.69,19.08c0,0,.39,3.05,2.56,6.29,1.55,2.33,4.82,6.29,7.28,8.55,2.46,2.26,4.92,6.39,8.06,7.18,3.15,.79,7.57,.2,9.93-1.08,2.36-1.28,6.03-4.69,9.14-8.46s6.88-9.05,8.26-13.37,.69-7.87,.69-7.87c0,0,2.46-12.98,1.57-19.27s-4.42-14.45-10.55-21.39c-8.09-9.17-25.83-5.35-31.73-2.5-5.9,2.85-11.01,10.32-11.9,15.54Z"/></g><g id="u"><g id="v"><path class="bi" d="M83.3,44.06s.39-2.56,2.36-2.85,3.02,0,3.54,.39,1.38,2.36,1.57,6c.2,3.64-.69,6-.79,7.08s-.1,2.85-.79,3.83-2.23,2.1-4.13,.88c-.26-.49,.26-4.82-.26-6.78s-1.44-3.47-1.51-8.55Z"/></g><g id="w"><path class="bi" d="M32.75,50.32c-.23,.13-.33,.52-.2,1.11s.59,2.23,.85,3.28,.52,4.52,.72,5.7,1.18,2.16,1.31,3.02,.39,3.67,1.44,4.33,2.75,.59,2.75,.59c0,0-.26-4.33-.79-7.74s-2.29-7.15-2.62-7.8-2.03-2.75-2.43-2.75-.82,.13-1.05,.26Z"/></g><g id="x"><path class="bo" d="M34.39,52.09c-.34,.11-.59,.85-.2,1.31s1.25,1.77,.98,2.23-.59,1.64-.59,2.29-.13,2.03,.46,2.88,1.23,1.65,1.38,1.9c.38,.65,1.06-.27,.13-1.57-.88-1.23-1.57-2.36-1.31-3.21s.98-1.7,.92-2.62-.66-1.38-.72-1.97-.71-1.35-1.05-1.25Z"/></g><g id="y"><path class="bo" d="M85.33,47.7c.46-.13,.59,.2,.85,.66s1.84,.07,2.1,1.18,.46,2.43,0,3.08-1.18,.85-1.44,1.25-.46,.92-.46,.92c0,0,.32-1.52,.2-2.1-.39-1.84-1.64-2.16-2.16-3.08-.41-.72,.46-1.77,.92-1.9Z"/></g></g><g id="a`"><path class="bo" d="M71.5,73.39c.13,.07-.2,2.46-2.03,4.46,1.47-2.56,1.9-4.52,2.03-4.46Z"/></g><g id="aa"><g id="ab"><path class="bn" d="M49.8,72.8s2.32,.19,4.45-.53c.27-.09,.55-.12,.83-.11,1.02,.06,2.82,.26,5.07-.02s5.88-1.23,7.3-1.61c.34-.09,.69-.13,1.04-.11,.72,.04,2.17,.03,3.66-.57,0,0-6.42,6.03-11.14,6.23s-5.9-.26-11.21-3.28Z"/></g><g id="ac"><path class="by" d="M51.24,73.11s2.12,.18,3.95-.45c.23-.08,.47-.11,.72-.09,.87,.05,2.43,.22,4.36-.01s5.06-1.06,6.28-1.39c.29-.08,.59-.11,.89-.09,.62,.04,1.8,.1,3.07-.42,0,0-5.45,4.82-9.51,4.99s-5.2,.06-9.76-2.53Z"/></g><g id="ad"><g class="cb"><g><g id="af"><path class="bm" d="M53.89,77s-.25-3.05,.05-3.2,4.67,.1,4.67,.1l9.69-2.36s.54,.15,.64,1.62,0,2.7,0,2.7c0,0-5.75,2.9-7.42,2.95s-7.62-1.82-7.62-1.82Z"/></g><g id="ag"><path class="bj" d="M53.66,70.93l.07,2.49s.26,.79,.85,.72c0,0,.03,.43,1.18,.46,0,0,.03,.39,1.31,.39,0,0,.66,.23,1.34,.03,0,0,1.28,.39,2.31-.15,0,0,1.33,.39,2.06-.2,0,0,1.23,.1,1.23-.34,0,0,1.33,0,1.33-.34,0,0,1.03-.25,1.08-.64,0,0,1.08-.34,1.08-.64,0,0,1.03-.25,1.03-.54s.05-3.29,.05-3.29c0,0-5.65-.49-8.11-.25s-6.82,2.29-6.82,2.29Z"/></g></g></g></g></g><g id="ah"><path class="bo" d="M67.17,61.9c.2-.1,1.38,1.18,2.51,1.47s4.42,1.08,5.26,1.82,1.67,2.65,1.62,3.39,0,4.77-.2,4.82-.25-4.57-.44-5.31-.98-2.36-1.33-2.61-4.92-1.62-5.46-1.77-2.16-1.72-1.97-1.82Z"/></g><g id="ai"><path class="bo" d="M51.63,64.02c-.25,.05-.25,1.62-.98,2.11s-4.38,3.05-4.67,3.74-.34,2.95-.15,2.95,.25-2.16,.59-2.7,3.93-3.2,4.52-3.64,.93-2.51,.69-2.46Z"/></g><g id="aj"><path class="bo" d="M61.86,47.89s-3.8,4.85-3.34,9.96,2.1,4.85,2.82,4.79,2.36-1.25,1.9-2.88-2.1-.85-2.43-2.23c-.46-5.05,1.05-9.64,1.05-9.64Z"/></g><g id="ak"><path class="bo" d="M53.66,66.25s-.43-.85,1.25-.79c1.32,.05,2,1.44,3.05,1.44s1.61-.16,2.03-.33c.39-.15,.43-1.25,1.15-1.7s2.69-1.31,3.21-.79-2.82,1.02-3.15,1.34-.43,1.21-.79,1.44c-.78,.51-2.52,.56-2.95,.52s-1.18-.82-1.31-1.02-2.59,.43-2.49-.13Z"/></g><g id="al"><path class="bo" d="M62.11,60.87c-.2-.15,1.09-1.15,2.11-.64,1.38,.69,1.72,3.24,1.38,3.29s-.29-1.97-1.28-2.7-2.02,.2-2.21,.05Z"/></g><g id="am"><g id="an"><path class="bo" d="M66.73,53.25c-.07-.39,3.39-.11,4.57-.84s2.39-2.52,2.7-2.46-.93,2.65-2.44,3.24-4.77,.44-4.83,.05Z"/></g><g id="ao"><path class="bo" d="M44.41,56.79c-.1-.25,2.85,.05,4.28-.29s1.97-1.13,2.21-1.08-.1,1.23-2.21,1.72-4.18-.1-4.28-.34Z"/></g><g id="ap"><path class="bk" d="M63.89,51.2c-.22-.29,.46-.36,.95-.66s.52-1.67,2.97-2.26c2.6-.63,4.13,.79,4.13,.79,0,0-1.23,1.23-3.3,1.72s-3,.1-3.42,.17-1.11,.53-1.34,.24Z"/></g><g id="aq"><path class="bk" d="M52.57,53.4c.09-.36-.5-.25-1.07-.34s-2.2-1.61-4.33-1.12-2.98,2.06-2.98,2.06c0,0,1.25,1.11,3.51,.86,2.26-.25,2.96-1.15,3.37-1.24s1.4,.12,1.5-.24Z"/></g><g id="ar"><path class="bq" d="M68.64,50.79c.93-.22,1.68-.59,2.24-.93,.01-.1,.02-.2,.02-.3,0-.46-.15-.89-.4-1.24-.68-.21-1.59-.31-2.7-.04-.36,.09-.66,.19-.93,.31-.15,.29-.24,.62-.24,.97,0,.56,.22,1.08,.58,1.46,.4-.03,.87-.1,1.42-.23Z"/></g><g id="as"><path class="bq" d="M47.17,51.95c-.4,.09-.76,.23-1.08,.38-.06,.2-.1,.42-.1,.65,0,.86,.51,1.6,1.24,1.93,.15,0,.3-.01,.47-.03,.91-.1,1.56-.3,2.04-.52,.32-.37,.51-.86,.51-1.38,0-.2-.03-.39-.08-.57-.78-.38-1.81-.74-3-.46Z"/></g><g id="at"><circle cx="48.16" cy="52.87" r=".66"/></g><g id="au"><circle cx="68.74" cy="49.47" r=".66"/></g><g id="av"><path class="bk" d="M67.03,48.53c-.08,.13-.13,.28-.13,.45,0,.47,.38,.85,.85,.85s.85-.38,.85-.85c0-.33-.19-.61-.46-.75-.11,.02-.22,.04-.34,.07-.29,.07-.55,.15-.77,.24Z"/></g><g id="aw"><path class="bk" d="M47.17,51.95c-.3,.07-.56,.16-.81,.26-.02,.08-.04,.15-.04,.24,0,.47,.38,.85,.85,.85s.85-.38,.85-.85c0-.23-.09-.44-.24-.59-.2,.01-.41,.04-.62,.09Z"/></g><g id="ax"><path class="bx" d="M63.89,51.7c-.15,0-.3-.07-.4-.2-.18-.24-.15-.46-.12-.58,.1-.35,.44-.48,.76-.6,.14-.06,.31-.12,.45-.2,.04-.03,.13-.18,.2-.29,.35-.58,.95-1.55,2.91-2.03,2.82-.68,4.52,.84,4.59,.9,.2,.19,.22,.5,.03,.71-.19,.2-.5,.22-.71,.03-.05-.05-1.39-1.22-3.68-.67-1.56,.38-1.98,1.07-2.29,1.58-.15,.25-.29,.48-.54,.63-.19,.12-.41,.2-.6,.28-.03,.01-.07,.03-.11,.04-.02,.12-.09,.23-.19,.3-.09,.07-.2,.1-.3,.1Z"/></g><g id="ay"><path class="bx" d="M44.19,54.51c-.08,0-.16-.02-.24-.06-.24-.13-.33-.43-.2-.68,.04-.07,.98-1.77,3.31-2.31,1.75-.41,3.16,.38,4.01,.85,.19,.11,.43,.24,.51,.26,.14,.02,.29,.03,.42,.04,.38,.02,.74,.04,.95,.34,.12,.16,.15,.37,.1,.58-.07,.27-.34,.43-.61,.36-.15-.04-.26-.14-.32-.27-.06,0-.12,0-.17-.01-.16,0-.34-.02-.52-.05-.24-.04-.49-.18-.84-.37-.77-.43-1.92-1.07-3.3-.75-1.87,.44-2.63,1.76-2.66,1.82-.09,.17-.26,.26-.44,.26Z"/></g><g id="b`"><path class="bv" d="M73.49,46.99s-.65-1.86-2.15-2.08-3.5-.22-5.05,.33-2.37,2.02-2.46,2.48,1.96,.39,2.61,.18,1.43-.86,2.49-.93,2.44,.89,3.03,.81,1.49-.29,1.52-.8Z"/></g><g id="ba"><path class="bv" d="M41.14,52.55s.07-1.97,1.44-2.62,3.28-1.25,4.92-1.18,2.87,1.23,3.08,1.64-1.75,.95-2.44,.95-1.62-.39-2.65-.15-2.06,1.57-2.65,1.67-1.51,.16-1.69-.31Z"/></g></g><g id="bb"><circle class="bo" cx="72.63" cy="57.18" r=".54"/></g><g id="bc"><path class="bv" d="M32.82,49.99c-.39-.59-.07-2.1,.03-2.69,.18-1.44-1.21-5.67-1.08-6.95,.69-1.82-.22-5,.79-7.01,.75-9.83,10.42-18.68,20.26-19.54,10.1-2.25,21.78-.96,27.43,8.72,.51,2.68,2.67,2.8,3.74,4.92,0,2.52,1.81,3.78,2.46,6.39,.48,3.68,2.73,7.67-1.08,10.13-.98,.29-2.16,1.47-1.87,2.26,1.49,8.07-7.2-5.64-5.51-8.06,1.8-3.53,5.18-10.36-2.07-8.16-.68,2.52-3.36,3.29-6,2.95-5.8,.43-14.2-8.36-16.72-4.72-4.41,6.49-9.14-2.11-12,.49-1.84,4.58-1.41,3.24-4.82,5.7-1.68,2.99-1.4,3.34,0,6.98,1.19,4.25-.48,5.12,.79,8.65,.1,1.08,1.47,5.21,.39,5.41s-1.97-1.77-2.06-2.65-2.29-2.23-2.69-2.82Z"/></g><g id="bd"><path class="bg" d="M55.57,21.83s.59,2.26,3.64,2.46c0,0-2.36-.98-3.64-2.46Z"/><path class="bg" d="M57.07,21.47s1.38-.07,2.69,.59,1.44,1.84,2.62,2.36,2.56,.59,2.56,.59c0,0-2.56,.33-3.34-.2s-1.51-2.16-2.62-2.36-1.9-.98-1.9-.98Z"/><path class="bg" d="M67.1,20.95s-.52,1.77,2.69,3.15c0,0-2.1-1.64-2.69-3.15Z"/><path class="bg" d="M61.01,17.61s.59,2.62,2.36,2.43c0,0-1.44-.85-2.36-2.43Z"/><path class="bg" d="M41.73,24.95s-2.23-.07-2.88,2.23c0,0,1.57-1.77,2.88-2.23Z"/></g></g></g></g><g id="be"><path class="bk" d="M64.84,2c34.65,0,62.84,28.19,62.84,62.84s-28.19,62.84-62.84,62.84S2,99.49,2,64.84,30.19,2,64.84,2m0-2C29.03,0,0,29.03,0,64.84s29.03,64.84,64.84,64.84,64.84-29.03,64.84-64.84S100.65,0,64.84,0h0Z"/></g></g></g></g></g></svg>