<?xml version="1.0" encoding="UTF-8"?><svg xmlns="http://www.w3.org/2000/svg" viewBox="0 0 60 60"><defs><style>.e{fill:#fff;}</style></defs><g id="a"/><g id="b"><g id="c"><g id="d"><path class="e" d="M30,0C13.43,0,0,13.43,0,30s13.43,30,30,30,30-13.43,30-30S46.57,0,30,0Zm0,51.86c-12.07,0-21.86-9.79-21.86-21.86S17.93,8.14,30,8.14s21.86,9.79,21.86,21.86-9.79,21.86-21.86,21.86Z"/><path class="e" d="M30,11.84c-10.03,0-18.16,8.13-18.16,18.16s8.13,18.16,18.16,18.16,18.16-8.13,18.16-18.16S40.03,11.84,30,11.84Zm-6.4,26.37h-2.46v-3.08c0-.07,.03-.13,.07-.18l2.2-2.2c.07-.07,.19-.02,.19,.08v5.37Zm3.67,0h-2.46v-6.75c0-.07,.03-.13,.07-.18l2.2-2.2c.07-.07,.19-.02,.19,.08v9.05Zm3.67,0h-2.46v-7.84c0-.1,.12-.15,.19-.08l2.2,2.2s.07,.11,.07,.18v5.55Zm3.67,0h-2.46v-5.76c0-.07,.03-.13,.07-.18l2.2-2.2c.07-.07,.19-.02,.19,.08v8.05Zm3.67,0h-2.46v-9.43c0-.07,.03-.13,.07-.18l2.2-2.2c.07-.07,.19-.02,.19,.08v11.72Zm2.31-17.6l-.87,4.69c-.02,.13-.19,.18-.28,.09l-1.14-1.14-6.76,6.76c-.06,.06-.16,.06-.22,0l-3.95-3.95c-.06-.06-.16-.06-.22,0l-5.98,5.98c-.05,.05-.13,.05-.18,0l-1.35-1.35c-.05-.05-.05-.13,0-.18l7.51-7.51c.06-.06,.16-.06,.22,0l3.95,3.95c.06,.06,.16,.06,.22,0l5.22-5.22-1.14-1.14c-.09-.09-.04-.26,.09-.28l4.69-.87c.11-.02,.21,.08,.19,.19Z"/></g></g></g></svg>