<?xml version="1.0" encoding="UTF-8"?><svg id="Layer_2" xmlns="http://www.w3.org/2000/svg" viewBox="0 0 60 60"><g id="Assets"><g id="icon_report"><path d="m30,0C13.43,0,0,13.43,0,30s13.43,30,30,30,30-13.43,30-30S46.57,0,30,0Zm0,51.86c-12.07,0-21.86-9.79-21.86-21.86S17.93,8.14,30,8.14s21.86,9.79,21.86,21.86-9.79,21.86-21.86,21.86Z"/><path d="m30.04,11.84c-10.03,0-18.16,8.13-18.16,18.16s8.13,18.16,18.16,18.16,18.16-8.13,18.16-18.16-8.13-18.16-18.16-18.16Zm-8.01,23.85c0,.27-.22.48-.48.48s-.48-.22-.48-.48v-16.22c0-.27.22-.48.48-.48h12.58c.27,0,.48.22.48.48s-.22.48-.48.48h-12.09v15.74Zm2.11,2.17c0,.27-.22.48-.48.48s-.48-.22-.48-.48v-16.22c0-.27.22-.48.48-.48h12.58c.27,0,.48.22.48.48s-.22.48-.48.48h-12.09v15.74Zm11.92,3.16v-3.88h3.37l-3.37,3.88Zm3.37-4.74h-3.8c-.24,0-.43.19-.43.43v4.31h-9.08c-.32,0-.57-.26-.57-.57v-16.48c0-.32.26-.57.57-.57h12.74c.32,0,.57.26.57.57v12.31Z"/><path d="m32.63,35.32h-4.03c-.24,0-.43.19-.43.43s.19.43.43.43h4.03c.24,0,.43-.19.43-.43s-.19-.43-.43-.43Z"/><path d="m36.39,32.62h-7.79c-.24,0-.43.19-.43.43s.19.43.43.43h7.79c.24,0,.43-.19.43-.43s-.19-.43-.43-.43Z"/><path d="m36.39,29.92h-7.79c-.24,0-.43.19-.43.43s.19.43.43.43h7.79c.24,0,.43-.19.43-.43s-.19-.43-.43-.43Z"/><path d="m36.39,27.22h-7.79c-.24,0-.43.19-.43.43s.19.43.43.43h7.79c.24,0,.43-.19.43-.43s-.19-.43-.43-.43Z"/></g></g></svg>