<?xml version="1.0" encoding="UTF-8"?><svg xmlns="http://www.w3.org/2000/svg" viewBox="0 0 30 30"><defs><style>.e{fill:#ec2027;}</style></defs><g id="a"/><g id="b"><g id="c"><path id="d" class="e" d="M15,0C6.72,0,0,6.72,0,15s6.72,15,15,15,15-6.72,15-15S23.28,0,15,0Zm5.33,15.66h-.67v3.34c.01,.06,.01,.11,0,.17v.34c0,.46-.37,.83-.83,.83h-.33s-.05-.02-.07,0c-.03-.02-.06,0-.09,0h-1.18c-.46,0-.83-.37-.83-.83v-1.83c0-.37-.3-.67-.67-.67h-1.33c-.37,0-.67,.3-.67,.67v1.83c0,.46-.37,.83-.83,.83h-1.16s-.06,0-.09,0c-.03,0-.05,0-.08,0h-.33c-.46,0-.83-.37-.83-.83v-2.33s0-.04,0-.06v-1.45h-.67c-.38,0-.67-.29-.67-.67,0-.19,.06-.35,.21-.5l5.34-4.66c.15-.15,.31-.17,.46-.17s.31,.04,.44,.15l5.32,4.68c.17,.15,.25,.31,.23,.5,0,.38-.31,.67-.67,.67Z"/></g></g></svg>