<?xml version="1.0" encoding="UTF-8"?><svg xmlns="http://www.w3.org/2000/svg" viewBox="0 0 60 44.8"><defs><style>.e{fill:#fff;}.f{fill:#23749e;}</style></defs><g id="a"/><g id="b"><g id="c"><g id="d"><path class="e" d="M53.73,32.68c0,.77-.62,1.39-1.39,1.39H7.64c-.77,0-1.39-.62-1.39-1.39V4.82c0-.77,.62-1.39,1.39-1.39H52.34c.77,0,1.39,.62,1.39,1.39v27.86Zm2.69-27.68c0-2.76-2.24-5-5-5H8.57C5.81,0,3.57,2.24,3.57,5V37.5H56.43V5Zm-2.68,38.86c-.86,0-1.56-.7-1.56-1.56s.7-1.56,1.56-1.56,1.56,.7,1.56,1.56-.7,1.56-1.56,1.56m-18.75-3.86v1.05c0,.69-.56,1.25-1.25,1.25h-7.5c-.69,0-1.25-.56-1.25-1.25v-1.05H0v2.3c0,1.38,1.12,2.5,2.5,2.5H57.5c1.38,0,2.5-1.12,2.5-2.5v-2.3h-25Z"/><g><path class="f" d="M52.41,13.76H7.6V5.43c0-.34,.28-.62,.62-.62H51.79c.34,0,.62,.28,.62,.62V13.76Z"/><path class="e" d="M52.41,14.52H7.6v17.92c0,.34,.28,.62,.62,.62H51.79c.34,0,.62-.28,.62-.62V14.52Z"/></g><path class="f" d="M30.78,27.62v1.22h-2.22v-1.19c-.95-.15-1.81-.51-2.45-.92l1.11-1.74c.6,.41,1.66,.83,2.42,.83,.82,0,1.08-.14,1.08-.53,0-.31-.3-.5-1.41-.76-2-.46-2.96-1.01-2.96-2.66,0-1.27,.83-2.15,2.2-2.45v-1.22h2.22v1.21c.84,.13,1.53,.43,2.14,.86l-1.11,1.74c-.73-.5-1.47-.78-2.31-.78-.69,0-.85,.21-.85,.51s.3,.45,1.36,.7c2.08,.5,3,1.14,3,2.68s-.89,2.26-2.24,2.51Z"/><g><path class="f" d="M47.41,28.16s-.01,.02-.02,.02h-8.52s-.02-.01-.02-.02v-9.66s.01-.02,.02-.02h8.52s.02,.01,.02,.02v9.66Zm-.02-10.37h-8.52c-.39,0-.7,.32-.7,.7v9.66c0,.39,.31,.7,.7,.7h8.52c.39,0,.7-.32,.7-.7v-9.66c0-.39-.32-.7-.7-.7"/><path class="f" d="M46.35,19.2h-6.44c-.15,0-.27,.12-.27,.27v1.61c0,.15,.12,.27,.27,.27h6.44c.15,0,.27-.12,.27-.27v-1.61c0-.15-.12-.27-.27-.27"/></g><rect class="f" x="39.9" y="22.17" width="1.6" height="1.21"/><polygon class="f" points="42.27 23.38 42.33 23.38 43.93 23.38 43.93 22.12 42.27 22.12 42.27 23.38"/><rect class="f" x="44.75" y="22.17" width="1.6" height="1.21"/><rect class="f" x="39.9" y="24.21" width="1.6" height="1.21"/><rect class="f" x="42.33" y="24.21" width="1.6" height="1.21"/><polygon class="f" points="44.75 26.42 44.75 26.42 44.75 27.45 46.36 27.45 46.36 26.42 46.36 26.24 46.36 24.21 44.75 24.21 44.75 26.42"/><rect class="f" x="39.9" y="26.24" width="1.6" height="1.21"/><rect class="f" x="42.33" y="26.24" width="1.6" height="1.21"/><g><path class="f" d="M15.48,24.71c-.03-.08-.1-.13-.18-.13h-3.43c-1.6,0-2.89,1.3-2.89,2.89v1.28c0,.24,.19,.43,.43,.43h7.27c.12,0,.21-.12,.18-.24l-1.38-4.24Z"/><path class="f" d="M13.35,28.95c-.04,.12,.05,.24,.18,.24h7.27c.24,0,.43-.19,.43-.43v-1.28c0-1.6-1.3-2.89-2.89-2.89h-3.43c-.08,0-.15,.05-.18,.13l-1.38,4.24Z"/><path class="f" d="M15.22,23.51c1.96,0,3.55-1.59,3.55-3.55s-1.59-3.55-3.55-3.55-3.55,1.59-3.55,3.55,1.59,3.55,3.55,3.55"/></g></g></g></g></svg>