<?xml version="1.0" encoding="UTF-8"?><svg xmlns="http://www.w3.org/2000/svg" viewBox="0 0 50.99 60"><defs><style>.e{fill:#eda680;}.f{fill:#7fd2f2;}.g{fill:#231f21;}.h{fill:#414042;}.i{fill:#6f6f71;}</style></defs><g id="a"/><g id="b"><g id="c"><g id="d"><path class="e" d="M20.2,24.2c-.76,0-1.45-.5-1.66-1.26l-2.05-7.36c-.12-.43-.07-.88,.14-1.27l3.97-7.49c.45-.84,1.49-1.17,2.34-.72,.84,.45,1.16,1.49,.72,2.34l-3.65,6.88,1.86,6.69c.26,.92-.28,1.87-1.2,2.13-.15,.04-.31,.06-.46,.06Z"/><path class="h" d="M35.07,25.51c-.77,0-1.4-.61-1.42-1.38-.07-2.3-3.83-3.27-7.51-3.22-4.82,.07-8.71,1.8-8.71,3.18,0,.79-.64,1.42-1.42,1.42s-1.42-.64-1.42-1.42c0-3.84,5.79-5.94,11.51-6.02,6.32-.12,10.29,2.2,10.4,5.98,.02,.78-.59,1.44-1.38,1.46h-.04Z"/><polygon class="e" points="33.51 19.01 33.89 16.96 32.23 7.62 32.12 3.65 19.8 3.65 19.8 8.13 19.8 20.74 33.51 19.01"/><path class="e" d="M21.77,25.61c-.78,0-1.49-.53-1.68-1.33l-.93-3.91c-.02-.07-.03-.15-.04-.23l-.51-5.06c-.1-.95,.6-1.8,1.55-1.89,.95-.1,1.8,.6,1.89,1.55l1.5,4.95-.1,3.8c.22,.93-.35,1.86-1.28,2.08-.13,.03-.27,.05-.4,.05Zm3.5,0c-.88,0-1.63-.67-1.72-1.56l-.62-6.28c-.09-.95,.6-1.8,1.55-1.89,.96-.1,1.8,.6,1.89,1.55l.12,1.24,.04-4.52c-.03-.95,.73-1.75,1.68-1.77,.94-.06,1.75,.73,1.77,1.68l.1,3.85,.29-1.09c.08-.95,.87-1.66,1.86-1.59,.95,.07,1.66,.91,1.59,1.86l-.41,5.28c-.08,.95-.86,1.67-1.86,1.59-.57-.04-1.05-.36-1.33-.81h0c.03,.96-.73,1.76-1.68,1.78-.66,.03-1.25-.34-1.55-.88-.08,.8-.72,1.46-1.55,1.54-.06,0-.11,0-.17,0Z"/><rect class="f" x="19.21" width="13.44" height="4.35"/><path class="i" d="M17.28,26.72v-2l-2.63-1.07s-4.63,1.07-4.63,3.07h7.27Z"/><path class="i" d="M33.71,26.72v-2l2.63-1.07s4.63,1.07,4.63,3.07h-7.27Z"/><path class="g" d="M2.5,37.65H48.5c1.38,0,2.5,1.12,2.5,2.5v17.36c0,1.38-1.12,2.5-2.5,2.5H2.5c-1.38,0-2.5-1.12-2.5-2.5v-17.35c0-1.38,1.12-2.5,2.5-2.5Z"/><path class="h" d="M2.5,26.54H48.5c1.38,0,2.5,1.12,2.5,2.5v11.65c0,1.38-1.12,2.5-2.5,2.5H2.5c-1.38,0-2.5-1.12-2.5-2.5v-11.65c0-1.38,1.12-2.5,2.5-2.5Z"/><rect class="i" x="22.11" y="40.86" width="6.76" height="7.38" rx=".71" ry=".71"/><rect class="g" x="23" y="41.69" width="4.99" height="2.98"/><rect class="g" x="23" y="45.62" width="4.99" height="1.78"/></g></g></g></svg>