<?xml version="1.0" encoding="UTF-8"?><svg id="Layer_2" xmlns="http://www.w3.org/2000/svg" viewBox="0 0 275.93 428.04"><defs><style>.cls-1{fill:#f7a881;}.cls-2{fill:#f68e80;}.cls-3{fill:#eb1b2e;}.cls-4{fill:#e7eee3;}.cls-5{fill:#e8896c;}.cls-6,.cls-7{fill:#fff;}.cls-8{fill:#ed1d25;}.cls-9{fill:#fbefdd;}.cls-10{fill:#fce5d5;}.cls-11{fill:#975414;}.cls-12{fill:#ba732e;}.cls-13{fill:#bf2030;}.cls-14{fill:#ddd;}.cls-15{fill:#d1ac87;}.cls-16{fill:#23201f;}.cls-17{fill:#363636;}.cls-18{fill:#1a1a1a;}.cls-19{fill:#6f6f6f;}.cls-20{fill:#391716;}.cls-21{fill:#3a6c8b;}.cls-22{fill:#603721;}.cls-23{fill:#7598c2;}.cls-7{opacity:.34;}.cls-7,.cls-24{isolation:isolate;}.cls-24{fill:#efe4da;opacity:.5;}</style></defs><g id="Assets"><g id="illustration_man_and_employer_2022"><g id="Layer_1-2"><path class="cls-6" d="m164.87,83.41s-18.61,33.31-19.83,33.68c-1.22.38-22.62-27.93-26.01-32.2,0,0-3.73,12.56-7.39,24.08,0,0,21.79,40.37,31.5,43.09,11.58,3.25,22.26-13.98,27.54-22.42s-5.81-46.23-5.81-46.23h0Z"/><path class="cls-10" d="m112.07,101.21s-1.51,5.65-.43,7.76c1.08,2.12,2.49-3.18,2.49-3.18l-2.06-4.58h0Z"/><path class="cls-1" d="m114.12,105.79s7.22-13.97,6.16-17.96-6.55-10.31-7.4-15.89c-.86-5.58-2.2-5.74-3.83-4.76-1.63.98-.8,5.3,0,7.6s-8.93-2.19-15.08-4.59c-6.15-2.4-6.21,1.32-5.12,1.8s10.39,4.83,10.39,4.83c0,0-11.96-4.08-14.33-3.58s-1.97,2.33-.91,3.63c1.06,1.3.33,2.16,1.84,3.74,1.51,1.59,9.2,5.41,11.81,6.75,0,0-5.09-1.1-8.23-2.4s-2.81,2.24.41,3.91c3.22,1.67,16.81,6.38,18.48,6.63,1.67.24,5.82,10.29,5.82,10.29h0Z"/><path class="cls-10" d="m141.66,112.88c2.43,2.91,4.98,5.71,7.65,8.4.54.55-.3,1.39-.84.84-2.67-2.69-5.22-5.5-7.65-8.4-.49-.59.35-1.43.84-.84Z"/><path class="cls-5" d="m108.07,75.53c.35-.68,1.38-.08,1.03.6-1.65,3.15-1.78,7.02-.32,10.26.31.7-.71,1.3-1.03.6-1.65-3.65-1.55-7.91.32-11.46h0Z"/><path class="cls-5" d="m101.54,75.65c.52-.57,1.36.28.84.84-2.65,2.91-2.57,7.11-2.49,10.8.02.77-1.18.77-1.19,0-.09-4.04-.05-8.47,2.83-11.64h0Z"/><path class="cls-6" d="m164.87,83.41s5.06-10.58,16.19-12.3l9.87,46.83-28.18,23.29,2.12-57.82h0Z"/><path class="cls-1" d="m233.94,377.17c-2.31-4.29-7.4-11.44-8.78-16.2-1.39-4.76-4.16-32.4-6.01-42.4-1.85-10.01-7.86-26.2-11.55-31.44-1.85-2.63-4.52-8.86-6.73-14.41-4.7,12.92-9.49,25.82-12.97,39.15,4.86,14.15,10.01,28.08,13.69,35.29,9.24,18.1,14.79,31.92,15.71,36.21s3.7,28.11,8.32,30.97c4.62,2.86,10.74-32.67,8.32-37.16h0Z"/><path class="cls-5" d="m198.76,267.27c-1.09-2.9-1.8-4.91-1.8-4.91l-23.11,6.19s5.41,17.71,11.84,36.83c3.73-12.92,8.52-25.47,13.07-38.11Z"/><path class="cls-6" d="m215.87,427.04c-1.55-.17-2.75-.94-3.43-2.48-1.15-2.62-.28-8.16,2.44-16.15,2.21-6.46,1.74-12.43,1.54-14.48-.59-6-.34-7.53.72-8.69.89-.41,1.81-.76,2.74-1.05,1.68-.51,2.73-.39,4.35.28,1.05.44,2.16.71,3.3.8.72.06,1.48.04,2.12-.32,3.33-1.87,2.23-8.05,1.72-11.04-.04-.23-.08-.48,0-.7.08-.22.34-.39.56-.29.1.05.17.14.23.23,1.59,2.29,2.63,4.98,4.84,6.79,1.26,1.03,2.63,2.44,3.07,4.05,1.86,6.28-9.85,44.62-24.2,43.02h0Z"/><path class="cls-14" d="m215.87,427.04c-1.55-.18-2.75-.94-3.43-2.48,1.54.94,5.72-.24,9.07-2.87,5.22-4.12,11.19-15.63,11.48-18.99.29-3.35.02-4.74.48-8.58.23-1.9,3.34-10.01,2.59-14.91,2.09,1.44,5.43,4.95,5.98,6.81,1.86,6.27-11.24,42.79-26.17,41.02h0Z"/><path class="cls-1" d="m184.02,272.36s-9.24,110.53-12.94,120.06c-3.7,9.53-12.58,21.94-12.58,21.94l28.29-.03s-2.31-12.86-1.85-16.67c.46-3.81,22.19-53.84,24.04-71.46,1.85-17.63,0-20.96,1.85-26.2s6.93-21.44,9.71-34.78c2.77-13.34-36.51,7.15-36.51,7.15h0Z"/><path class="cls-2" d="m189.1,426.72s-44.37,1.91-53.16,0c-.98-.22-1.3-1.35-.68-3.07.59-1.64,1.62-3.37,2.52-4.07,1.85-1.43,12.94-4.29,16.64-7.62,3.7-3.34,6.93-8.1,9.71-9.05,2.77-.95,5.08.48,6.01.95s3.7,5.72,6.93,6.19,6.47-3.81,8.32-3.34c1.15.3,2.83,5.91,3.72,11.5.54,3.42.33,6.35-.02,8.51h0Z"/><path class="cls-6" d="m189.56,427.19s-45.3,1.91-54.08,0c-.98-.22-.84-1.83-.21-3.55,4.06.24,27.97.42,30.55-.46,2.77-.95,5.72-2.38,8.58-3.34,1.9-.63,11.01-1.74,14.73-1.65.54,3.42.8,6.82.44,8.99h0Z"/><path class="cls-23" d="m235.09,194.96c-.67,14.31-12.65,74.81-14.96,76.24-.2.12-.55.28-1.05.45-2.63.95-9.23,2.58-17.21,3.55-.66.08-1.32.16-1.99.23-1.38.14-2.78.27-4.21.36-3.91.27-7.97.32-11.94.04-2.72-.2-5.4-.54-7.95-1.09-.3-.07-.6-.13-.9-.21,0,0-12.39-50.5-13.74-77.41-.02-.4,0-.8,0-1.21v-.47c.02-14.58,4.22-40.01,7.08-49.07l47.16,5.85,10.49,1.3c1.52,3.91,2.85,7.71,3.99,11.36,3.87,12.36,5.59,22.97,5.26,30.08h0Z"/><path class="cls-21" d="m224.91,164.38h0c-.3,0-.51.28-.44.57,2.74,11.78,3.4,23.9,2.25,36.03-.69,7.29-1.81,14.54-2.84,21.78-1.03,7.18-2.09,14.36-3.31,21.51-1.39,8.15-2.98,16.27-4.93,24.3-.15.62.79.85.94.23,3.57-14.49,5.89-29.26,8-44.04,2.08-14.52,4.54-29.15,3.37-43.88-.43-5.45-1.3-10.84-2.57-16.15-.05-.22-.25-.37-.47-.36h0Z"/><path class="cls-6" d="m181.06,71.11s-3.34,13.81-9.53,22.39c-6.19,8.58-7.15,13.81-6.19,18.1s5,15.96,3.1,20.25c-1.91,4.29-5.31,4.06-5,7.39.24,2.62,3.34,9.53,4.29,9.53s20.01,0,30.97,1.91c10.96,1.91,27.63,6.19,28.11,5.72,1.21-1.21,3.34-7.15,2.38-9.05-.95-1.91-4.29-10.01-4.29-15.24s23.34-47.16,22.87-50.02c-.48-2.86-4.29-8.1-10.96-10.96s-12.62-8.34-12.62-8.34l-43.11,8.34Z"/><path class="cls-10" d="m171.84,94.77c3.73-5.7,7.89-11.5,8.42-18.52.07-.88-1.43-1.1-1.56-.21-1.15,8.07-6.4,14.11-10.44,20.88-4.01,6.74-5.5,13.39-3.32,21.05.33,1.17,2.17.67,1.83-.51-1.24-4.34-1.52-8.58-.08-12.91,1.17-3.51,3.14-6.7,5.15-9.78h0Z"/><path class="cls-19" d="m213.4,29.69s8.7-12.18,18.91-2.53c10.21,9.65-3.47,17.98-3.47,17.98,0,0,2.42,6.46-4.46,8.74s-15.68-8.02-15.68-8.02c0,0,2.9-8.16,4.7-16.18h0Z"/><path class="cls-6" d="m213.46,44.91s6.87.82,9.63,4.46.85,6.97,1.81,8.4c.95,1.43,5.72,3.34,4.76,7.62-.95,4.29-15.26,17.34-29.06,18.1-17.15.95-10.48-24.77-9.05-27.63s6.67-7.62,11.44-9.05c4.76-1.43,10.48-1.91,10.48-1.91h0Z"/><path class="cls-20" d="m200.12,53.01s-5.03,2.21-4.18,9.68c.85,7.47,10.85-1.58,10.85-1.58l-6.67-8.1h0Z"/><path class="cls-10" d="m224.65,57.52c-.04,2.96-1.17,5.03-2.6,7.51-.48.82.34,1.43,1.02.76,2.18-2.12,3.3-5.33,3.26-8.27-.01-1.08-1.67-1.08-1.68,0Z"/><path class="cls-10" d="m227.75,67.3c-1.35,4.48-6.51,7.06-10.27,9.45-3.94,2.51-8.24,4.47-12.82,5.46-4.95,1.07-9.45.61-12.4-3.98-2.8-4.36-2.79-10.31-2.15-15.22.12-.9-1.08-.63-1.21.27-.84,5.4-1.27,11.41,1.93,16.18,2.73,4.07,6.81,5.67,11.6,5.04,5.59-.73,10.91-2.92,15.67-5.9,4.11-2.57,9.65-6.06,10.65-11.17.21-1.09-.68-1.22-1-.13h0Z"/><path class="cls-19" d="m234.16,23.23c-4.41-3.15-8.57-2.69-11.98-1.06h0c-1.99.96-3.72,2.31-5.1,3.59-.9.83-1.65,1.62-2.22,2.24-.01.02-.03.04-.05.05-.12.13-.23.26-.34.37-.17.19-.35.39-.49.52,0,0,0,0,0,.01,0,0,0,0,0,.01,0,0-.01,0-.01.01-.05.04-.08.08-.11.11-.16.07-.2-.09-.26.08-.04.1-.05.21-.03.31h0c.03.24.19.41.52.23.48.17.64.19,1.46-.71.52-.57,1.26-1.37,2.2-2.23h0c1.12-1.03,2.5-2.15,4.08-3.04l.09-.05h0c.16-.1.34-.19.52-.28,3.85-1.97,7.54-1.65,11,.82.29.21.69.18.89-.11.21-.29.13-.68-.16-.89h0Z"/><path class="cls-19" d="m196.94,26.5s-11.8-4.73-13.14-11.45c-1.35-6.76,2.66-9.17,8.4-11.24,3.21-2.28,12.69-6.83,22.1-.86,11.02,6.99,10.52,20.31,1.13,36.41-3.18,5.44-18.49-12.86-18.49-12.86h0Z"/><path class="cls-1" d="m217.87,58.48c-1.82-5.29-3.02-10.63-3.87-16.15-.7-4.51-1.83-9.04-2.34-13.6-3.27,1.63-6.64,3.05-10.03,4.41-1.66.66-3.32,1.31-4.99,1.95.53,1.59.83,3.24,1.11,4.92.42,2.52,1.09,5,1.4,7.54.24,1.99.2,3.96-.11,5.86-.18,2.33-1,5.22-3.22,8.17,0,0-.02.87.07,2.17.23,3.16,1.18,8.85,4.93,10.46,3.34,1.43,9.21-6.83,10.96-8.58.67-.67,1.26-1.28,1.8-1.84,3.1-3.26,4.1-4.8,4.33-5.2-.02-.04-.04-.07-.05-.12h0Z"/><path class="cls-5" d="m209.43,30.22l-12.28,6.66c.24,1.03.43,2.07.61,3.13.42,2.52,1.09,5,1.4,7.54.2,1.72.21,3.41,0,5.06,13.69-4.77,10.27-22.39,10.27-22.39h0Z"/><path class="cls-1" d="m184.89,22.5c.06,2.61-2.87,21.28,8.14,24.35,5.48,1.53,13.66-1.65,17.65-7.28,1.33-1.87,1.21-2.49,2.43-4.81,0,0,5.92.2,5.05-6.44-.42-3.25-3.44-4.83-5.3-3.28-1.54,1.27-2.55,3.25-2.55,3.25,0,0-2.11-2.55-3.22-6.68-.17-.65-.73-1.12-1.4-1.19-5.42-.58-15.62-2.37-18.33-6.36,0,0-2.56,4.99-2.49,8.43h0Z"/><path class="cls-18" d="m197.18,27.71c.24-.2.51-.27.8-.18.03,0,.07.01.1.02.01,0,.02,0,.04,0s.02,0,.03.02c.99.31,1.16,1.85.63,2.58-.07.19-.18.35-.35.43-.17.08-.37.09-.56.04-.02,0-.03.01-.05.01-.47,0-.78-.35-.92-.82-.39-.69-.25-1.64.31-2.1h0Z"/><path class="cls-18" d="m184.48,26.18c.45-.52,1.25-.45,1.74.15.04.05.08.11.11.17.12.19.18.42.15.65,0,.03,0,.05,0,.08v.03c-.08.39-.18.79-.42,1.08-.48.57-1.33.28-1.72-.4-.34-.59-.23-1.33.15-1.77h0Z"/><path class="cls-5" d="m187.13,33.63c.08-.39.47-.61.83-.47.36.14.72.28,1.08.42.37.14.61.59.52.98-.08.39-.47.61-.83.47-.36-.14-.72-.28-1.08-.42-.37-.14-.61-.59-.52-.98Z"/><path class="cls-19" d="m196.25,21.32c.75.62,1.56,1.12,2.29,1.79.73.68,1.39,1.45,2.11,2.15.64.63-.1,1.69-.74,1.05-.71-.71-1.37-1.47-2.11-2.15-.72-.66-1.54-1.17-2.29-1.79-.69-.58.05-1.63.74-1.05Z"/><path class="cls-19" d="m184.02,22.72c.45-.67,1.05-.94,1.76-1.2.74-.28,1.36,1.02.61,1.31-.47.18-.97.3-1.27.75-.46.69-1.56-.16-1.1-.85h0Z"/><path class="cls-6" d="m189.46,39.26s4.32.61,5.96.34c0,1.29-.78,5.2-2.88,4.9-2.72-.39-3.08-5.23-3.08-5.23Z"/><path class="cls-10" d="m213.59,63.8c-.53.56-9.18,12.55-12.51,11.12-3.75-1.61-5.24-6.67-5.17-11.17.73,1.02,2.85,3.24,7.31,2.84,3.82-.35,7.89-1.71,10.37-2.79h0Z"/><path class="cls-6" d="m254.14,156.4c.16.33,1.94.38,2.23.41,2.1.2,4.24-.03,6.27-.55,4.76-1.22,9.48-3.48,11.75-8.07,1.75-3.54,1.8-7.71,1.11-11.61-1.38-7.84-4.2-15.7-6.91-23.16-3.44-9.47-7.75-18.7-13.83-26.79-2.86-3.8-6.72-7.44-10.34-10.54-2.4-2.04-5.62-4.76-8.99-4.66-4.95.14-5.23,11.54-5.35,14.72-.32,8.89-3.5,11.53-.77,19.83,1.98,6.04,11.27,17.3,12.86,23.46,1.46,5.64,3.68,10.35,6.26,15.55,1.9,3.81,3.81,7.61,5.7,11.42h0Z"/><path class="cls-24" d="m239.26,72.47c-5.42,3.53-7.52,10.44-8.91,16.64-.04.16-.14.27-.26.31-.26.11-.62-.04-.56-.4.16-.95.34-1.93.57-2.9,1.26-5.42,3.71-10.93,8.17-14.11l.99.45h0Z"/><path class="cls-15" d="m172.82,142.13s.26,4.23,2.05,4.97c1.79.74,3.89-2.31,3.21-4.01-.68-1.71-5.26-.96-5.26-.96Z"/><path class="cls-4" d="m106.48,398.89s-3.01,19.33-2.62,21.7c.39,2.37,9.27,1.8,9.27,1.8,0,0,16.96,2.41,30.38,2.44,13.42.04,14.01-1.35,14.21-1.94.13-.39.09-2.19.05-3.35-.02-.6-.4-1.12-.97-1.33-3.63-1.3-16.83-6.17-19.37-8.9-2.95-3.16-14.37-15.52-14.37-15.52l-16.59,5.09h0Z"/><path class="cls-6" d="m143.51,424.83c13.42.04,14.01-1.35,14.21-1.94.13-.39.09-2.19.05-3.35-.02-.6-.4-1.12-.97-1.33-3.63-1.3-16.83-6.17-19.37-8.9-1.04-1.12-3.14-3.38-5.41-5.84-1.18-.47-2.38-.6-4.6.35-5.16,2.21-4.38,6.25-6.12,6.64-1.22.27-12.82-3.14-15.66-5.08-.08.5-.21,1.07-.36,1.69-.79,5.58-1.63,12.17-1.41,13.5.39,2.37,9.27,1.8,9.27,1.8,0,0,16.96,2.41,30.38,2.44h0Z"/><path class="cls-14" d="m157.72,422.89c-.2.59-.8,1.97-14.21,1.94-13.42-.04-30.38-2.44-30.38-2.44,0,0-8.88.57-9.27-1.8-.1-.6.02-2.31.26-4.52,5.01,2.02,7.21.56,11.13,1.54,4.47,1.12,9.3.74,22.33,1.67,13.03.93,20.19.26,20.19.26.04,1.16.08,2.95-.05,3.35h0Z"/><path class="cls-4" d="m35.36,403.69s-2.6,15.58-2.21,17.95,9.27,1.8,9.27,1.8c0,0,6.9,2.39,20.31,2.42,13.42.04,14.01-1.35,14.21-1.94.14-.4.09-2.24.05-3.39-.02-.6-.3-1.16-.77-1.54-2.15-1.74-8.45-6.9-10.88-9.5-2.95-3.16-12.98-14.63-12.98-14.63l-16.99,8.83h0Z"/><path class="cls-6" d="m76.94,423.92c.14-.4.09-2.24.05-3.39-.02-.6-.3-1.16-.77-1.54-2.15-1.74-8.45-6.9-10.88-9.5-.85-.91-2.28-2.51-3.9-4.32-1.78-.87-4.56-1.66-7.6-.36-5.16,2.21-8.26,6.08-10.01,6.48-1.22.27-6.08-2.88-8.91-4.83-.73,4.59-2.05,13.44-1.77,15.18.39,2.37,9.27,1.8,9.27,1.8,0,0,6.9,2.39,20.31,2.42,13.42.04,14.01-1.35,14.21-1.94h0Z"/><path class="cls-14" d="m42.41,423.44s-8.88.57-9.27-1.8c-.12-.7.03-2.54.29-4.78,3.59,2,6.4,1.31,8.38,1.49,2.05.19,7.26,2.42,17.68,2.79,9.62.34,16.41-.92,17.4-1.12.05.16.08.33.09.51.04,1.15.08,2.99-.05,3.39-.2.59-.8,1.97-14.21,1.94-13.42-.04-20.31-2.42-20.31-2.42h0Z"/><path class="cls-17" d="m96.86,173.05s33.47,222.54,33.95,225.91-17.76,9.85-26.71,8.03c-3.42-.7-27.09-141.39-28.49-149.55-1.4-8.16-5.45-28.91-5.45-28.91,0,0-6.25,69.13-6.06,109.04.2,39.9.22,63.23.22,63.23,0,0-.26,2.34-29.65,6.07-1.57-.9-7.13-206.89-3.39-233.81,3.74-26.91,65.58,0,65.58,0h0Z"/><path class="cls-18" d="m72.2,207.15c1.52-10.52,2.85-21.06,3.99-31.63.32-2.99.63-5.98.92-8.97.09-.88,1.47-.89,1.38,0-1.04,10.68-2.28,21.33-3.71,31.96-.11.79-.22,1.58-.33,2.37.55-.46,1.16-.84,1.78-1.24.98-.62,1.73-1.39,2.28-2.41.55-1.01.89-2.12,1.2-3.23.4-1.42.78-2.85,1.17-4.28l4.76-17.4c.9-3.29,1.8-6.58,2.7-9.87.24-.86,1.57-.49,1.34.37-1.62,5.91-3.24,11.82-4.86,17.74-.79,2.88-1.58,5.77-2.37,8.65-.71,2.61-1.26,5.37-2.34,7.86-.51,1.17-1.21,2.27-2.21,3.08s-3.13,2.3-3.73,2.63c-.22,1.58-.43,3.16-.66,4.74-.13.88-1.46.51-1.34-.37h0Z"/><path class="cls-18" d="m43.35,179.85c-.39-1.14-2.21-.65-1.82.5,2.54,7.46.56,16.1-4.63,21.98-1.49,1.69-3.22,3.12-5.17,4.25-1.05.61-.1,2.23.95,1.63,7.4-4.29,11.9-12.78,11.84-21.27-.02-2.4-.41-4.81-1.18-7.09h0Z"/><path class="cls-18" d="m100.18,365.56c-1.58-7.94-4.99-31.19-5.48-34.58-.48-3.33-1.07-6.67-1.26-10.03-.1-1.68-.09-3.38.17-5.05.24-1.59.78-3.05,1.31-4.56.83-2.36.87-4.57-.99-6.4-1.42-1.4-3.93-2.51-4.15-4.73-.16-1.57.78-3.01,1.11-4.5.31-1.4.13-2.81-.2-4.19-.79-3.24-1.78-6.44-2.63-9.66-.85-3.24-1.67-6.5-2.45-9.75-1.59-6.58-13.05-46.5-13.33-48.12-.11-.6-1.08-.33-.91.25,3.98,13.49,13.52,49.7,17.06,62.64.45,1.63.95,3.25,1.35,4.9.44,1.8.38,3.36-.23,5.1-.42,1.19-.88,2.4-.67,3.69.16.96.68,1.77,1.35,2.45,1.46,1.51,3.95,2.56,4.33,4.83.27,1.62-.54,3.22-1.06,4.71-.48,1.38-.78,2.81-.92,4.27-.31,3.1.08,6.21.51,9.28.47,3.37.97,6.74,1.45,10.11.98,6.85,1.97,13.7,2.95,20.54,1.96,13.63,6.65,27.74,6.89,29.4.09.6,1.05.33.91-.25-2.15-8.59-3.73-13.63-5.08-20.35h0Z"/><path class="cls-3" d="m102.43,76.05s15.77,36.44,16.91,42.14c.81,4.07,42.8,20.75,43.05,21.18s-13.48,20.62-13.15,23.36c.58,4.84-46.82-16.16-51.37-22.44-1.32-1.83-14.37-25.48-14.34-33.63.08-19.89,15.97-32.73,18.9-30.62h0Z"/><path class="cls-13" d="m115.02,113.06c.24-.24.75-.29.98,0,2.49,3.21,5.44,6.02,8.79,8.31.73.5.04,1.7-.7,1.2-3.45-2.36-6.52-5.23-9.08-8.53-.23-.3-.28-.69,0-.98Z"/><path class="cls-3" d="m37.9,50.75c1.05-.27,2.05-.69,3.14-.93,1.87-.42,3.72-.88,5.59-1.31,1.55-.35,3.18-.6,4.83-.71.59,0,1.19-.02,1.81-.04,1.35-.05,2.61.14,3.92.42,2.95.64,5.86,1.46,8.73,2.38,2.86.91,5.92,1.77,8.57,3.18,2.21,1.17,4.19,2.63,6.51,3.58-.03.03-.05.04-.05.04,0,0,14.71,12.31,20.76,18.21,6.05,5.9-7.37,30.92.42,72.86,4.25,22.87-2.31,24.99-4.92,26.52-2.61,1.52-63.54-2.04-70.26-10.58-6.66-8.46,10.65-111.8,10.95-113.62h0Z"/><path class="cls-3" d="m37.91,50.72s-7.68,3.56-18.93,11.06C7.71,69.27,1.74,124.54.24,133.92c-1.5,9.37,4.5,24.62,4.87,28.05.37,3.43,7.12,28.39,7.12,37.34,0,8.95,24.73-2.78,24.73-2.78,0,0,1.98-1.87-.18-11.44-2.16-9.56-1.41-28.89,1.59-64.01,3-35.12-.46-70.36-.46-70.36h0Z"/><path class="cls-13" d="m30.44,114.2c.17,1.71.35,3.43.53,5.14,1.43-8.14,2.62-16.31,3.58-24.51.33-2.79.62-5.58.89-8.37.08-.88,1.47-.89,1.38,0-.97,9.95-2.27,19.87-3.91,29.73-.45,2.7-.93,5.41-1.43,8.1.49,4.6.99,9.2,1.52,13.8.92,7.96,1.91,15.9,2.96,23.84.6,4.48,1.21,8.95,1.85,13.42.05.37-.09.74-.48.85-.33.09-.8-.11-.85-.48-1.13-7.95-2.2-15.91-3.2-23.88-1.01-8.02-1.94-16.05-2.81-24.09-.49-4.51-.96-9.03-1.4-13.54-.09-.89,1.3-.88,1.38,0h0Z"/><path class="cls-13" d="m30.53,74.13c1.02,2.5,1.77,5.1,2.24,7.76.1.58-.78.84-.89.26-1.45-8.11-5.55-15.62-11.45-21.34.26-.17.52-.34.78-.51,4,3.91,7.19,8.64,9.3,13.83h0Z"/><path class="cls-9" d="m99,112.34c.23-5.28.71-10.54,1.42-15.77.05-.37.52-.57.85-.48.4.11.53.48.48.85-1.27,9.28-1.54,18.63-1.24,28,.15,4.69,1.14,8.73,1.61,14.01.11,1.18-1.35,1.62-1.54-.05-1.09-9.29-1.99-17.21-1.59-26.56h0Z"/><path class="cls-13" d="m101.78,75.64c.33.34.61.8.87,1.36-.27,4.67-1.16,9.31-2.68,13.74-.19.56-1.08.32-.89-.24,1.64-4.8,2.54-9.81,2.7-14.86h0Z"/><path class="cls-16" d="m58.81,8.83c-.69-1.7-.53-3.75.6-5.24.23-.3.6-.45.95-.25.29.17.48.65.25.95-.81,1.07-1.03,2.49-.64,3.73.13-.73.84-2.96,4.82-4.24,4.81-1.55,9.54-4.66,16.83-1.9s8.9,8.27,10.6,8.62,5.15,2.07,4.46,7.5c-.69,5.43-5.33,15.95-12.14,16.81-6.81.86-23.4,3.22-23.4,3.22,0,0-5.12-4.19-6.23-10.15-2.4-12.93,1.38-17.48,3.91-19.06h0Z"/><path d="m85.57,30.62l6.36,2.5.5-2.68-7.55-1.41s.41,1.33.69,1.59h0Z"/><path class="cls-12" d="m60.59,36.75s-1.87,9.19-4.33,11.93c.39,1.41,4.37,9.82,15.87,8.21,0,0,2.63-10.19,4.1-15.85,1.46-5.65-15.64-4.29-15.64-4.29h0Z"/><path class="cls-11" d="m72.47,55.55s-.07-.02-.11-.02c-4.17-.99-8.22-3.27-9.82-7.47-.8-2.1-.98-4.37-1.11-6.59-.1-1.59-.24-3.18-.52-4.75,2.36-.15,16.65-.87,15.31,4.31-1.14,4.41-2.99,11.57-3.75,14.51h0Z"/><path class="cls-12" d="m54.31,26.22c.3-3.75,3.25-5.39,4.78-4.75.63.26,1.88,1.6,2.62,3.11.61,1.24.18,1.82,1.71,1.8.69,0,1.19-.43,1.81-.65.55-.2,2.27-2.95,2.82-3.14,3.28-1.13,6.54-5.01,7.09-6.87.69.06,2.72,2.9,8.12,2.42.92-.08,3.96-.12,4.4.26.32.27.99,1.07,1.64,5.65-.03,2.58-.2,5.16-.28,6.3,0,.03,0,.07,0,.11,0,.07,0,.13,0,.2-.06,1.71.09,6.08-1.55,9.68-1.1,3.82-2.79,7.11-5.21,8.83-7.66,5.45-15.38,1.22-18.7-4.05-1.6-2.54-2.87-6.7-3.49-11.43h0s-1.36,1.64-3.59.39c-2.23-1.25-2.47-4.1-2.17-7.86h0Z"/><path class="cls-16" d="m72.2,25.7c2.08-.76,3.2-.86,5.3-1.54.85-.27,1.21,1.06.37,1.34-2.11.68-3.22.78-5.3,1.54-.35.13-.76-.14-.85-.48-.11-.39.13-.72.48-.85h0Z"/><path class="cls-16" d="m86.88,26.1c.27-.25.71-.28.98,0,.63.66,1.26,1.32,1.89,1.97.25.26.28.72,0,.98-.27.25-.71.28-.98,0-.63-.66-1.26-1.32-1.89-1.97-.25-.26-.28-.72,0-.98Z"/><path class="cls-16" d="m86.74,31.97c.05-.3.17-.6.34-.85.08-.12.19-.23.33-.26.15-.04.27,0,.42.05.03.01.06.03.09.05.11.01.22.06.31.14.24.23.38.54.41.86.05.23.04.46-.05.69,0,.11,0,.22-.04.32-.13.38-.49.65-.9.64-.43-.01-.77-.29-.9-.7-.09-.3-.07-.64-.02-.95h0Z"/><path class="cls-16" d="m74.48,31.25c-.04-.23-.03-.45.03-.68,0-.01,0-.02,0-.04.04-.31.14-.6.36-.84.22-.23.53-.39.85-.4.16,0,.35.04.49.13.21.13.34.33.42.56.05.16.06.35.08.52,0,.14.02.28,0,.42-.03.37-.14.74-.43.99-.15.13-.32.24-.52.28-.03,0-.05,0-.08,0-.02,0-.05,0-.07,0-.18,0-.36-.02-.53-.1-.32-.15-.57-.52-.62-.87h0Z"/><path class="cls-11" d="m79.42,37.43c0-.15.05-.31.15-.42.11-.11.24-.16.4-.17.36-.02.72-.04,1.08-.05.14,0,.3.08.4.18.1.11.18.28.18.43,0,.15-.05.31-.15.42-.11.11-.24.16-.4.17-.36.02-.71.04-1.08.05-.14,0-.3-.08-.4-.18-.1-.11-.18-.28-.18-.43Z"/><path class="cls-22" d="m62.41,26.16l6.88,3.1.5-2.68-8.06-2.01s.41,1.33.69,1.59h0Z"/><path class="cls-7" d="m69.77,26.55l-.5,2.68s-.39,2.03.17,3.61c.56,1.58,7.39,3.78,8.44,3.14,1.06-.65,2.24-7.68,1.84-8.4s-7.61-1.91-8.34-1.97c-1.58-.14-1.61.95-1.61.95h0Z"/><path class="cls-7" d="m92.51,30.87l-.57,2.67s-.42,2.02-1.54,3.26c-1.12,1.25-6.29,1-7.02,0-.73-1,.88-7.96,1.52-8.46.64-.5,5.78.81,6.48,1.04,1.51.48,1.12,1.49,1.12,1.49h0Z"/><path class="cls-22" d="m73.31,35.55c-1.12-.4-3.77-1.44-4.18-2.59-.59-1.65-.2-3.7-.19-3.79l.49-2.66c0-.13.07-.53.43-.86.36-.32.88-.45,1.55-.39.08,0,8.06,1.17,8.62,2.15.44.79-.68,8.08-1.96,8.86-.07.04-.15.07-.24.1-1.19.33-4.17-.7-4.53-.82h0Zm-2.97-9.38c-.19.17-.21.38-.22.4l-.5,2.73s-.36,1.95.16,3.43c.2.57,1.75,1.46,3.76,2.17,2.26.8,3.88.97,4.18.79.83-.51,2.05-7.13,1.73-7.91-.54-.57-7.09-1.73-8.09-1.82-.27-.02-.5,0-.69.04-.14.04-.24.09-.33.17h0Z"/><path class="cls-22" d="m86.31,37.97c-.61-.03-2.65-.2-3.21-.97-.88-1.21.88-8.38,1.59-8.93.9-.7,6.74.96,6.8.98.64.2,1.07.52,1.28.96.21.44.11.84.07.96l-.57,2.64c-.02.09-.45,2.12-1.63,3.43-.28.31-.74.53-1.29.69-.9.25-2.05.31-3.05.25h0Zm-1.19-9.37c-.62.61-2.03,7.2-1.46,7.99.2.28,1.19.61,2.69.69,1.77.1,3.33-.2,3.79-.71,1.05-1.16,1.46-3.08,1.46-3.11l.57-2.67v-.05s.09-.22-.03-.46c-.12-.24-.42-.45-.86-.59-1.23-.39-5.36-1.33-6.1-1.12-.02,0-.05.01-.06.02h0Z"/><path class="cls-22" d="m79.81,28.21h0l4.71.84h0c-.18.48-.38,1.15-.57,1.9,0,0-1.72-2.19-4.34-.63h0c.13-.85.2-1.6.2-2.12h0Z"/><path class="cls-6" d="m81.28,44.14l-8.05-2.28s-.77,5.2,3.62,6.14l4.43-3.86h0Z"/><path class="cls-12" d="m12.8,195.17s1.7-3.8,6.45-5.89c4.74-2.09,11.86-.84,14.23.84,2.37,1.67,3.91,3.35,3.49,6.42-.42,3.07-3.12,6.42-2.26,8.51.86,2.09,2.58,5.67-.13,5.3,0,0,3.97,1.85,1.64,4.85-1.24,1.59-5.62-1.17-5.62-1.17,0,0-3.56,2.42-5.55,1.17-1.98-1.26-3.95.49-5.91-.77-1.96-1.26-7.96-6.1-8.1-8.57s1.76-10.68,1.76-10.68h0Z"/><path class="cls-11" d="m34.02,209.21c-2.55,0-3.17-3.06-3.19-5.04-.03-2.78.2-5.57.52-8.33.1-.9-1.31-.9-1.41,0-.19,1.61-.33,3.23-.42,4.85-.08,1.56-.2,3.17-.04,4.73.25,2.47,1.72,5.21,4.54,5.2.91,0,.91-1.42,0-1.41h0Z"/><path class="cls-11" d="m28.86,212.69c-.8-.49-1.61-.98-2.29-1.64-.73-.71-1.11-1.51-1.34-2.5-.51-2.26-.93-4.54-1.4-6.8-.18-.89-1.55-.51-1.36.38.25,1.23.51,2.46.76,3.69.25,1.23.44,2.51.8,3.72.62,2.08,2.35,3.29,4.11,4.37.78.48,1.49-.75.71-1.22h0Z"/><path class="cls-11" d="m24.33,213.2c-.53-.56-1.23-.78-1.87-1.18-.67-.42-.96-1.27-1.26-1.96-.76-1.71-1.45-3.45-2.08-5.22-.3-.85-1.67-.48-1.36.38.67,1.88,1.41,3.73,2.22,5.55.35.78.69,1.62,1.37,2.18.61.5,1.45.68,1.98,1.26.62.66,1.62-.33,1-1h0Z"/><path class="cls-11" d="m26.58,194.9c-1.49-.64-3.21-.46-4.48.58-.31.26-.54.56-.79.87-.3.37-.58.48-1.05.54-.84.11-1.64.21-2.42.56-.7.32-1.31.83-1.67,1.51-.16.31-.24.73-.47,1-.26.3-.68.22-1.05.34-1.4.45-2.24,2.14-1.68,3.52.34.83,1.71.47,1.36-.38-.21-.51-.14-1.04.23-1.46.46-.52,1.19-.33,1.75-.68.55-.34.75-.94,1.01-1.49.28-.6.75-.97,1.37-1.2.63-.23,1.28-.27,1.94-.37.78-.11,1.31-.45,1.79-1.06.81-1.04,2.15-1.63,3.44-1.08.83.35,1.55-.86.71-1.22h0Z"/><path class="cls-13" d="m169.6,144.04s-1.28,7.1.61,7.43c1.9.34,5.45-9.95,5.36-12.46-.09-2.51-5.43,1.88-5.98,5.03h0Z"/><path class="cls-10" d="m203.85,138.99l6.64,7.82s-1.93,14.11-7.74,12.09c-5.81-2.02-5.94-19.63-4.63-21.27,1.67-2.11,5.72,1.36,5.72,1.36h0Z"/><path class="cls-12" d="m166.58,143.08l2.01-3.42s-3.62.88-6.2-.28c-2.58-1.17-12.48,16.69-12.48,16.69,0,0,3.32-.58,4.94,1.3,1.25,1.46,4.42,1.42,5.35,1.6.68.13,1.17.97,1.8,1.09,2.37.45,4.28.77,4.76.76,1.47-.05-.17-17.74-.17-17.74h0Z"/><path class="cls-1" d="m237.18,136.23s-35.86,1.81-42.63,2.73c-12.32,1.67-27.4,8.36-32.37,10.95-4.97,2.59-6.29,7.64-6.71,9.7-.42,2.07.66,1.94,3.7,1.29,3.04-.65.68,1.25,3.77,2.2,3.09.96,4.27.26,5.02,1.81s3.83.05,5.4.9c1.57.85.9,2.66,2.87,2.34s14.83-13.17,21.22-14.86c2.6-.69,8.42-1.4,8.42-1.4,0,0,35.8-15.5,31.32-15.67h0Z"/><path class="cls-12" d="m160.34,150.75s1.97-6.7,6.37-9.48c4.4-2.78,17.5-7.12,18.56-5.31s.47,5.47,1.64,6.65-1.55,4.62-4.47,2.07c-2.92-2.55-4.34-.76-5.22-1.23s-16.89,7.3-16.89,7.3h0Z"/><path class="cls-12" d="m180.34,166.52s-1.16-3.87-.57-4.97c.59-1.1,2.58-1.54,3.8.51,0,0-1.45-3.14-.31-5.02,1.13-1.88,3.36-1.22,4.81.39,0,0,.03-.82,1.37-2.58,1.35-1.76,3.73.64,4.28,1.91s-.37-3.39,1.94-3.66,3.39,3.06,2.99,4.58c-.41,1.53-3.04,1.9-3.04,1.9,0,0-.32,4.68-1.59,5.79s-2.31.27-2.55.97-.42,3.09-2.63,3.42c-2.21.33-3.21-1.61-3.73-.64-.52.97-2.14,3.27-3.74,2.96s-4.08-4.57-4.08-4.57l3.06-.99h0Z"/><path class="cls-11" d="m184.74,147.25c-1.11.05-3.7-1.61-4.2-2.74-.04.01-.08.03-.13.03-3.29.34-6.54,1.01-9.58,2.32-.13.06-.28.12-.43.19-2.47,1.1-3.33,1.67-3.78,1-.19-.29.27-.57,1.04-.98.91-.43,1.83-.86,2.76-1.26,3.02-1.3,6.15-2.31,9.41-2.63-.25-.42-.48-.87-.68-1.32-.13-.28-.09-.61.19-.79.24-.15.65-.1.78.19.82,1.87,1.84,3.65,3.93,4.18.36.09.79.14,1.13-.04.47-.24.53-.84.51-1.31-.06-1.06-.22-1.65.05-2.72.15-.61,1.05-.41.93.21s.07,1.23.21,1.83c.14.61.23,1.27.09,1.89-.28,1.22-1.08,1.92-2.24,1.96h0Z"/><path class="cls-5" d="m179.42,167c-.54.36-1.12.68-1.68.99-.62.35-1.3.67-2.03.59-1.51-.15-2.78-1.46-3.71-2.57-.01-.02-.02-.03-.04-.05h-.07c-1.12-.15-2.22.37-3.35.19-1.01-.16-1.7-.77-2.03-1.74-.16-.48-.25-.84-.82-.85-.52-.02-1.62.38-2.14.31-1.01-.14-1.2-.34-2-.91-.37-.27-.69-1.08-1.12-1.29h0s-.05-.02-.08-.03c-.01,0-.05,0-.06,0-.39-.04-.79,0-1.18.05-.79.09-1.58.27-2.38.19-.94-.09-1.96-.56-2.26-1.55-.18-.6.08-1.18.3-1.72.22-.52.46-1.03.73-1.52.31-.55.66-1.07,1.05-1.56.4-.49.85-.91,1.33-1.32.48-.41,1.05.19.67.69-.29.38-.54.8-.81,1.19-.29.42-.56.85-.82,1.29-.25.42-.48.86-.68,1.31-.09.19-.17.39-.25.58-.06.16-.22.44-.19.61.04.21.41.4.5.43.34.13.57.14.94.12.74-.03,1.44-.22,2.19-.29.59-.06,1.49-.04,2.06.33.34.11.64.3.8.65.75,1.56,1.38,1.28,2.32,1.27.9-.01,1.82-.25,2.5.51.32.35.41.82.58,1.26.2.51.62.73,1.15.8,1.11.14,2.99-1.66,4.35-.14.43.49.61,1.2,1.09,1.63.43.38.93.87,1.53.93.54.06,1.07-.23,1.53-.49.57-.32,1.13-.7,1.73-.97"/><path class="cls-11" d="m179.1,165.91c-.03-.1-.06-.2-.08-.3-.25-1.07-.41-2.27-.08-3.34.32-1.02,1.09-1.85,2.2-1.86.39,0,.76.08,1.1.24-.05-.47-.07-.95-.04-1.44.08-1.1.27-2.59,1.26-3.26.47-.32,1.06-.36,1.61-.38,1.08-.04,2.09.87,2.24,1.1.34-1.46,1.43-2.82,2.98-2.55.9.15,1.78.77,2.4,1.43,0,0,.02.02.02.03.01-.14.03-.28.06-.42.09-.47.28-.9.57-1.27.49-.65,1.31-1.07,2.11-1.08.86,0,1.65.39,2.18,1.08.5.65.97,2.75,1.03,3.56.05.57-.8.7-.96.16-.16-.57-1.16-3.48-2.4-3.2-1.24.27-1.32,1.47-1.39,2.14-.02.16.05,1.11.13,1.51.14.7-.82,1.02-1.06.33-.45-1.3-1.09-2.1-2.43-2.55-1.5-.5-2.06,1.69-2.1,2.78,0,.1.2.88.3,1.17.49,1.31.6,2.12.72,3.53.05.61-.87.76-1.03.18-.35-1.25-.64-2.51-1.09-3.72-.22-.6-1.23-2.42-1.8-2.62-2.37-.84-2.42,3.57-2.04,4.58.03.05.07.09.1.14.7,1.05,1.06,2.46,1.3,3.7.14.68-.79.98-1.02.32-.4-1.13-.65-2.43-1.35-3.42-.44-.62-1.15-.75-1.81-.1-.74.74-.84,1.73-.66,2.65.25,1.28.64,2.54.95,3.81.14.58-.67.82-.87.27-.25-.7-.51-1.39-.74-2.1"/><path class="cls-6" d="m198.72,137.15c4.06,0,9.32,18.86,4.41,21.75-2.25,1.33,55.1-1.34,58.28-2.32,3.18-.98.54-37.29-2.71-35.67-13.9,6.91-60.56,16.24-59.97,16.24h0Z"/><path class="cls-10" d="m199.06,136.61c3.72-.73,44.69-10.15,48.34-11.19.74-.21,1.07.93.33,1.15-3.64,1.04-44.62,10.46-48.34,11.19-.75.15-1.09-1-.33-1.15Z"/><path class="cls-6" d="m96.52,89.03c.04.3.06.6.08.9.01.3,0,.61-.15.86-.28.43-.88.49-1.39.49-2.47.02-4.93.04-7.4.06-1.06,0-2.15.01-3.14-.35-1.87-.69-3.49-4.2-1.51-5.67.55-.41,1.29-.44,1.98-.46,3.17-.06,6.34-.07,9.51-.02.2,0,.41,0,.59.11.21.12.33.34.43.56.52,1.11.86,2.3,1.01,3.52h0Z"/><path class="cls-8" d="m199.64,98.05c.05-.19.11-.38.18-.57.28-.85.67-1.73,1.43-2.2.68-.42,1.52-.43,2.31-.44,7.39-.03,13.81-.06,21.2-.08.36,0,.74,0,1.06.17.4.21.64.62.83,1.03.96,2.08,1.19,4.49.66,6.72-.11.44-.27.92-.67,1.14-.28.16-.63.16-.95.16-8.17-.09-15.39-.19-23.56-.28-.61,0-1.23-.02-1.81-.23-.45-.16-.84-.46-1.08-.87-.28-.48-.22-.93-.17-1.47.09-1.04.29-2.08.58-3.09h0Z"/><path class="cls-6" d="m189.1,426.72s-44.37,1.91-53.16,0c-.98-.22-1.3-1.35-.68-3.07.59-1.64,1.62-3.37,2.52-4.07,1.85-1.43,12.94-4.29,16.64-7.62,3.7-3.34,6.93-8.1,9.71-9.05,2.77-.95,5.08.48,6.01.95s3.7,5.72,6.93,6.19,6.47-3.81,8.32-3.34c1.15.3,2.83,5.91,3.72,11.5.54,3.42.33,6.35-.02,8.51h0Z"/><path class="cls-14" d="m189.56,427.19s-45.3,1.91-54.08,0c-.98-.22-.84-1.83-.21-3.55,4.06.24,27.97.42,30.55-.46,2.77-.95,5.72-2.38,8.58-3.34,1.9-.63,11.01-1.74,14.73-1.65.54,3.42.8,6.82.44,8.99h0Z"/></g></g></g></svg>