<?xml version="1.0" encoding="UTF-8"?><svg id="Layer_2" xmlns="http://www.w3.org/2000/svg" viewBox="0 0 148.62 454.25"><defs><style>.cls-1{fill:#eb1b2e;}.cls-2{fill:#fff;}.cls-3{fill:#ec9064;}.cls-4{fill:#802b30;}.cls-5{fill:#b3b3b3;}.cls-6{fill:#bf2030;}.cls-7{fill:#ddd;}.cls-8{fill:#e2875e;}.cls-9{fill:#d76d55;}.cls-10{fill:#363636;}.cls-11{fill:#1a1a1a;}</style></defs><g id="Assets"><g id="illustration_woman_2022"><g id="woman"><g id="Layer_1-2"><path class="cls-5" d="m32.6.74c2.53,5.46,4.89,11,7.09,16.6.24.61,1.13.13.9-.47-2.2-5.61-4.56-11.14-7.09-16.6-.28-.59-1.17-.12-.9.47Z"/><path class="cls-5" d="m18.97,5.46c-.43-.49-1.18.21-.74.69,4.36,4.89,9.04,9.49,14.01,13.77.49.42,1.24-.27.74-.69-4.97-4.28-9.65-8.88-14.01-13.77Z"/><path class="cls-10" d="m89.91,229.49c-.51,1.52-30.54,79.92-32.07,81.95-1.52,2.04,2.55,23.92,0,43.27-2.55,19.34-9.55,41.91-11.76,62.81-2.21,20.91-16.74-6.07-16.74-6.07,0,0-2.55-81.17,0-99.5s31.56-138.53,35.12-144.6c3.57-6.07,52.83-15.8,59.5-17.81,6.67-2.01,12.27,38.72,9.22,67.73-3.06,29.01-7.23,74.32-9.22,94.68s-10.44,104.43-10.44,104.43l-13.6,9.08-4.07-10.18s-6.45-85.52-2.37-104.86c4.07-19.34-3.57-80.93-3.57-80.93h0Z"/><path class="cls-3" d="m105.37,400.07c-3.61.03-7.11.93-10.41,2.33.52,7.87.89,12.89.89,12.89l4.07,10.18,13.6-9.08s.56-5.55,1.42-14.13c-2.97-1.43-6.23-2.21-9.57-2.18h0Z"/><path class="cls-3" d="m38.32,398.43c-2.35-.55-4.83-.84-7.24-.49-.72.11-1.42.28-2.11.49.2,7.92.36,13.01.36,13.01,0,0,14.53,26.98,16.74,6.07.53-5.01,1.34-10.13,2.3-15.26-3.22-1.62-6.55-3.02-10.05-3.84h0Z"/><path class="cls-2" d="m0,445.41s.87-5.55,4.96-8.14c4.09-2.59,16.52-13.89,19.37-19.35s2.07-10.33,2.07-10.33c0,0,6.43-1.36,10.33,0s3.12,7.8,3.7,9.35c.58,1.56,5.65.58,5.65.58,0,0,1.36,12.47.78,20.46-.58,7.99-16.22,9.35-22.92,10.33C17.24,449.29,0,445.4,0,445.4H0Z"/><path class="cls-7" d="m47.28,437.27s-4.81,1.92-8.07,2.11c-3.27.19-9.42,5.19-14.8,5.77-5.38.58-6.73-1.15-14.03-1.15s-10.38,1.41-10.38,1.41c0,0,.19,5.96.96,7.11.77,1.15,17.11,2.43,23.83,1.28s18.26-.38,21.33-1.15c3.08-.77,1.15-15.38,1.15-15.38h0Z"/><path d="m.96,452.52c.77,1.15,17.11,2.43,23.83,1.28,0,0-8.67-1.2-16.31-1.88-7.29-.65-7.52.6-7.52.6Z"/><path class="cls-2" d="m126.93,443.83s0-3.35-2.24-6.14c-1.81-2.25-7.8-8.66-8.82-15.44-1.02-6.79,0-12.22-.17-13.4-.17-1.19-11.88-3.72-14.93-1.86-3.06,1.86-2.55,7.97-3.06,8.65-.51.68-1.87-.34-1.87-.34,0,0-1.55,15.09-1.52,19.85s5.09,11.2,9.67,11.71,22.94-3.02,22.94-3.02h0Z"/><path class="cls-7" d="m94.32,435.14s2.21,1.87,4.07,2.46c1.87.59,1.57,5.22,5.82,6.02,4.24.8,6.54-.83,12.48-1.04,5.94-.22,10.24,1.25,10.24,1.25,0,0,.82,7.97.13,8.47s-23.25.02-27.14,0c-3.9-.02-4.58-.87-5.09-1.54s-.51-15.61-.51-15.61h0Z"/><path d="m120.11,450.07c-4.58.17-20.19,2.22-20.19,2.22,3.9.02,26.47.49,27.14,0,.02-.01.03-.03.04-.04-1.09-.95-3.5-2.31-7-2.18h0Z"/><path class="cls-11" d="m88.67,220.49c-4.8,10.41-9.61,20.82-14.21,31.32-4.55,10.39-8.92,20.86-12.88,31.48-2.25,6.03-4.37,12.12-6.32,18.26-.19.61.77.88.96.27,3.45-10.84,7.42-21.5,11.7-32.03,4.29-10.54,8.88-20.96,13.59-31.31,2.65-5.83,5.33-11.65,8.02-17.47.27-.58-.59-1.09-.86-.5h0Z"/><path class="cls-11" d="m55.57,331.47c-.59-5.4-1.39-10.78-2.4-16.12-.12-.63-1.08-.36-.96.27,1.77,9.44,2.9,19,3.36,28.6.41,8.5.3,17.02-.33,25.5.5-2.48.98-4.94,1.4-7.36.02-.62.06-1.24.07-1.86.28-9.69-.1-19.39-1.15-29.03h0Z"/><path class="cls-11" d="m126.52,196.11c-4.71-7.56-7.19-16.55-6.71-25.44.09-1.74-2.05-1.13-2.04.48.03,9.08,1.96,18.29,6.84,25.94,1.19,1.86,2.74.35,1.91-.99h0Z"/><path class="cls-2" d="m128.63,153.27c-3.07-8.68-2.53-18.01-3.5-27.03-.27-2.51-.66-5-1.25-7.45-.15-.62-1.11-.36-.96.27,2.16,8.89,1.45,18.13,2.92,27.12.4,2.51,1,4.98,1.84,7.37.21.6,1.18.34.96-.27Z"/><path class="cls-3" d="m43.73,66.57c-.12-7.67-.47-13.6.44-17.09.91-3.49-.76-6.5-1.74-8.77-.98-2.26-1.29-4.92-1.5-6.84-.22-1.92-2.3-2.18-3.12-.39s-1.12,4.26-2.07,4.87c-.95.61-7.09-5.54-7.71-7.14-.62-1.6-4.72-6.77-6.48-6.61-1.76.16-3.59-2.18-5.07-2-1.48.19-.59,2.28-.59,2.28,0,0-.88.06-.59,2.28.28,2.22,4.54,7.69,4.33,9.06-.21,1.36-3.41-5.37-6.15-4.51s11.77,16.69,13.87,20.17c2.1,3.49.01,21.34.01,21.34,2.83.65,16.5,1,16.38-6.67h-.01Z"/><path class="cls-8" d="m18.41,34.99c.29-.29.81.27,1.1.55,1.41,1.41,2.78,2.26,4.19,3.67,1.75-1.51,3.88-2.58,6.17-3,.4-.07.8.11.92.52.1.36-.12.85-.52.92-2.2.41-4.21,1.4-5.82,2.89-.28.26-1.17.51-1.68-.15-1.26-1.61-2.37-2.73-3.82-4.18-.29-.28-.82-.93-.53-1.22h0Z"/><path class="cls-8" d="m32.38,43.7c.5-.85,1.17-1.6,1.68-2.46.53-.88.96-1.81,1.29-2.78.31-.9,1.1-1.03.79-.12-.63,1.83-.9,3.9-2.04,5.47-.55.76-.91,1.54-.95,2.49-.04.94.12,1.87.29,2.8.17.94-1.26,1.35-1.44.4-.35-1.94-.67-4.01.38-5.8Z"/><path class="cls-1" d="m72.32,94.31s-16.87,8.83-19.76,9.83c-2.88,1-7.01-28.17-7.7-35.6,0,0-.34-2.55-6.02-4.3-5.68-1.76-12.56-1.12-13.08-.15-.52.98-.52,33.14,0,47.08s5.16,25.46,13.76,28.21c8.6,2.75,36.13-12.22,39.57-14.11s1.94-29.93-6.77-30.96h0Z"/><path class="cls-6" d="m53.7,108.95c-1.72-4.09-2.59-8.51-3.66-12.8-1.11-4.45-2.22-8.91-3.33-13.36-.23-.93-1.64-.44-1.41.49,1.11,4.45,2.22,8.91,3.33,13.36,1.07,4.29,1.95,8.71,3.66,12.8.37.88,1.79.4,1.41-.49Z"/><path class="cls-4" d="m112.05,19.01v-.89s-8.53,1.7-13.34,7.31c-1.87,2.19-2.41,4-2.5,6.53-.33,1.44-.47,2.93-.69,4.33-.49,3.19-.99,6.38-1.49,9.57-.86,5.53-1.9,11.62,1.08,16.72,1.34,2.3,3.38,4.16,5.97,4.91.93.27,1.32-1.17.4-1.44-4.65-1.36-6.68-6.47-6.84-10.91-.11-2.91.36-5.78.8-8.65.33-2.09.65-4.18.97-6.27.04,3.33-.07,7.56-.72,13.16-.73,6.38,5.36,13.54,16.53,13.14,8.85-.32-.19-47.51-.19-47.51h0Z"/><path class="cls-3" d="m109.34,56.79s3,16.03,1.4,20.64-6.63,12.22-6.63,12.22l26.47-13.62s-4.59-12.96-3.76-24.55c.83-11.59-17.48,5.31-17.48,5.31h0Z"/><path class="cls-9" d="m114.43,68.32c4.23-1.38,7.15-4.82,8.88-8.8.59-1.37,1.05-2.82,1.43-4.28.27-1.59.46-3.2.59-4.81.07-.92.13-1.84.18-2.76-4.08-2.05-16.18,9.12-16.18,9.12,0,0,1.2,6.42,1.67,12.3,1.16-.17,2.31-.41,3.42-.77h0Z"/><path class="cls-3" d="m101.34,59.01s-3.2-5.6-2.46-16.16,6.79-19.9,10.86-21.58c4.07-1.69,4.62-1.45,8.45-1.67,4.19-.24,5.89,3.02,8.08,5.55s2.12,6.38,2.12,11.49c0,2.43,1.6,4.16,1.6,4.16,0,0,5.75-2.05,6.76,1.15,1.01,3.2-3.68,10.17-6.88,10.85-3.2.67-1.92-2.16-3.06-1.31s-2.73,9.26-10.82,11.79c-4.75,1.49-11.92.49-14.66-4.26h0Z"/><path class="cls-4" d="m111.14,20.71s3.78,2.81,2.9,12.03c-.88,9.22,6.18,21.84,8.12,22.84,0,0,.8,6.43,3.6,8.32,2.81,1.89,13.82-5.12,15.83-7.52,2-2.41,5.41-4.61,2.61-17.43-2.81-12.83-9.22-21.44-20.23-22.24-11.02-.8-12.83,4-12.83,4h0Z"/><path class="cls-4" d="m104.12,23.33s-.02.33-.02.88c-.28,0-.54.16-.6.54-.43,2.94-.5,6.04,1.06,8.69,1.34,2.28,3.55,3.91,5.87,5.1.85.44,1.61-.85.75-1.29-2.04-1.05-4.02-2.42-5.24-4.41-.7-1.15-1.05-2.41-1.18-3.7.62,2.14,1.77,4.35,3.96,5.61,5.21,3.01,9.42,5.1,11.62,6.35,2.2,1.26,3.6-24.39,3.6-24.39,0,0-17.46-1.48-19.84,6.61Z"/><path class="cls-11" d="m101.88,46.18c-.13-.37-.37-.69-.7-.89-.12-.07-.26-.12-.39-.12-.22,0-.4.12-.52.29-.13.18-.17.42-.19.64v.02c-.01.08-.01.16-.01.24,0,.02,0,.03,0,.05-.02.2.02.4.06.6.03.19.08.38.14.56.1.27.27.51.57.59.26.07.53-.03.72-.22.15-.15.25-.34.31-.54.07-.2.11-.43.1-.64.02-.2,0-.4-.07-.58h0Z"/><path class="cls-11" d="m114.71,44.95c-.03-.15-.19-.48-.21-.49-.08-.14-.17-.27-.29-.36-.16-.13-.35-.22-.54-.24-.06-.02-.11-.03-.17-.03-.19,0-.36.1-.48.24-.17.16-.27.37-.34.59-.1.27-.16.57-.16.85,0,.59.29,1.25.86,1.5.19.08,1.01.14,1.31-.54.07-.16.16-.56.16-.61.01-.5-.12-.87-.13-.91h0Z"/><path class="cls-4" d="m116.36,40.62c-.66-.29-1.31-.61-1.94-.95-.3-.17-.6-.35-.91-.52-.43-.23-.85-.34-1.35-.26-.39.07-.64.56-.52.92.13.39.47.57.85.53h.02s-.03,0,.02,0c.03.01.09.03.1.03.12.06.24.13.35.19.29.17.58.33.87.48.58.3,1.16.59,1.76.85.35.16.82.12,1.02-.27.17-.33.11-.85-.27-1.02h0Z"/><path class="cls-4" d="m102.2,39.49c-.22-.34-.66-.47-1.02-.27-1.21.68-2.2,1.69-3.16,2.68-.27.28-.3.78,0,1.06.29.27.77.3,1.06,0,.45-.47.91-.94,1.4-1.38.12-.11.23-.21.35-.3.06-.05.12-.1.18-.15,0,0,0,0,.01-.01.03-.02.06-.04.08-.07.27-.19.54-.38.83-.54.34-.19.48-.69.27-1.02h0Z"/><path class="cls-9" d="m107.23,53.37l-.1-.13c-.08-.08-.18-.14-.29-.17-.27-.04-.54-.11-.81-.17-.09-.03-.17-.03-.26-.01-.09,0-.17.03-.24.08-.08.04-.14.09-.18.17-.06.06-.09.14-.12.22-.04.17-.03.35.07.5s.22.26.39.3c.27.07.54.13.81.17.09.03.17.03.26.01.09,0,.17-.03.24-.08.08-.04.14-.09.18-.17.06-.06.09-.14.12-.22.04-.17.03-.35-.07-.5Z"/><path class="cls-2" d="m105.21,57.13l5.93-.87s.55,3.06-.92,4.11c-1.47,1.05-5.01-3.24-5.01-3.24Z"/><path class="cls-1" d="m106.51,80.33s2.11-6.84,2.82-6.46c.7.38,2.32,1.46,5.17.78,8.18-1.94,13.79-8.84,15.03-9.06s9.04,5.36,9.04,5.36l-32.06,9.37h0Z"/><path class="cls-3" d="m74.36,66.88s-8.84-12.67-9.53-14.02,2.85-9.17,3.03-11.89c.19-2.72.94-6.32,1.39-8.17.45-1.85-2.38-1.37-3.35-.57-.96.8-2.82,5.45-3.26,5.51-.44.06-3.65-11.44-4.61-14.69-.96-3.26-1.99-5.36-2.86-5.1-.87.27-1.4-2.31-2.78-2.26-1.39.04-.57,1.7-1.44,1.96s-2.19,1.54-2.28,3.67l-.08,2.13s-1.43-.52-1.75,2.18c-.32,2.7-1.55,10.28-1.57,15.3-.03,5.02,4.35,14.17,5.55,16.03,1.2,1.86,10.84,21.41,11.26,22.18.42.76,12.28-12.25,12.28-12.25h0Z"/><path class="cls-8" d="m49.72,25.95c.63,3.88.75,7.82.4,11.74-.08.94-1.52.69-1.44-.24.34-3.79.79-7.76.18-11.51-.15-.93.71-.91.86.02h0Z"/><path class="cls-8" d="m62.56,36.8c.39-.13.79.05.94.43.57,1.39,1.15,2.77,1.72,4.16.14.35-.06.82-.43.94-.39.13-.79-.05-.94-.43-.57-1.39-1.15-2.77-1.72-4.16-.14-.35.06-.82.43-.94Z"/><path class="cls-1" d="m141.78,71.45c-4.56-2.04-11.2-1.08-11.2-1.08,0,0-14.73,6.64-21.24,7.67-6.52,1.04-12.99-.62-18.04,3.32-.59.45-1.35,1.18-2.24,2.12-2.91-3.52-17.46-21.3-20.75-28.82-3.67-8.36-13.13,11.45-12.95,15.48s8.74,13.25,12.03,19.13c1.9,3.4,4.71,8.16,7.6,12.57-4.26,6.54-7.81,13.17-8.5,17.49-1.66,10.37,3.94,15.77.42,27.18-3.53,11.41-5.81,13.9-7.05,16.8-1.24,2.91.69,9.66.69,9.66,0,0,1.33,2.21,12.79,2.17,11.47-.04,42.53-8.09,49.29-9.13,6.77-1.04,9.28,3.55,9.28,3.55,0,0,4.49-2.1,3.24-9.56-1.24-7.47-6.64-14.88-4.56-20.27,2.07-5.4,11.81-23.58,11.76-29.81-.04-6.22,4.21-10.7,5.87-20.26,1.66-9.55-1.87-16.17-6.43-18.21h0Z"/><path class="cls-2" d="m133.47,70.62c-2.61-.09-5.06.9-7.3,2.17-2.39,1.35-4.66,2.91-7.03,4.3-4.85,2.83-9.89,5.36-15.08,7.52-1.49.62-2.98,1.22-4.49,1.77-1.44.53-4.17.83-4.95.43-7.66-6.89-13.8-15-19.35-23.68-1.79-2.79-3.41-5.84-4.95-8.78-.45-.85-1.93.36-1.49,1.21,5.53,10.55,12.27,20.16,20.73,28.54,2.41,2.38,4.92,4.66,7.52,6.82.74.61,1.8-.44,1.06-1.06-.5-.42-1.01-.85-1.51-1.28,2.06-.02,4.18-1.07,6.01-1.8,2.63-1.05,5.22-2.18,7.78-3.4,5.14-2.45,10.01-5.31,14.84-8.32,2.49-1.55,5.18-3.06,8.2-2.96.96.03.96-1.46,0-1.5h0Z"/><path class="cls-6" d="m137.81,117.44c-4.78.72-9.31-1.55-13.39-3.84,4.59-1.19,9.14-2.53,13.64-4.03.91-.3.52-1.75-.4-1.44-11.01,3.65-22.3,6.41-33.75,8.23-2.83.45-5.68.84-8.53,1.18-2.63.3-5.42.79-7.82-.63-2.17-1.28-3.79-3.44-5.37-5.36-1.74-2.11-3.42-4.27-5.02-6.48-3.63-5.02-6.9-10.3-9.78-15.79-.45-.85-1.74-.1-1.29.75,2.64,5.02,5.6,9.87,8.86,14.5,1.6,2.27,3.28,4.5,5.03,6.67,1.64,2.04,3.29,4.24,5.31,5.92.93.77,1.95,1.41,3.09,1.81,1.34.47,2.79.5,4.2.39,2.89-.22,5.79-.64,8.66-1.05,5.89-.85,11.76-1.94,17.56-3.28,1.41-.33,2.82-.67,4.23-1.03,4.59,2.59,9.61,5.26,15.06,4.44.63-.09.37-1.05-.27-.96h-.02Z"/><path class="cls-6" d="m72.22,107.5c.45-.85-.84-1.6-1.29-.75-2.56,4.79-5.22,9.9-4.99,15.48.12,2.92.92,5.74,1.38,8.62.44,2.76.49,5.57.2,8.35-.33,3.15-1.14,6.27-2.38,9.18-.16.37-.11.8.27,1.02.31.19.87.11,1.02-.27,2.18-5.14,3.13-10.77,2.62-16.35-.27-2.89-1.04-5.68-1.44-8.55-.39-2.8-.12-5.53.72-8.22.93-2.98,2.41-5.76,3.89-8.51h0Z"/></g></g></g></g></svg>