<?xml version="1.0" encoding="UTF-8"?><svg id="Layer_2" xmlns="http://www.w3.org/2000/svg" viewBox="0 0 166.8 457.8"><defs><style>.cls-1{fill:#eb1b2e;}.cls-2,.cls-3{fill:#fff;}.cls-4{fill:#975414;}.cls-5{fill:#ba732e;}.cls-6{fill:#b3b3b3;}.cls-7{fill:#bf2030;}.cls-8{fill:#ddd;}.cls-9{fill:#23201f;}.cls-10{fill:#363636;}.cls-11{fill:#1a1a1a;}.cls-12{fill:#603721;}.cls-3{isolation:isolate;opacity:.34;}</style></defs><g id="Assets"><g id="illustration_man_2022"><g id="man"><g id="Layer_1-2"><path class="cls-5" d="m47.96,48.6c.04.07,2.76,17.35,3.04,20.95.28,3.6,5.59,5.99,5.59,5.99,0,0-14.73,24.59-16.95,27.56-2.22,2.96-15.04-31.45-15.04-31.45,0,0,4.7-.37,6.05-1.48,1.35-1.11-.9-13.28-.9-13.28l18.21-8.29h0Z"/><path class="cls-5" d="m32.8,396.61s-5.16,27.22-2.8,35.46c1.31,4.57,11.23,15.39,12.3,18.91,1.07,3.52,0,6.82,0,6.82H12.46s-4.34-.41-4.96-4.54c-.62-4.13,1.64-18.6,1.85-23.04.21-4.44.21-39.76.21-39.76l23.24,6.16h0Z"/><path class="cls-2" d="m29.82,429.69v-.12c-1.06-1.08-3.2-1.39-7.3-1.39-11.57,0-7.44,4.52-8.47,7.23-.42,1.11-3.7.43-4.95-2.16-1.29,6.03-2.11,16.57-1.59,20,.62,4.13,4.96,4.54,4.96,4.54h29.84s1.07-3.31,0-6.82c-.9-2.96-8.32-12.64-11.53-18.47-.61-1.1-.96-2.06-.96-2.82h0Z"/><path class="cls-8" d="m42.43,451.46c-2.65-1-3.87-2.06-9.1-2.22-10.24-.3-20.3,2.49-22.49,3.48-1.21.55-2.31.13-3.46-1.03,0,.71.07,1.13.13,1.56.62,4.13,4.96,4.54,4.96,4.54h29.84s.97-3.01.13-6.34h0Z"/><path d="m39.65,455.9c-2.39-.97-7.08-1.79-12.21-.74-5.13,1.05-14.97,2.64-14.97,2.64h29.84s-.26-.92-2.65-1.89h0Z"/><path class="cls-8" d="m17.13,446.63c.56,1.11,2.23.13,1.67-.98-1.76-3.48-3.3-7.07-4.62-10.74-.03.17-.07.34-.13.5-.17.46-.81.61-1.58.44,1.35,3.68,2.9,7.28,4.67,10.78h0Z"/><path class="cls-5" d="m116.23,455.33s-14.37,1.84-18.78,1.95c-4.42.11-17.86-.64-23.35-.88-5.49-.23-10.19-.21-10.53-1.37-.35-1.16,1.67-17.39,2.31-20.46.64-3.06,2.36-34.53,1.41-40.94-.96-6.41,23.71-4.51,23.71-4.51,0,0-5.45,41-5.34,41.29s13.22,11.62,18.42,14.12c5.2,2.5,10.43,5.39,11.52,5.63,1.09.24.63,5.16.63,5.16h0Z"/><path class="cls-2" d="m65.57,432.45s1.11-.71,1.85.9c.73,1.61,13.35,3.99,14.16,3.62.81-.36-3.65-4.28-3.65-4.28,0,0-2.07-2.04,1.68-2.71,2.48-.44,6.29-.68,6.6-.35.58.92,12.66,12.41,17.87,14.91,5.2,2.5,10.43,5.39,11.52,5.63,1.09.24.63,5.16.63,5.16,0,0-14.37,1.84-18.78,1.95-4.42.11-17.86-.64-23.35-.88s-10.19-.21-10.53-1.37c-.35-1.16,1.35-17.29,1.99-20.35.08-.37.08-1.15.02-2.24h0Z"/><path class="cls-8" d="m63.56,455.04c-.2-.67.29-6.35.85-11.62,6.03,2.32,7.56,8.26,10.72,7.04,3.52-1.36,6.43-.9,8.79.68,2.36,1.58,3.35,3.44,6.01,3.11,2.66-.32,7.28-1.93,7.28-1.93,3.34-.75,10.66-2.39,15.04-2.49,1.31-.03,2.33.09,3.14.28.08.03.15.05.21.06,1.09.24.63,5.16.63,5.16,0,0-14.37,1.84-18.78,1.95-4.42.11-17.86-.64-23.35-.88s-10.19-.21-10.53-1.37h0Z"/><path d="m108.94,454.79c1.94-.45,6.49-.87,7.29.54,0,0-11.56,1.48-17.13,1.86.76-.18,8.01-1.97,9.84-2.4h0Z"/><path class="cls-8" d="m81.58,436.97c.09-.04.11-.13.08-.26,3.71,3.24,7.49,6.39,11.34,9.44.98.78-.33,2.2-1.3,1.43-4.41-3.5-8.72-7.13-12.94-10.85,1.49.24,2.6.34,2.82.24h0Z"/><path class="cls-10" d="m54.75,288.19l-23.45,132.33s-14.98,1.21-19.93.94c-9.3-.51-9.81-2.84-11.27-5.13-1.46-2.29,14.11-123.44,14.11-123.44l-4.14-106.2s.94-13.73,26.62-14.8c25.68-1.08,56.4,19.64,56.4,19.64,0,0,2.84,113.49,3.82,123.49.97,10.01-6.49,101.97-6.49,101.97,0,0-.29,2.8-4.36,3.53-24.4,4.38-26.96-4.18-26.96-4.18l-2.49-107.62-1.84-20.53Z"/><path class="cls-11" d="m13.87,291.25c-.05-.39-.55-.6-.89-.51-.42.11-.56.51-.51.89.65,4.73,1.03,9.51,1.16,14.28.03.93,1.47.93,1.45,0-.14-4.91-.54-9.8-1.21-14.66h0Z"/><path class="cls-11" d="m27.12,183.03c-.06,4.73-.13,9.46-.2,14.19-.03,2.33-.06,4.65-.1,6.98,0,.56-.02,1.12-.02,1.68,0,.32-.01.64-.02.96,0,.24.05.58-.02.81-.13.4-.83.67-1.16.88-.51.32-1.02.64-1.54.96-2.29,1.43-4.58,2.85-6.86,4.28-.79.49-.06,1.75.73,1.25,2.12-1.32,4.23-2.64,6.35-3.96,1.03-.64,2.11-1.24,3.1-1.94.95-.68.84-1.7.86-2.76l.21-14.91c.04-2.81.08-5.61.12-8.42.01-.93-1.44-.93-1.45,0h0Z"/><path class="cls-11" d="m65.27,284.72c-.76-8.54-1.38-17.09-1.86-25.65-.27-4.86-.5-9.72-.68-14.58-.02-.62-.99-.62-.97,0,.32,8.57.78,17.13,1.38,25.68.6,8.55,1.34,17.1,2.22,25.62.5,4.84,1.05,9.67,1.63,14.5.07.61,1.04.62.97,0-1.03-8.51-1.94-17.04-2.7-25.58h0Z"/><path class="cls-11" d="m69.45,329.98c-.4-.97-1.21-1.66-1.98-2.34-.74-.65-1.53-1.3-1.51-2.37,0-.54.32-1.86,1.12-1.51.56.24,1.06-.59.49-.83-1.6-.7-2.59.99-2.57,2.41.02,2.06,2.04,2.88,3.16,4.31.84,1.08.62,2.3.11,3.48-.5,1.16-1.02,2.28-1.36,3.5-.7,2.55-.85,5.21-.92,7.84-.31,11.6-.47,23.21-.71,34.82l-.4,19.77c-.01.62.96.62.97,0l.68-33.64c.11-5.58.23-11.17.34-16.76.05-2.62.04-5.26.29-7.88.12-1.24.31-2.48.63-3.69.33-1.25.86-2.4,1.36-3.58.48-1.13.81-2.35.32-3.54h.01Z"/><path class="cls-5" d="m95.1,60.98s10.5-10.67,11.37-11.85c.87-1.19-1.24-9.22-.97-11.85s.13-6.19,0-8.03,2.5-.92,3.29,0,1.81,5.66,2.22,5.8c.42.13,5.35-10.33,6.79-13.29,1.45-2.96,2.77-4.8,3.56-4.41.79.4,1.71-1.97,3.03-1.71,1.31.26.26,1.71,1.06,2.11s1.84,1.83,1.58,3.88l-.26,2.05s1.45-.26,1.31,2.37c-.13,2.63-.19,10.07-.98,14.87s-6.45,12.83-7.9,14.41c-1.45,1.58-13.83,18.7-14.35,19.36-.53.66-9.74-13.7-9.74-13.7h0Z"/><path class="cls-4" d="m125.28,25.87c-1.23,3.61-1.99,7.35-2.29,11.15-.07.91,1.35.91,1.42,0,.29-3.67.51-7.54,1.69-11.03.3-.87-.53-.99-.82-.13h0Z"/><path class="cls-4" d="m111.25,34.16c-.35-.18-.76-.08-.97.25-.77,1.24-1.55,2.46-2.32,3.7-.2.32-.08.8.25.97.35.18.76.08.97-.25.77-1.24,1.55-2.46,2.32-3.7.2-.32.08-.8-.25-.97Z"/><path class="cls-1" d="m10.06,186.69s7.54-7.43,27.11-6.37c19.58,1.06,51.93,9.67,55.91,11.2,1.06.41,3.21-2.43,3.23-5.92.01-2.44-1.92-4.82-2.19-8.27-.79-10.18-2.4-23.1-2.38-29.11.04-10.95,0-22.73,0-22.73,0,0,31.57,3.53,38.73,0,7.16-3.53,19.09-49.04,19.09-49.04l-19.52-10.39s-13.27,24.34-12.92,26.73-18.35-2.25-18.35-2.25c0,0,11.67-11.55,12.4-14.6s-8.81-21.9-14.45-17.81c0,0-22.48,17.95-26.2,19.54,0,0-48.27-7.85-55.43-10.02-7.16-2.17-12.2,5.49-12.73,17.04s.8,22.27,3.18,25.79.8,7.51,2.65,10.42,5.04,10.88,6.9,13.26c1.86,2.39-4.78,22.1-5.3,29.36-.21,2.79-.21,6.86-.14,10.81.03,1.97-1.75,5.43-1.69,7.17.13,3.85,2.11,5.19,2.11,5.19h0Z"/><path class="cls-7" d="m101.14,87.96c-8.69,9.48-17.94,19.53-30.53,23.62-2.99.97-6.09,1.56-9.24,1.67-3.56.12-7.12-.28-10.67-.59-3.63-.31-7.27-.58-10.91-.6-3.59-.02-7.15.44-10.74.53-7.62.18-14.33-3.35-20.84-6.91-.82-.45-1.55.8-.73,1.25,5.8,3.18,11.83,6.43,18.53,7.02.62.05,1.23.07,1.85.08-3.22,4.31-6.35,8.69-9.35,13.16-.52.78.73,1.5,1.25.73,3.18-4.72,6.49-9.36,9.91-13.91,1.21-.05,2.42-.14,3.62-.23-5.31,11.91-10.63,23.82-15.95,35.73-1.5,3.37-3.01,6.75-4.52,10.12-.37.84.87,1.58,1.25.73,5.37-12.03,10.74-24.06,16.11-36.08,1.5-3.37,3.01-6.75,4.52-10.12.07-.17.08-.34.05-.49.73-.05,1.46-.09,2.19-.12,3.72-.13,7.45.06,11.16.34,3.63.28,7.26.72,10.9.81,3.31.08,6.61-.26,9.82-1.1,6.23-1.62,11.95-4.83,17.02-8.75,6.03-4.66,11.19-10.28,16.32-15.88.63-.69-.39-1.72-1.02-1.02h.01Z"/><path class="cls-2" d="m121,80.04c-2.93,7.5-6.23,14.85-9.87,22.03-.42.83.84,1.54,1.27.7,3.7-7.29,7.04-14.76,10.01-22.38.34-.87-1.07-1.21-1.4-.35h0Z"/><path class="cls-7" d="m100.18,79.01c.05.39.3.72.72.72.35,0,.78-.34.72-.72-.88-6.73-5.17-12.84-11.26-15.87-.41.32-.83.65-1.27.99,5.87,2.7,10.23,8.43,11.07,14.87h0Z"/><path class="cls-7" d="m143.24,87.47c-4.42-.41-8.59-2.18-12.62-3.93-.84-.37-1.58.88-.73,1.25,4.34,1.88,8.78,3.75,13.55,4.14.87.07,1.74.08,2.6.05.15-.5.3-.99.44-1.48-1.08.08-2.17.06-3.23-.03h0Z"/><path class="cls-7" d="m89.95,106.23c-.07-.92-1.52-.93-1.45,0,.79,10.05,1.57,20.1,2.35,30.16.07.92,1.52.93,1.45,0-.79-10.05-1.57-20.1-2.35-30.16Z"/><path class="cls-2" d="m74.02,73.58c-3.22,1.98-6.33,4.15-9.33,6.47-.31.24-.25.77,0,1.02.31.31.71.24,1.02,0,2.89-2.24,5.92-4.32,9.03-6.24.79-.49.06-1.74-.73-1.25h0Z"/><path class="cls-7" d="m145.33,71.24s4.24,2.35,4.24,4.58-3.71,2.59-4.8,2.39.56-6.97.56-6.97h0Z"/><path class="cls-5" d="m129.69,67.7c1.99-7.16,3.76-12.64,3.76-16.13s2.3-5.92,3.77-7.8c1.47-1.88,2.41-4.3,3.08-6.05s2.69-1.48,3.02.4,0,4.28.75,5.08c.74.8,8-3.46,8.97-4.81s6.08-5.19,7.69-4.61c1.62.58,3.9-1.17,5.24-.63s0,2.29,0,2.29c0,0,.81.27,0,2.29-.81,2.02-6.14,6.1-6.28,7.43-.13,1.33,4.51-4.21,6.87-2.73s-15.12,12.77-17.94,15.53c-2.82,2.76-3.31,20.26-3.31,20.26-2.81-.08-17.63-3.35-15.64-10.51h0Z"/><path class="cls-4" d="m161.16,44.28c-.2-.34-.82.05-1.17.25-1.67.97-3.16,1.44-4.83,2.41-1.27-1.85-3.01-3.37-5.05-4.32-.35-.16-.78-.1-.99.26-.18.32-.09.82.26.99,1.97.92,3.6,2.34,4.76,4.13.2.31.97.77,1.62.27,1.57-1.21,2.89-1.98,4.6-2.98.34-.2,1-.68.8-1.01h0Z"/><path class="cls-4" d="m145.93,49.04c-.26-.92-.71-1.79-.98-2.71-.28-.96-.45-1.93-.53-2.92-.07-.92-.78-1.24-.71-.31.15,1.87-.11,3.88.58,5.62.33.85.48,1.66.29,2.57-.19.89-.57,1.73-.96,2.55-.39.84.86,1.58,1.25.73.81-1.73,1.6-3.6,1.06-5.53h0Z"/><path class="cls-6" d="m158.99,13.35c-3.96,3.7-7.79,7.53-11.49,11.49-.42.45.26,1.14.68.68,3.71-3.95,7.54-7.78,11.49-11.49.45-.43-.23-1.11-.68-.68Z"/><path class="cls-6" d="m145.05,6.08c-1.81,5.44-3.78,10.82-5.91,16.13-.23.58.7.83.93.26,2.13-5.32,4.1-10.7,5.91-16.13.2-.59-.73-.84-.93-.26Z"/><path class="cls-6" d="m132.53.47c.02-.62-.95-.62-.97,0-.16,6.24.08,12.48.74,18.68.06.61,1.03.62.97,0-.65-6.21-.9-12.45-.74-18.68Z"/><path class="cls-6" d="m160.81,23.35c-3.26,1.62-6.52,3.24-9.77,4.87-.55.27-.07,1.11.49.83,3.26-1.62,6.52-3.24,9.77-4.87.55-.27.07-1.11-.49-.83Z"/><path class="cls-4" d="m51,64.34v5.24s-10.7,2.31-15.5-5.59l15.5.35h0Z"/><path class="cls-9" d="m20.24,24.2c-1.19-1.67-1.54-3.94-.69-5.85.17-.38.53-.64.97-.51.36.11.68.58.51.97-.61,1.36-.49,2.97.26,4.22-.05-.83.16-3.43,4.14-5.84,4.82-2.92,9.16-7.49,17.79-6.37,8.62,1.13,11.77,6.7,13.71,6.64,1.94-.06,6.12.93,6.76,7,.64,6.07-1.7,18.68-8.88,21.36-7.17,2.68-24.58,9.49-24.58,9.49,0,0-6.63-3.24-9.36-9.43-5.92-13.42-2.98-19.33-.63-21.69h-.01Z"/><path d="m54.05,41.71l7.47,1.55.04-3.04-8.56-.13s.7,1.39,1.06,1.62h0Z"/><path class="cls-5" d="m18.85,42.79c-.39-4.18,2.55-6.54,4.36-6.13.74.17,2.37,1.4,3.47,2.92.9,1.25.54,1.96,2.22,1.66.76-.14,1.23-.7,1.86-1.06.57-.32,1.94-3.67,2.51-3.98,3.39-1.86,6.24-6.75,6.5-8.89.77-.06,3.54,2.67,9.39,1.13.99-.26,4.33-.88,4.88-.54.41.24,1.29.99,2.87,5.9.45,2.84.76,5.72.89,6.98,0,.04.01.08.02.12.01.07.02.15.03.22.26,1.89,1.25,6.67.13,10.94-.48,4.41-1.73,8.34-4.06,10.69-7.39,7.44-16.67,4.25-21.32-.92-2.24-2.49-4.42-6.82-6-11.91h0s-1.19,2.06-3.87,1.11-3.49-4.04-3.87-8.22h0Z"/><path class="cls-9" d="m38.42,38.83c2.14-1.23,3.35-1.55,5.54-2.7.88-.46,1.54.94.65,1.4-2.19,1.15-3.4,1.47-5.54,2.7-.36.21-.86-.02-1.03-.37-.19-.41,0-.82.37-1.03h0Z"/><path class="cls-9" d="m54.63,36.5c.25-.33.73-.44,1.08-.18.82.61,1.63,1.21,2.45,1.82.33.24.44.74.18,1.08-.25.33-.73.44-1.08.18-.82-.61-1.63-1.21-2.45-1.82-.33-.24-.44-.74-.18-1.08Z"/><path class="cls-9" d="m55.59,42.97c0-.34.08-.69.22-1,.06-.14.16-.28.31-.34.16-.07.3-.06.46-.02.04.01.07.03.11.04.13,0,.25.03.36.1.3.21.52.52.61.87.1.24.13.5.08.76.03.12.04.24.02.36-.07.44-.41.81-.87.87-.48.07-.9-.17-1.11-.6-.16-.32-.2-.69-.2-1.04h0Z"/><path class="cls-9" d="m41.98,44.5c-.08-.25-.12-.49-.1-.75v-.04c-.02-.35.04-.69.24-.99.2-.3.51-.52.87-.6.18-.04.39-.02.56.05.25.11.44.29.57.53.1.17.14.37.18.56.04.15.07.3.09.45.04.41-.02.84-.29,1.18-.14.17-.31.33-.52.4-.03.01-.06.02-.08.03-.03.01-.05.02-.07.02-.2.05-.4.04-.6-.02-.39-.11-.72-.46-.84-.84h0Z"/><path class="cls-4" d="m48.57,50.36c-.03-.17,0-.35.09-.49.1-.14.23-.23.41-.26.39-.08.78-.17,1.17-.26.15-.03.34.03.47.12.13.1.25.27.28.44.03.17,0,.35-.09.49-.1.14-.23.23-.41.26-.39.08-.78.17-1.17.26-.15.03-.34-.03-.47-.12-.13-.1-.25-.27-.28-.44Z"/><path class="cls-12" d="m27.75,41.19l8.14,2.11.04-3.04-9.24-.69s.7,1.39,1.06,1.62Z"/><path class="cls-3" d="m35.92,40.23l-.04,3.04s-.04,2.3.88,3.93c.91,1.63,8.84,2.76,9.87,1.85,1.04-.91,1.01-8.87.43-9.58-.58-.71-8.72-.66-9.55-.59-1.76.15-1.59,1.35-1.59,1.35h0Z"/><path class="cls-3" d="m61.73,40.67l-.12,3.04s-.08,2.3-1.08,3.88c-1,1.58-6.72,2.29-7.71,1.32-.99-.97-.54-8.91.07-9.58.61-.68,6.5-.2,7.33-.08,1.75.24,1.51,1.43,1.51,1.43h0Z"/><path class="cls-12" d="m41.5,49.45c-1.31-.22-4.42-.87-5.08-2.06-.96-1.7-.92-4.03-.92-4.13l.04-3.02c-.01-.14-.02-.6.32-1.02.33-.42.88-.66,1.63-.72.09,0,9.08-.24,9.88.73.64.78.78,9.01-.48,10.11-.07.06-.15.11-.25.16-1.25.59-4.71.02-5.13-.05h0Zm-5.04-9.75c-.18.22-.16.46-.16.49l-.03,3.1s-.03,2.21.82,3.74c.33.59,2.2,1.27,4.54,1.67,2.63.45,4.44.33,4.74.07.81-.71.9-8.23.41-9.03-.7-.52-8.12-.56-9.24-.47-.3.03-.55.08-.74.18-.14.07-.25.15-.33.25h0Z"/><path class="cls-12" d="m56.26,49.65c-.68.08-2.96.28-3.72-.46-1.19-1.17-.62-9.38.06-10.12.86-.93,7.59-.22,7.66-.21.74.1,1.28.37,1.59.81.32.44.29.9.26,1.04l-.12,3.01c0,.1-.1,2.42-1.14,4.07-.25.4-.71.73-1.29,1-.94.44-2.2.72-3.3.86h0Zm-3.08-10.07c-.56.79-.87,8.3-.1,9.06.27.27,1.43.44,3.08.25,1.96-.23,3.62-.84,4.03-1.5.93-1.47,1.02-3.67,1.02-3.69l.12-3.04v-.05s.05-.26-.13-.5c-.18-.24-.54-.41-1.06-.48-1.43-.2-6.14-.45-6.92-.08-.03.01-.05.03-.06.04h0Z"/><path class="cls-12" d="m47.26,40.15h0l5.34.03h0c-.11.56-.21,1.34-.27,2.2,0,0-2.3-2.08-4.89.13h0c-.02-.96-.08-1.8-.18-2.36Z"/><path class="cls-2" d="m51.9,57.38l-9.28-.98s.14,5.86,5.14,6.06l4.14-5.08h0Z"/></g></g></g></g></svg>