<?xml version="1.0" encoding="UTF-8"?><svg xmlns="http://www.w3.org/2000/svg" viewBox="0 0 30 30"><defs><style>.e{fill:#fff;}</style></defs><g id="a"/><g id="b"><g id="c"><path id="d" class="e" d="M0,15C0,6.71,6.71,0,15,0s15,6.71,15,15-6.71,15-15,15S0,23.29,0,15Zm15,6.56c.78,0,1.41-.63,1.41-1.41v-3.75h3.75c.78,0,1.41-.63,1.41-1.41s-.63-1.41-1.41-1.41h-3.75v-3.75c0-.78-.63-1.41-1.41-1.41s-1.41,.63-1.41,1.41v3.75h-3.75c-.78,0-1.41,.63-1.41,1.41s.63,1.41,1.41,1.41h3.75v3.75c0,.78,.63,1.41,1.41,1.41Z"/></g></g></svg>