<?xml version="1.0" encoding="UTF-8"?><svg xmlns="http://www.w3.org/2000/svg" viewBox="0 0 134.55 134.55"><defs><style>.e{fill:#f7b531;}.f{fill:#fae049;}</style></defs><g id="a"/><g id="b"><g id="c"><g id="d"><circle class="f" cx="67.28" cy="67.28" r="67.28"/><path class="e" d="M72.5,92.32v7.06h-9.69v-7.06c-6.23-1-11.49-4.14-14.46-8.7l6.99-6.42c3.39,4.07,7.75,5.71,12.39,5.71,5.74,0,8.44-1.28,8.44-5.07,0-3.21-1.66-4.64-10.8-6.78-8.93-2.14-15.16-5.07-15.16-14.91,0-7.49,5.33-12.41,12.59-13.84v-7.13h9.69v7.21c5.12,1,9.13,3.57,12.66,7.35l-6.99,6.99c-3.11-3.28-6.57-5.14-11-5.14-5.19,0-6.92,1.93-6.92,4.14,0,3.14,2.08,4.14,9.76,5.99,7.68,1.85,16.19,4.57,16.19,15.41,0,8.13-4.22,13.7-13.7,15.2Z"/><path class="e" d="M67.28,126.13c-32.45,0-58.85-26.4-58.85-58.85S34.83,8.43,67.28,8.43s58.85,26.4,58.85,58.85-26.4,58.85-58.85,58.85Zm0-105.04c-25.47,0-46.19,20.72-46.19,46.19s20.72,46.19,46.19,46.19,46.19-20.72,46.19-46.19-20.72-46.19-46.19-46.19Z"/></g></g></g></svg>