<svg xmlns="http://www.w3.org/2000/svg" viewBox="0 0 60 44.88"><defs><style>.cls-1{fill:#fff;}.cls-2{fill:#ed1d25;}</style></defs><g id="Layer_2" data-name="Layer 2"><g id="Assets"><g id="icon_store_white_red" data-name="icon store white red"><polygon class="cls-1" points="1.77 2.68 1.77 44.88 58.23 44.81 58.23 2.68 1.77 2.68"/><rect class="cls-1" width="60" height="1.96"/><rect class="cls-2" x="7.18" y="11.91" width="45.65" height="32.94"/><rect class="cls-1" x="7.89" y="12.62" width="21.75" height="2.69"/><rect class="cls-1" x="30.36" y="12.62" width="21.75" height="2.69"/><g id="portes"><polygon class="cls-1" points="13.96 44.88 8.11 44.88 8.11 16.24 13.96 16.24 13.96 17.33 9.19 17.33 9.19 43.09 13.96 43.09 13.96 44.88"/><polygon class="cls-1" points="46.04 44.88 51.89 44.88 51.89 16.24 46.04 16.24 46.04 17.33 50.81 17.33 50.81 43.09 46.04 43.09 46.04 44.88"/><path class="cls-1" d="M14.63,16.24H25.41V44.88H14.63ZM15.7,43.09h8.63V17.33H15.7Z"/><path class="cls-1" d="M34.58,16.24H45.36V44.88H34.58Zm1.07,26.85h8.63V17.33H35.65Z"/></g></g></g></g></svg>