<?xml version="1.0" encoding="UTF-8"?><svg xmlns="http://www.w3.org/2000/svg" viewBox="0 0 60 60"><defs><style>.e{fill:#f39a1e;}</style></defs><g id="a"/><g id="b"><g id="c"><g id="d"><path class="e" d="M30,0C13.43,0,0,13.43,0,30s13.43,30,30,30,30-13.43,30-30S46.57,0,30,0Zm0,51.86c-12.07,0-21.86-9.79-21.86-21.86S17.93,8.14,30,8.14s21.86,9.79,21.86,21.86-9.79,21.86-21.86,21.86Z"/><g><polygon class="e" points="20.57 30.05 25.79 30.05 23.18 24.67 20.57 30.05"/><polygon class="e" points="34.16 30.05 39.38 30.05 36.77 24.67 34.16 30.05"/><path class="e" d="M30,11.84c-10.03,0-18.16,8.13-18.16,18.16s8.13,18.16,18.16,18.16,18.16-8.13,18.16-18.16S40.03,11.84,30,11.84Zm6.77,22.27c-2.24,0-4.06-1.82-4.06-4.06h.57l3.27-6.26h-5.62v13.66h2.95c.54,0,.96,.43,1.01,1.04,.04,.57-.41,1.14-.92,1.14h-7.91c-.54,0-.96-.43-1.01-1.04-.04-.57,.41-1.14,.92-1.14h3.04v-13.66h-5.62l3.27,6.26h.57c0,2.24-1.82,4.06-4.06,4.06s-4.06-1.82-4.06-4.06h.57l3.27-6.26h-.32c-.37,0-.66-.26-.69-.63-.03-.35,.28-.69,.63-.69h5.72l.72-1.25v-1.39c0-.45,.38-.79,.92-.83,.5-.04,1.01,.34,1.01,.76v1.46l.72,1.25h5.65c.37,0,.66,.26,.69,.63,.03,.35-.28,.69-.63,.69h-.39l3.27,6.26h.57c0,2.24-1.82,4.06-4.06,4.06Z"/></g></g></g></g></svg>