<?xml version="1.0" encoding="UTF-8"?><svg xmlns="http://www.w3.org/2000/svg" viewBox="0 0 30 30"><defs><style>.e{fill:#ec2027;}</style></defs><g id="a"/><g id="b"><g id="c"><g id="d"><circle class="e" cx="19.17" cy="18.67" r=".52"/><path class="e" d="M15,0C6.72,0,0,6.72,0,15s6.72,15,15,15,15-6.72,15-15S23.28,0,15,0Zm-2.85,13.71c.27-.27,.7-.27,.97,0l1.58,1.58v-5.22c0-.38,.31-.69,.69-.69s.69,.31,.69,.69v5.22l1.58-1.58c.27-.27,.7-.27,.97,0,.27,.27,.27,.7,0,.97l-2.75,2.75c-.13,.13-.31,.2-.49,.2s-.35-.07-.49-.2l-2.75-2.75c-.27-.27-.27-.7,0-.97Zm8.74,5.99c0,.38-.31,.69-.69,.69H10.58c-.38,0-.69-.31-.69-.69v-2.06c0-.38,.31-.69,.69-.69h2.87l.97,.97c.26,.26,.6,.4,.97,.4s.71-.14,.97-.4l.97-.97h2.87c.38,0,.69,.31,.69,.69v2.06Z"/></g></g></g></svg>