<?xml version="1.0" encoding="UTF-8"?><svg xmlns="http://www.w3.org/2000/svg" viewBox="0 0 60 60"><defs><style>.e{fill:#fff;fill-rule:evenodd;}</style></defs><g id="a"/><g id="b"><g id="c"><g id="d"><path class="e" d="M30,9.4c-11.36,0-20.6,9.24-20.6,20.6s9.24,20.6,20.6,20.6,20.6-9.24,20.6-20.6S41.36,9.4,30,9.4Zm2.33,31.76v3.15h-4.32v-3.15c-2.78-.45-5.12-1.85-6.45-3.88l3.12-2.86c1.51,1.81,3.46,2.54,5.52,2.54,2.56,0,3.76-.57,3.76-2.26,0-1.43-.74-2.07-4.81-3.02-3.98-.95-6.76-2.26-6.76-6.65,0-3.34,2.38-5.54,5.62-6.17v-3.18h4.32v3.21c2.28,.45,4.07,1.59,5.65,3.28l-3.12,3.12c-1.39-1.46-2.93-2.29-4.91-2.29-2.31,0-3.09,.86-3.09,1.85,0,1.4,.93,1.85,4.35,2.67,3.43,.83,7.22,2.04,7.22,6.87,0,3.63-1.88,6.11-6.11,6.78Z"/><path class="e" d="M30,0C13.43,0,0,13.43,0,30s13.43,30,30,30,30-13.43,30-30S46.57,0,30,0Zm0,56.24c-14.47,0-26.24-11.77-26.24-26.24S15.53,3.76,30,3.76s26.24,11.77,26.24,26.24-11.77,26.24-26.24,26.24Z"/></g></g></g></svg>