<?xml version="1.0" encoding="UTF-8"?><svg xmlns="http://www.w3.org/2000/svg" viewBox="0 0 60 46"><defs><style>.e{fill:#ec2027;}.f{fill:#fff;}.g{fill:#b59a85;}.h{fill:#6f6f6f;}</style></defs><g id="a"/><g id="b"><g id="c"><g id="d"><rect class="f" x="16.08" y="2.89" width="27.83" height="24.11"/><path class="e" d="M35.8,13.43l-8.88-5.15c-.54-.31-1.2-.31-1.74,0-.54,.31-.87,.89-.87,1.51v10.31c0,.62,.33,1.2,.87,1.51,.27,.16,.57,.23,.87,.23s.6-.08,.87-.23l8.88-5.15c.54-.31,.87-.89,.87-1.51s-.33-1.2-.87-1.51"/><path class="h" d="M10.8,25.08c.72-.59,1.45-1.29,2.07-1.88l.22-.22c.86-.84,1.91-1.39,3.02-1.61V2.9h27.78V21.36c1.11,.22,2.16,.78,3.02,1.61l.23,.22c.62,.59,1.34,1.3,2.07,1.88,.7-.41,1.53-1.52,1.53-4.76V3.86c0-2.13-1.72-3.86-3.84-3.86H13.11c-2.12,0-3.84,1.73-3.84,3.86V20.32c0,3.24,.83,4.35,1.53,4.76"/><path class="h" d="M40.59,28.48c-.63-.44-1.3-.91-1.82-1.49H21.22c-.51,.58-1.19,1.06-1.81,1.49-.38,.26-.8,.56-1.01,.76l-.52,.65h24.25l-.52-.65c-.21-.2-.63-.5-1.01-.76"/><path class="g" d="M15.39,29.89l1.57-1.93c1.05-1.13,3.93-2.25,3-3.5-.53-.71-1.44-1.18-2.42-1.25-.1,0-.21-.01-.31-.01-1.03,0-2.02,.42-2.81,1.18-.89,.86-2.1,2.06-3.29,2.86-2.69-.55-3.8-3.06-3.8-6.91-2.26,1.11-2.36,1.37-2.8,1.96-1.03,1.41-3.31,7.58-3.85,11.97-.18,1.48-.69,11.75-.69,11.75H8.78v-7.73c4.68-2.59,4.23-5.12,6.62-8.38"/><path class="g" d="M44.61,29.89c2.39,3.26,1.94,5.79,6.62,8.38v7.73h8.78s-.51-10.27-.69-11.75c-.54-4.39-2.82-10.56-3.85-11.97-.44-.59-.54-.85-2.8-1.96,0,3.85-1.11,6.36-3.8,6.91-1.19-.8-2.39-2-3.29-2.86-.79-.77-1.78-1.18-2.8-1.18h0c-.1,0-.21,0-.31,.01-.99,.08-1.89,.55-2.42,1.25-.94,1.25,1.94,2.38,3,3.5l1.57,1.93Z"/></g></g></g></svg>