<?xml version="1.0" encoding="UTF-8"?><svg xmlns="http://www.w3.org/2000/svg" viewBox="0 0 168.66 454.3"><defs><style>.e{fill:#eb1b2e;}.f{fill:#e7eee3;}.g,.h{fill:#fff;}.i{fill:#f1f2f2;}.j{fill:#fbefdd;}.k{fill:#975414;}.l{fill:#ba732e;}.m{fill:#bf2030;}.n{fill:#dcdcdc;}.o{fill:#23201f;}.p{fill:#363636;}.q{fill:#1a1a1a;}.r{fill:#603721;}.h{opacity:.34;}</style></defs><g id="a"/><g id="b"><g id="c"><g id="d"><g><g><g><path class="e" d="M101.75,81.13s-24.79,34.44-29.4,38.61c-3.29,2.97,4.42,50.64,4.16,51.11-.26,.47-26.31-1.06-28.64,.74-4.13,3.18-10.84-51.81-7.57-59.43,.95-2.21,15.5-27.15,23-31.58,18.29-10.83,38.78-3.28,38.46,.56Z"/><path class="m" d="M74.7,112.96c.35,.09,.68,.53,.53,.9-1.58,4.04-2.54,8.29-2.81,12.62-.06,.94-1.54,.97-1.48,.02,.27-4.46,1.22-8.84,2.85-13,.15-.37,.48-.64,.9-.53Z"/></g><path class="m" d="M54.35,168.53s-7.67,.78-7.46,2.83c.21,2.05,11.83,2.67,14.38,1.83,2.55-.83-3.54-5.02-6.93-4.66Z"/><path class="l" d="M77.81,176.7c-.19-.67-.38-1.33-.58-1.99-.26-.85-.36-1.69-.43-2.54-.14-.43-.25-.87-.3-1.32-.35-3.01-22.15-2.31-22.15-2.31,0,0,11.46,16.85,10.85,19.17,4.05-1.84,10.2-10.99,10.2-10.99l2.41-.02Z"/><path class="l" d="M57.78,173.73s14.52-1.24,19.19,.86c4.67,2.1,11.3,10.07,17.96,12.23,6.65,2.16,6.58,3.84,5.06,5.63s-6.65-.07-9.29-1.53c-2.64-1.45,.9,11.37,2.61,19.37,1.71,8-2.85,7.33-3.22,5.9-.37-1.43-3.83-13.67-3.83-13.67,0,0,2.6,15.44,1.51,18.25-1.08,2.8-3.24,1.94-4.62,.38s-2.57-.83-4.21-2.99c-1.64-2.16-4.78-12.34-5.9-15.79,0,0,.33,6.44,1.29,10.54,.97,4.1-3.3,2.99-4.7-1.28-1.4-4.27-4.45-21.83-4.41-23.93s-7.42-13.97-7.42-13.97Z"/><path class="k" d="M86.3,187.3c.88-.36,.26-1.7-.62-1.34-4.08,1.66-8.86,1.37-12.7-.81-.82-.47-1.69,.73-.86,1.2,4.32,2.46,9.58,2.83,14.18,.95Z"/><path class="k" d="M85.4,195.35c.76-.57-.18-1.71-.94-1.14-3.9,2.93-9.08,2.34-13.61,1.81-.95-.11-1.08,1.36-.14,1.47,4.98,.59,10.44,1.05,14.69-2.14Z"/></g><g><path class="f" d="M54.86,425.48s3.22,20.66,2.8,23.19c-.42,2.53-9.91,1.92-9.91,1.92,0,0-18.13,2.58-32.47,2.61-14.34,.04-14.98-1.44-15.19-2.07-.14-.42-.1-2.34-.06-3.58,.02-.64,.43-1.2,1.03-1.42,3.88-1.39,17.99-6.6,20.7-9.51,3.15-3.38,15.35-16.59,15.35-16.59l17.73,5.44Z"/><path class="i" d="M15.29,453.2c-14.34,.04-14.98-1.44-15.19-2.07-.14-.42-.1-2.34-.06-3.58,.02-.64,.43-1.2,1.03-1.42,3.88-1.39,17.99-6.6,20.7-9.51,1.11-1.19,3.35-3.61,5.79-6.24,1.26-.51,2.54-.64,4.91,.38,5.51,2.36,4.68,6.68,6.54,7.1,1.3,.29,13.7-3.36,16.74-5.43,.08,.53,.22,1.14,.39,1.8,.84,5.96,1.74,13.01,1.51,14.42-.42,2.53-9.91,1.92-9.91,1.92,0,0-18.13,2.58-32.47,2.61Z"/><path class="n" d="M.1,451.13c.21,.63,.85,2.11,15.19,2.07,14.34-.04,32.47-2.61,32.47-2.61,0,0,9.49,.61,9.91-1.92,.11-.65-.02-2.47-.28-4.83-5.35,2.16-7.71,.6-11.89,1.65-4.77,1.19-9.94,.8-23.87,1.79-13.92,.99-21.58,.28-21.58,.28-.04,1.23-.09,3.15,.06,3.58Z"/></g><g><path class="f" d="M130.87,430.61s2.78,16.65,2.37,19.18c-.42,2.53-9.91,1.92-9.91,1.92,0,0-7.37,2.55-21.71,2.59-14.34,.04-14.98-1.44-15.19-2.07-.14-.43-.1-2.39-.05-3.62,.02-.64,.32-1.24,.82-1.64,2.3-1.86,9.04-7.37,11.63-10.16,3.15-3.38,13.88-15.64,13.88-15.64l18.16,9.44Z"/><path class="i" d="M86.43,452.23c-.14-.43-.1-2.39-.05-3.62,.02-.64,.32-1.24,.82-1.64,2.3-1.86,9.04-7.37,11.63-10.16,.91-.97,2.44-2.68,4.16-4.62,1.9-.93,4.88-1.77,8.13-.38,5.51,2.36,8.83,6.5,10.7,6.92,1.3,.29,6.49-3.08,9.53-5.16,.78,4.9,2.19,14.37,1.89,16.23-.42,2.53-9.91,1.92-9.91,1.92,0,0-7.37,2.55-21.71,2.59-14.34,.04-14.98-1.44-15.19-2.07Z"/><path class="n" d="M123.33,451.71s9.49,.61,9.91-1.92c.12-.74-.03-2.71-.31-5.11-3.84,2.14-6.84,1.4-8.96,1.59-2.19,.2-7.76,2.59-18.89,2.98-10.28,.37-17.54-.98-18.6-1.2-.05,.18-.09,.36-.1,.55-.04,1.23-.09,3.2,.05,3.62,.21,.63,.85,2.11,15.19,2.07,14.34-.04,21.71-2.59,21.71-2.59Z"/></g><g><path class="p" d="M65.14,184.11S29.37,421.95,28.86,425.55c-.51,3.6,18.98,10.53,28.54,8.58,3.65-.74,28.95-151.12,30.44-159.83,1.49-8.72,5.83-30.9,5.83-30.9,0,0,6.68,73.88,6.47,116.53-.21,42.65-.24,67.58-.24,67.58,0,0,.28,2.51,31.69,6.48,1.68-.96,7.62-221.11,3.62-249.88-3.99-28.76-70.08,0-70.08,0Z"/><path class="q" d="M91.49,220.56c-1.63-11.24-3.05-22.51-4.27-33.8-.34-3.19-.67-6.39-.98-9.58-.09-.94-1.57-.95-1.48,0,1.11,11.41,2.43,22.8,3.96,34.16,.11,.84,.24,1.69,.35,2.53-.58-.49-1.24-.9-1.9-1.32-1.05-.67-1.84-1.48-2.44-2.58-.59-1.08-.95-2.27-1.28-3.46-.43-1.52-.84-3.05-1.25-4.57l-5.09-18.6c-.96-3.52-1.92-7.03-2.89-10.55-.25-.92-1.68-.53-1.43,.39,1.73,6.32,3.46,12.64,5.19,18.96,.84,3.08,1.69,6.16,2.53,9.24,.76,2.79,1.35,5.74,2.5,8.4,.54,1.25,1.29,2.43,2.36,3.29,1.07,.86,3.35,2.45,3.98,2.81,.24,1.69,.46,3.38,.71,5.07,.14,.94,1.56,.54,1.43-.39Z"/><path class="q" d="M122.32,191.38c.42-1.22,2.36-.7,1.94,.54-2.72,7.97-.6,17.21,4.95,23.49,1.59,1.8,3.44,3.34,5.52,4.54,1.12,.65,.11,2.39-1.02,1.74-7.91-4.58-12.72-13.66-12.66-22.73,.02-2.57,.43-5.14,1.26-7.58Z"/><path class="q" d="M61.58,389.86c1.69-8.49,5.34-33.33,5.86-36.96,.51-3.56,1.14-7.13,1.35-10.72,.1-1.8,.09-3.61-.18-5.4-.26-1.7-.83-3.26-1.4-4.87-.88-2.52-.93-4.88,1.06-6.84,1.52-1.49,4.2-2.69,4.44-5.05,.17-1.68-.83-3.22-1.18-4.81-.33-1.49-.14-3,.22-4.47,.84-3.46,1.91-6.88,2.81-10.33,.91-3.47,1.78-6.94,2.62-10.43,1.7-7.03,13.94-49.7,14.25-51.43,.11-.64,1.15-.35,.97,.27-4.25,14.42-14.45,53.12-18.24,66.95-.48,1.74-1.02,3.48-1.45,5.24-.47,1.92-.41,3.59,.25,5.45,.45,1.27,.94,2.57,.72,3.94-.17,1.02-.73,1.89-1.44,2.62-1.56,1.61-4.22,2.73-4.62,5.16-.29,1.73,.57,3.44,1.13,5.04,.52,1.48,.83,3.01,.99,4.57,.33,3.31-.09,6.64-.55,9.92-.51,3.6-1.03,7.2-1.55,10.8-1.05,7.32-2.1,14.64-3.15,21.95-2.09,14.57-7.11,29.64-7.36,31.42-.09,.64-1.13,.35-.97-.27,2.3-9.18,3.99-14.57,5.43-21.75Z"/></g><g><path class="e" d="M128.15,53.4c-1.12-.29-2.2-.74-3.35-1-2-.45-3.98-.94-5.97-1.4-1.65-.37-3.4-.64-5.16-.75-.63,.01-1.28-.02-1.94-.04-1.44-.05-2.79,.15-4.19,.45-3.15,.69-6.26,1.56-9.33,2.54-3.05,.98-6.33,1.89-9.16,3.4-2.36,1.25-4.48,2.81-6.96,3.83,.03,.03,.05,.04,.05,.04,0,0-15.72,13.16-22.18,19.46-6.46,6.3,7.88,33.05-.45,77.87-4.54,24.44,2.47,26.71,5.26,28.34,2.79,1.63,67.91-2.18,75.09-11.3,7.12-9.05-11.38-119.49-11.7-121.43Z"/><path class="e" d="M128.14,53.37s8.2,3.81,20.24,11.82c12.03,8.01,18.42,67.08,20.02,77.1,1.6,10.01-4.81,26.31-5.21,29.98-.4,3.67-7.61,30.34-7.61,39.91,0,9.57-26.43-2.97-26.43-2.97,0,0-2.12-2,.19-12.22,2.31-10.22,1.51-30.87-1.7-68.41-3.2-37.54,.5-75.2,.5-75.2Z"/><path class="m" d="M136.12,121.21c-.18,1.83-.38,3.66-.56,5.49-1.52-8.69-2.8-17.43-3.82-26.2-.35-2.98-.66-5.96-.95-8.95-.09-.94-1.57-.95-1.48,0,1.03,10.64,2.42,21.24,4.18,31.78,.48,2.89,.99,5.78,1.53,8.66-.52,4.92-1.06,9.84-1.63,14.75-.98,8.5-2.04,17-3.16,25.48-.64,4.78-1.29,9.56-1.97,14.34-.06,.4,.1,.79,.52,.91,.35,.1,.85-.12,.91-.52,1.21-8.5,2.35-17.01,3.42-25.52,1.08-8.57,2.08-17.16,3.01-25.75,.52-4.82,1.02-9.65,1.5-14.47,.09-.95-1.39-.94-1.48,0Z"/><path class="m" d="M136.03,78.4c-1.09,2.67-1.89,5.45-2.4,8.29-.11,.62,.83,.9,.95,.28,1.55-8.66,5.93-16.69,12.23-22.8-.28-.18-.56-.37-.84-.54-4.27,4.18-7.69,9.23-9.94,14.78Z"/><path class="j" d="M62.85,119.23c-.24-5.64-.76-11.26-1.52-16.85-.05-.4-.56-.61-.91-.52-.43,.11-.57,.52-.52,.91,1.35,9.92,1.64,19.92,1.32,29.92-.16,5.02-1.22,9.33-1.73,14.98-.11,1.26,1.44,1.73,1.65-.05,1.17-9.93,2.12-18.4,1.7-28.39Z"/><path class="m" d="M59.88,80.01c-.35,.36-.66,.85-.93,1.45,.28,4.99,1.24,9.95,2.86,14.69,.2,.6,1.16,.34,.95-.26-1.75-5.13-2.72-10.48-2.89-15.88Z"/></g><g><path d="M110.35,12.99c1.14-1.6,1.47-3.77,.66-5.6-.16-.36-.51-.62-.92-.49-.35,.11-.65,.56-.49,.92,.58,1.31,.46,2.85-.25,4.04,.05-.8-.15-3.28-3.97-5.59-4.62-2.79-8.78-7.18-17.04-6.1-8.26,1.08-11.28,6.42-13.14,6.36-1.85-.05-5.86,.89-6.48,6.71-.62,5.82,1.63,17.9,8.51,20.47,6.87,2.57,23.55,9.09,23.55,9.09,0,0,6.36-3.11,8.97-9.03,5.67-12.86,2.86-18.52,.6-20.79Z"/><g><path d="M77.95,29.76l-7.16,1.48-.04-2.91,8.2-.12s-.67,1.33-1.01,1.55Z"/><path class="l" d="M103.9,38.44s2,9.82,4.62,12.75c-.42,1.5-4.67,10.49-16.96,8.77,0,0-2.81-10.89-4.38-16.93-1.57-6.04,16.71-4.59,16.71-4.59Z"/><path class="k" d="M91.2,58.54s.08-.02,.12-.02c4.46-1.06,8.79-3.49,10.49-7.99,.85-2.24,1.05-4.67,1.19-7.04,.1-1.7,.25-3.4,.55-5.07-2.52-.16-17.8-.93-16.36,4.61,1.22,4.71,3.2,12.36,4.01,15.51Z"/><path class="l" d="M111.67,30.8c.37-4.01-2.44-6.27-4.18-5.87-.71,.16-2.27,1.34-3.33,2.8-.87,1.2-.52,1.88-2.13,1.59-.73-.13-1.18-.67-1.79-1.01-.54-.31-1.86-3.52-2.4-3.82-3.25-1.78-5.98-6.46-6.22-8.52-.73-.06-3.39,2.56-9,1.08-.95-.25-4.15-.84-4.68-.52-.39,.23-1.23,.95-2.75,5.65-.44,2.72-.73,5.48-.85,6.68,0,.04,0,.08-.01,.12,0,.07-.02,.14-.03,.21-.25,1.81-1.19,6.39-.12,10.48,.46,4.22,1.65,7.99,3.89,10.24,7.08,7.13,15.97,4.07,20.42-.88,2.14-2.39,4.23-6.53,5.75-11.41h0s1.14,1.97,3.71,1.06c2.58-.91,3.34-3.87,3.71-7.88Z"/><path d="M92.92,27c-2.05-1.18-3.21-1.49-5.3-2.58-.85-.44-1.47,.9-.63,1.34,2.09,1.1,3.25,1.41,5.3,2.58,.35,.2,.82-.01,.98-.35,.18-.39,0-.78-.35-.98Z"/><path d="M77.39,24.77c-.24-.31-.7-.42-1.03-.18-.78,.58-1.56,1.16-2.35,1.74-.31,.23-.43,.71-.18,1.03,.24,.31,.7,.42,1.03,.18,.78-.58,1.56-1.16,2.35-1.74,.31-.23,.43-.71,.18-1.03Z"/><path class="o" d="M76.48,30.97c0-.32-.07-.66-.21-.95-.06-.14-.16-.27-.3-.33-.15-.06-.29-.06-.45-.02-.03,0-.07,.02-.1,.04-.12,0-.24,.02-.35,.1-.29,.2-.49,.5-.59,.84-.09,.23-.12,.48-.08,.73-.02,.11-.04,.23-.02,.34,.07,.43,.39,.77,.83,.83,.45,.06,.86-.17,1.07-.57,.15-.3,.19-.66,.19-1Z"/><path class="o" d="M89.51,32.43c.08-.24,.11-.47,.1-.72,0-.01,0-.03,0-.04,.02-.33-.04-.66-.23-.95-.19-.28-.49-.5-.83-.57-.17-.03-.37-.02-.54,.05-.24,.1-.42,.28-.54,.51-.09,.16-.13,.36-.18,.54-.04,.14-.07,.29-.08,.44-.04,.39,.02,.81,.28,1.13,.13,.16,.29,.31,.5,.39,.03,.01,.06,.02,.08,.02,.02,0,.05,.01,.07,.02,.19,.04,.38,.04,.58-.01,.37-.1,.69-.44,.81-.8Z"/><path class="k" d="M83.2,38.05c.02-.16,0-.33-.08-.46-.1-.14-.22-.22-.39-.25l-1.12-.25c-.14-.03-.33,.03-.45,.12-.13,.09-.24,.26-.27,.42-.02,.16,0,.33,.08,.46,.1,.14,.22,.22,.39,.25l1.12,.25c.14,.03,.33-.03,.45-.12,.13-.09,.24-.26,.27-.42Z"/><path class="r" d="M103.15,29.27l-7.8,2.02-.04-2.91,8.85-.66s-.67,1.33-1.01,1.55Z"/><path class="h" d="M95.32,28.34l.04,2.91s.04,2.2-.84,3.77c-.88,1.56-8.46,2.65-9.46,1.77-.99-.87-.97-8.5-.41-9.18,.55-.68,8.36-.63,9.15-.57,1.69,.14,1.52,1.29,1.52,1.29Z"/><path class="h" d="M70.6,28.76l.12,2.91s.08,2.2,1.03,3.72c.96,1.52,6.44,2.19,7.39,1.27,.95-.92,.52-8.54-.07-9.18-.59-.65-6.23-.19-7.02-.08-1.68,.23-1.45,1.37-1.45,1.37Z"/><path class="r" d="M85.06,37.22c-.09-.04-.17-.09-.24-.15-1.2-1.06-1.07-8.94-.45-9.69,.76-.93,9.38-.71,9.46-.7,.72,.06,1.24,.29,1.56,.69,.33,.41,.32,.85,.3,.98l.04,2.89c0,.09,.03,2.32-.88,3.95-.64,1.14-3.62,1.76-4.87,1.97-.4,.07-3.72,.61-4.92,.05Zm9.43-9.63c-.19-.09-.43-.15-.71-.17-1.07-.09-8.18-.05-8.85,.45-.48,.76-.39,7.96,.39,8.65,.28,.25,2.02,.36,4.54-.07,2.25-.38,4.04-1.04,4.35-1.6,.82-1.46,.79-3.56,.79-3.58l-.03-2.97s.02-.25-.15-.46c-.08-.09-.19-.17-.32-.24Z"/><path class="r" d="M72.67,36.55c-.55-.26-.99-.58-1.24-.96-1-1.58-1.09-3.81-1.09-3.9l-.12-2.89c-.02-.13-.05-.57,.25-1,.3-.42,.81-.68,1.52-.77,.06,0,6.52-.7,7.34,.2,.65,.71,1.2,8.58,.05,9.7-.73,.71-2.91,.52-3.56,.44-1.06-.12-2.26-.39-3.17-.82Zm6.06-8.86c-.74-.35-5.26-.11-6.63,.08-.49,.07-.84,.23-1.01,.46-.17,.23-.13,.46-.13,.47v.05l.12,2.91s.09,2.13,.98,3.54c.4,.63,1.98,1.22,3.86,1.44,1.59,.19,2.69,.02,2.96-.24,.74-.72,.45-7.92-.09-8.68-.02-.01-.04-.02-.06-.04Z"/><path class="r" d="M84.46,28.27h0l-5.12,.03h0c.11,.54,.2,1.28,.26,2.11,0,0,2.21-1.99,4.68,.12h0c.02-.91,.08-1.72,.18-2.26Z"/><path class="g" d="M80.01,44.78l8.89-.94s-.13,5.62-4.92,5.81l-3.97-4.87Z"/></g></g><g><path class="l" d="M154.98,207.75s-1.82-4.06-6.89-6.3c-5.07-2.24-12.67-.89-15.21,.89s-4.17,3.58-3.73,6.86c.45,3.28,3.33,6.86,2.41,9.1-.92,2.24-2.76,6.06,.14,5.67,0,0-4.25,1.98-1.75,5.18,1.32,1.7,6.01-1.25,6.01-1.25,0,0,3.81,2.59,5.93,1.25,2.12-1.34,4.22,.52,6.32-.82,2.1-1.34,8.51-6.52,8.66-9.16,.15-2.64-1.89-11.41-1.89-11.41Z"/><path class="k" d="M132.29,222.75c2.73,0,3.39-3.27,3.41-5.38,.03-2.97-.22-5.96-.56-8.9-.11-.96,1.4-.96,1.51,0,.2,1.72,.35,3.45,.44,5.18,.09,1.67,.22,3.39,.05,5.05-.27,2.64-1.83,5.57-4.85,5.56-.97,0-.97-1.51,0-1.51Z"/><path class="k" d="M137.81,226.48c.85-.52,1.72-1.05,2.44-1.75,.78-.75,1.19-1.62,1.43-2.67,.54-2.41,1-4.85,1.49-7.27,.19-.95,1.65-.55,1.46,.4-.27,1.31-.54,2.63-.81,3.94-.27,1.32-.47,2.68-.85,3.98-.66,2.22-2.51,3.52-4.4,4.67-.83,.51-1.59-.8-.76-1.3Z"/><path class="k" d="M142.65,227.03c.56-.6,1.32-.84,2-1.26,.72-.45,1.02-1.36,1.35-2.1,.82-1.83,1.55-3.69,2.22-5.57,.32-.91,1.78-.52,1.46,.4-.71,2.01-1.5,3.99-2.37,5.93-.37,.83-.74,1.73-1.46,2.32-.65,.54-1.54,.73-2.12,1.34-.67,.71-1.73-.36-1.07-1.07Z"/><path class="k" d="M140.25,207.47c1.59-.68,3.43-.49,4.79,.62,.33,.27,.57,.6,.84,.93,.32,.4,.62,.51,1.12,.58,.9,.11,1.75,.23,2.58,.6,.75,.34,1.4,.88,1.79,1.62,.17,.33,.26,.78,.51,1.07,.28,.32,.73,.24,1.12,.36,1.5,.48,2.4,2.29,1.8,3.76-.36,.89-1.82,.5-1.46-.4,.22-.54,.15-1.11-.25-1.56-.49-.56-1.27-.36-1.87-.73-.59-.36-.8-1-1.08-1.59-.3-.64-.81-1.04-1.47-1.28-.68-.25-1.37-.29-2.08-.39-.83-.12-1.4-.48-1.91-1.14-.86-1.11-2.29-1.74-3.67-1.15-.88,.38-1.65-.92-.76-1.3Z"/></g></g><path class="g" d="M68.7,90.51c-.04,.31-.06,.61-.08,.92-.01,.3-.01,.62,.15,.88,.28,.44,.9,.49,1.42,.5l7.55,.06c1.08,0,2.19,.01,3.21-.36,1.9-.7,3.56-4.29,1.54-5.79-.56-.42-1.32-.45-2.02-.47-3.24-.06-6.47-.07-9.71-.02-.21,0-.42,0-.6,.11-.21,.12-.33,.35-.44,.57-.53,1.13-.88,2.35-1.03,3.59Z"/></g></g></g></svg>